<?xml version="1.0" encoding="utf-8"?>
<!-- Generator: Adobe Illustrator 24.3.0, SVG Export Plug-In . SVG Version: 6.00 Build 0)  -->
<svg version="1.1" id="Слой_1" xmlns="http://www.w3.org/2000/svg" xmlns:xlink="http://www.w3.org/1999/xlink" x="0px" y="0px"
	 viewBox="0 0 30 30" style="enable-background:new 0 0 30 30;" xml:space="preserve">
<style type="text/css">
	.st0{fill:#FFFFFF;}
	.st1{fill:#00707F;}
</style>
<g id="Attention_ico_10_">
	<circle id="Frame_52_" class="st0" cx="15" cy="15" r="15"/>
	<path class="st1" d="M20.7,19l-4-4l4-4c0.4-0.4,0.4-1.2,0-1.6c-0.4-0.4-1.2-0.4-1.6,0l-4,4l-4-4c-0.4-0.4-1.2-0.4-1.6,0
		c-0.4,0.4-0.4,1.2,0,1.6l4,4l-4,4c-0.4,0.4-0.4,1.2,0,1.6c0.4,0.4,1.2,0.4,1.6,0l4-4l4,4c0.4,0.4,1.2,0.4,1.6,0
		C21.1,20.2,21.1,19.5,20.7,19z"/>
</g>
</svg>
