<?xml version="1.0" encoding="utf-8"?>
<!-- Generator: Adobe Illustrator 24.3.0, SVG Export Plug-In . SVG Version: 6.00 Build 0)  -->
<svg version="1.1" id="Слой_1" xmlns="http://www.w3.org/2000/svg" xmlns:xlink="http://www.w3.org/1999/xlink" x="0px" y="0px"
	 viewBox="0 0 30.5 30.5" style="enable-background:new 0 0 30.5 30.5;" xml:space="preserve">
<style type="text/css">
	.st0{fill:#FFFFFF;}
	.st1{fill:#00707F;}
</style>
<g id="_x2D__23_">
	<path id="Frame_94_" class="st0" d="M15.2,0C6.8,0,0,6.8,0,15.2s6.8,15.2,15.2,15.2s15.2-6.8,15.2-15.2S23.7,0,15.2,0L15.2,0z"/>
	<path class="st1" d="M12.1,16.4c0-0.1-0.1-0.2-0.1-0.3v-1.7c0-0.1,0-0.2,0.1-0.3c0-0.1,0.1-0.1,0.3-0.1h5.7c0.1,0,0.2,0,0.3,0.1
		c0,0.1,0.1,0.2,0.1,0.3v1.7c0,0.1,0,0.2-0.1,0.3s-0.1,0.1-0.3,0.1h-5.7C12.3,16.5,12.2,16.4,12.1,16.4z"/>
</g>
</svg>
