<?xml version="1.0" encoding="utf-8"?>
<!-- Generator: Adobe Illustrator 24.3.0, SVG Export Plug-In . SVG Version: 6.00 Build 0)  -->
<svg version="1.1" id="Слой_1" xmlns="http://www.w3.org/2000/svg" xmlns:xlink="http://www.w3.org/1999/xlink" x="0px" y="0px"
	 viewBox="0 0 30.5 30.5" style="enable-background:new 0 0 30.5 30.5;" xml:space="preserve">
<style type="text/css">
	.st0{fill:#FFFFFF;}
	.st1{fill:#00707F;}
</style>
<g id="_x2D__24_">
	<path id="Frame_95_" class="st0" d="M15.2,0C6.8,0,0,6.8,0,15.2s6.8,15.2,15.2,15.2s15.2-6.8,15.2-15.2S23.7,0,15.2,0L15.2,0z"/>
	<path class="st1" d="M9.4,16.2c0-0.1-0.1-0.2-0.1-0.3v-1.3c0-0.1,0-0.2,0.1-0.3c0-0.1,0.1-0.1,0.3-0.1h4.5V9.6c0-0.2,0-0.3,0.1-0.3
		c0.1,0,0.2-0.1,0.3-0.1H16c0.1,0,0.2,0,0.3,0.1c0.1,0,0.1,0.1,0.1,0.3v4.6h4.5c0.1,0,0.2,0,0.3,0.1c0,0.1,0.1,0.2,0.1,0.3v1.3
		c0,0.1,0,0.2-0.1,0.3c0,0.1-0.1,0.1-0.3,0.1h-4.5v4.7c0,0.2,0,0.3-0.1,0.3c-0.1,0-0.2,0.1-0.3,0.1h-1.4c-0.1,0-0.2,0-0.3-0.1
		c-0.1,0-0.1-0.1-0.1-0.3v-4.7H9.7C9.5,16.3,9.4,16.2,9.4,16.2z"/>
</g>
</svg>
