<?xml version="1.0" encoding="utf-8"?>
<!-- Generator: Adobe Illustrator 24.3.0, SVG Export Plug-In . SVG Version: 6.00 Build 0)  -->
<svg version="1.1" id="Слой_1" xmlns="http://www.w3.org/2000/svg" xmlns:xlink="http://www.w3.org/1999/xlink" x="0px" y="0px"
	 viewBox="0 0 875 495" style="enable-background:new 0 0 875 495;" xml:space="preserve">
<style type="text/css">
	.st0{fill:#FFFFFF;}
	.st1{fill:#FFFFFF;stroke:#000000;stroke-width:0.5;stroke-linecap:round;stroke-linejoin:round;stroke-miterlimit:10;}
</style>
<g id="Icons">
	<g id="_x31_3">
		<path class="st0" d="M629.97,440.36c-0.16-0.84-0.99-1.71-2.56-2.67c-2.71-1.66-5.05-3.1-6.45-2.59
			c-0.49,0.18-0.84,0.59-1.03,1.19c-0.36,0.75-1.3,2.21-1.86,1.93c-0.49-0.23-0.96-0.27-1.38-0.11c-0.98,0.36-1.71,1.75-2.34,3.19
			c-1.23,2.79-4.64,8.12-8.74,8.32c-2.44-0.05-3.68-0.18-4.88-0.31l-0.5-0.05c0,0,0,0,0,0c-0.22-0.02-22.24-1.94-25.04,20.83
			c-1.18,9.61,3.5,17.91,12.5,22.19c3.84,1.83,7.97,2.71,11.99,2.71c6.42,0,12.57-2.25,16.91-6.56c0.09-0.09,8.57-8.98,6.05-21.16
			c-0.34-1.65-0.97-3.39-1.97-5.46c-0.7-1.45-1.55-4.27,0.69-6.77c0.45-0.51,0.93-1.03,1.42-1.56c3.25-3.56,6.6-7.24,5.55-8.65
			c-0.7-0.93-0.43-1.18,0.15-1.72c0.21-0.2,0.45-0.42,0.67-0.71l0.07-0.09C629.64,441.79,630.12,441.17,629.97,440.36z
			 M627.19,438.05c1.46,0.89,2.23,1.67,2.36,2.39c0.02,0.1,0.01,0.2,0,0.3c-0.03-0.02-0.05-0.05-0.09-0.06
			c-4.99-0.81-8.32-5.09-8.36-5.14c-0.01-0.01-0.02-0.01-0.03-0.02c0.01-0.01,0.03-0.02,0.04-0.02
			C622.32,435.06,624.68,436.51,627.19,438.05z M622.46,453.21c-0.49,0.54-0.97,1.06-1.42,1.57c-2.41,2.69-1.51,5.68-0.76,7.23
			c0.98,2.04,1.6,3.74,1.94,5.36c2.48,11.96-5.86,20.7-5.94,20.79c-6.93,6.87-18.61,8.42-28.41,3.76
			c-8.83-4.2-13.42-12.33-12.26-21.76c2.34-19.06,18.38-20.51,23.2-20.51c0.83,0,1.33,0.04,1.37,0.05l0.5,0.05
			c1.21,0.13,2.46,0.26,4.93,0.31c4.32-0.22,7.85-5.71,9.12-8.58c0.57-1.29,1.27-2.66,2.1-2.96c0.32-0.12,0.66-0.09,1.05,0.1
			c0.07,0.03,0.14,0.05,0.21,0.06c0.5,0.76,4.07,5.95,8.97,5.95c0.2,0,0.4-0.02,0.61-0.03c0.08,0.15,0.17,0.32,0.31,0.5
			C628.83,446.22,625.3,450.09,622.46,453.21z M628.88,442.08l-0.07,0.09c-0.2,0.26-0.42,0.47-0.62,0.65
			c-0.42,0.39-0.8,0.75-0.67,1.35c-4.58,0.32-8.18-4.46-8.96-5.58c0.87-0.37,1.65-1.91,1.76-2.15c0.1-0.31,0.24-0.54,0.42-0.71
			c0.01,0.02,0,0.04,0.01,0.05c0.03,0.04,3.47,4.46,8.63,5.3c0.01,0,0.02,0,0.04,0c0.02,0,0.04-0.02,0.06-0.02
			C629.37,441.43,629.13,441.76,628.88,442.08z"/>
		<path class="st0" d="M627.4,446.08c-0.56,0.63-1.75,0.79-6.62-2.27c-4.35-2.73-4.22-4.56-4.21-4.59c0.02-0.11-0.07-0.22-0.18-0.23
			c-0.13-0.02-0.23,0.06-0.24,0.18c-0.01,0.05-0.1,0.9,1.07,2.28l-2.2,4.13c-0.18,0.33-0.12,0.74,0.15,1.01
			c0.96,0.96,3.48,3.25,6,3.72c0.05,0.01,0.1,0.01,0.15,0.01c0.25,0,0.49-0.11,0.66-0.3l3.08-3.45c0.57,0.2,1.05,0.31,1.45,0.31
			c0.53,0,0.92-0.17,1.22-0.51c0.08-0.09,0.07-0.22-0.02-0.3C627.62,445.99,627.48,446,627.4,446.08z M621.65,449.73
			c-0.11,0.12-0.27,0.18-0.41,0.15c-2.4-0.44-4.84-2.66-5.77-3.6c-0.14-0.14-0.17-0.35-0.08-0.52l2.12-3.99
			c0.65,0.69,1.61,1.5,3.03,2.39c1.71,1.07,3.03,1.8,4.08,2.23L621.65,449.73z"/>
		<path class="st0" d="M611.83,470.23c0.01-1.32-0.25-8.2-6.71-10.23c-0.22-0.66-2.57-7.45-5.1-7.79c-0.69-0.09-1.3,0.26-1.85,1.06
			c-1.13,1.65-1.48,4.2-1.46,6.82c-2.23,0.46-6.44,3.27-7.07,7.3c-4.01-1.61-6.91-4.26-7.34-8.74c-0.01-0.12-0.11-0.21-0.23-0.19
			c-0.12,0.01-0.2,0.11-0.19,0.23c1.03,10.78,15.63,11.35,26.29,11.77c0.89,0.03,1.75,0.07,2.57,0.11c0.28,0.01,0.54,0.04,0.81,0.06
			c0.02,0.01,0.03,0.02,0.04,0.02c0,0,0.01,0,0.01,0c0.01,0,0.02-0.01,0.04-0.01c3.01,0.29,5.19,1.27,6.47,2.93
			c1.87,2.43,1.17,5.51,1.16,5.54c-0.03,0.11,0.04,0.23,0.16,0.25c0.02,0,0.03,0.01,0.05,0.01c0.1,0,0.19-0.07,0.21-0.16
			c0.03-0.13,0.76-3.3-1.23-5.88C617.12,471.57,614.89,470.54,611.83,470.23z M598.52,453.49c0.46-0.66,0.93-0.96,1.44-0.88
			c1.84,0.25,3.88,5.02,4.66,7.23c-0.19-0.05-0.39-0.1-0.59-0.14c-0.44-0.09-0.86-0.16-1.27-0.2c-0.28-0.79-1.63-3.56-2.61-3.4
			c-0.59,0.09-1.17,0.94-0.39,6.76c0.04,0.24,0.94,5.47,1.25,6.79c-0.89-0.07-1.77-0.16-2.65-0.27
			C597.85,467.29,595.76,457.52,598.52,453.49z M600.2,456.51c0.53-0.07,1.74,2.04,2.09,2.95c-0.85-0.07-1.67-0.05-2.46,0.06
			C599.68,456.78,600.09,456.53,600.2,456.51z M590.05,467.53c0.55-3.84,4.52-6.53,6.67-7.02c0.08,3.72,0.86,7.45,1.18,8.82
			C595.1,468.97,592.4,468.42,590.05,467.53C590.04,467.53,590.05,467.53,590.05,467.53z M608.18,470.03
			c-2.13-0.08-4.43-0.18-6.74-0.35c-0.25-0.95-1.26-6.83-1.27-6.89c-0.15-1.15-0.25-2.08-0.31-2.85c1.26-0.18,2.59-0.13,4.07,0.17
			c7.27,1.5,7.49,8.67,7.47,10.08c-0.21-0.02-0.42-0.04-0.64-0.05C609.93,470.1,609.07,470.07,608.18,470.03z"/>
	</g>
	<g id="_x31_2">
		<g>
			<path class="st0" d="M871.19,440c-0.4,0-0.84-0.02-1.3-0.05c-1.02-0.08-2.01-0.8-3.15-1.63c-1.72-1.25-3.86-2.81-7.05-2.87
				c-0.03,0-0.07,0-0.1,0c-1.25,0-2.91,0.42-4.68,0.87c-2.84,0.72-6.06,1.53-8.39,0.76c-1.87-0.61-3.49-1.05-4.82-1.29
				c-0.9-0.17-2.1-0.16-3.26-0.16c-1.16,0-2.25,0.01-2.98-0.16c-2.11-0.49-3.6-1.11-4.29-1.53c-2.77-1.68-4.72-3.64-6.14-6.15
				c-2.21-3.92-5.32-11.44-1.3-17.8l0,0c0,0,0.56-1.26-0.05-2.52c-0.56-1.16-1.9-1.98-3.99-2.44c-0.09-0.01-3.07-0.27-3.96-2.41
				c-0.56-1.34-1.93-0.92-3.18-0.43c-0.22,0.09-0.4,0.16-0.53,0.19c-0.81,0.17-2.74,0.19-3.43-3.14c-0.22-1.05-0.66-1.39-1.04-1.7
				c-0.68-0.53-1.05-0.99-0.52-2.92c0.8-2.94-0.23-3.32-0.99-3.6c-0.18-0.07-0.34-0.13-0.47-0.22c-0.15-0.1-0.6-0.42-0.56-1.06
				c0.08-1.57,3.14-4.06,9.08-7.42c0.07-0.04,7.84-4.79,15.08,3.61c0.04,0.04,4.59,4.82,7.44,4.57c0.63-0.06,1.11-0.35,1.47-0.9
				c0.19-0.29,0.31-0.66,0.35-1.11c0.09-0.94,0.34-3.36,0.65-5.48c0.36-2.4,1.09-3.53,1.21-3.69c0.08-0.14,0.86-1.45,2.23-2.56
				c2.2-1.8,5.19-2.22,7.98-1.13c1.3,0.51,2.79,1.27,3.91,3.92c0.03,0.07,3.58,7.97,4.47,17c0.55,5.61,3.09,9.65,5.33,13.22
				c1.37,2.19,2.56,4.08,3.09,6.01c0.23,0.83,0.46,1.65,0.7,2.47c1.1,3.84,2.13,7.46,2.32,11.13c0.05,0.87,0.28,1.62,0.69,2.25
				c0.42,0.65,0.98,1.35,1.67,2.07c0.9,0.95,2.9,3.34,2.16,4.95C874.41,439.54,873.21,440,871.19,440z M859.59,434.95
				c0.04,0,0.07,0,0.11,0c3.34,0.06,5.54,1.67,7.31,2.96c1.09,0.79,2.02,1.48,2.91,1.55c2.53,0.2,4.08-0.17,4.49-1.06
				c0.63-1.37-1.43-3.72-2.07-4.41c-0.7-0.75-1.28-1.46-1.72-2.14c-0.46-0.7-0.72-1.54-0.77-2.5c-0.19-3.61-1.21-7.21-2.3-11.02
				c-0.23-0.82-0.47-1.64-0.7-2.47c-0.51-1.86-1.68-3.73-3.04-5.88c-2.27-3.61-4.84-7.71-5.4-13.43c-0.88-8.95-4.4-16.78-4.43-16.85
				c-1.05-2.48-2.43-3.19-3.65-3.67c-2.63-1.03-5.45-0.63-7.52,1.06c-1.34,1.1-2.11,2.43-2.12,2.44c0,0.01-0.01,0.01-0.01,0.02
				c-0.08,0.11-0.78,1.14-1.13,3.49c-0.31,2.11-0.56,4.52-0.65,5.46c-0.05,0.53-0.2,0.98-0.43,1.33c-0.44,0.67-1.05,1.05-1.82,1.11
				c-3.07,0.27-7.64-4.52-7.83-4.73c-6.98-8.09-14.19-3.71-14.5-3.52c-7.61,4.29-8.81,6.25-8.85,7.03
				c-0.02,0.33,0.17,0.51,0.36,0.64c0.07,0.05,0.21,0.1,0.36,0.16c1.07,0.4,2.13,1.08,1.28,4.19c-0.48,1.75-0.15,2.01,0.35,2.4
				c0.43,0.33,0.96,0.75,1.22,1.98c0.43,2.08,1.45,3.06,2.88,2.77c0.09-0.02,0.26-0.09,0.45-0.16c0.97-0.38,3-1.19,3.78,0.69
				c0.78,1.87,3.57,2.12,3.6,2.13c2.27,0.5,3.73,1.41,4.35,2.71c0.71,1.48,0.06,2.9,0.04,2.96c-3.9,6.17-0.86,13.5,1.3,17.32
				c1.38,2.44,3.28,4.34,5.97,5.98c0.63,0.38,2.09,1,4.15,1.47c0.67,0.16,1.74,0.15,2.87,0.15c1.17,0,2.4-0.01,3.35,0.16
				c1.35,0.25,2.99,0.69,4.88,1.31c2.21,0.72,5.36-0.07,8.13-0.77C856.59,435.38,858.28,434.95,859.59,434.95z M840.49,379.42
				L840.49,379.42L840.49,379.42z"/>
		</g>
		<g>
			<path class="st0" d="M808.82,391.69c-0.05,0-0.09-0.01-0.13-0.04c-0.11-0.08-0.13-0.23-0.06-0.34c0.17-0.26,4.31-6.37,8.27-7.34
				c0.13-0.03,0.25,0.05,0.28,0.18c0.03,0.13-0.05,0.26-0.17,0.29c-3.79,0.93-7.95,7.09-7.99,7.15
				C808.97,391.65,808.89,391.69,808.82,391.69z"/>
		</g>
		<g>
			<path class="st0" d="M812.38,399.66c-0.11,0-0.21-0.08-0.23-0.2c-1.31-7.36,4.37-13.22,4.43-13.28c0.09-0.09,0.24-0.09,0.33,0
				c0.09,0.09,0.09,0.25,0,0.34c-0.06,0.06-5.56,5.75-4.29,12.85c0.02,0.13-0.06,0.26-0.19,0.28
				C812.41,399.66,812.39,399.66,812.38,399.66z"/>
		</g>
		<g>
			<path class="st0" d="M818.23,402.64c-0.11,0-0.2-0.07-0.23-0.18c-2.03-8.65-0.98-12.3,0.25-13.85c0.98-1.23,2.11-1.21,2.16-1.21
				c0.13,0,0.23,0.12,0.23,0.25c0,0.13-0.11,0.23-0.24,0.23c0,0-0.01,0-0.01,0c-0.09,0-0.99,0.03-1.79,1.05
				c-1.16,1.47-2.12,4.99-0.14,13.42c0.03,0.13-0.05,0.26-0.17,0.29C818.27,402.64,818.25,402.64,818.23,402.64z"/>
		</g>
		<g>
			<path class="st0" d="M828.99,401.07c-0.03,0-0.06-0.01-0.09-0.02c-2.28-0.93-2.39-1.82-2.94-6.11c-0.1-0.8-0.22-1.73-0.37-2.8
				c-0.91-6.51-5.11-7.55-5.29-7.59c-0.13-0.03-0.21-0.16-0.18-0.29c0.03-0.13,0.15-0.21,0.28-0.18c0.05,0.01,4.69,1.13,5.66,7.99
				c0.15,1.07,0.27,2,0.37,2.8c0.54,4.25,0.63,4.9,2.65,5.73c0.12,0.05,0.18,0.19,0.13,0.31
				C829.18,401.02,829.09,401.07,828.99,401.07z"/>
		</g>
		<g>
			<path class="st0" d="M824.02,410.21c-0.03,0-0.06-0.01-0.09-0.02c-0.12-0.05-0.18-0.19-0.13-0.31
				c1.89-4.72,7.89-10.74,10.77-13.63l0.57-0.57c2.54-2.56,3.24-6.64,3.25-6.68c0.02-0.13,0.13-0.23,0.27-0.2
				c0.13,0.02,0.21,0.15,0.19,0.28c-0.03,0.17-0.73,4.26-3.38,6.94l-0.57,0.57c-2.86,2.87-8.81,8.84-10.66,13.47
				C824.2,410.16,824.11,410.21,824.02,410.21z"/>
		</g>
		<g>
			<path class="st0" d="M864.74,432.11c-6.79,0-11.66-4.6-11.71-4.66c-7.1-8.84-2.49-19.25-2.44-19.35c0.06-0.12,0.2-0.17,0.31-0.12
				c0.12,0.06,0.17,0.2,0.11,0.32c-0.05,0.1-4.53,10.23,2.36,18.82c0.05,0.04,7.04,6.64,15.86,3.79c0.13-0.04,0.26,0.03,0.3,0.16
				c0.04,0.13-0.03,0.26-0.15,0.3C867.76,431.9,866.2,432.11,864.74,432.11z"/>
		</g>
		<g>
			<path class="st0" d="M867.33,420.53c-0.09,0-0.18-0.06-0.22-0.15c-4.67-11.92-11.64-12.07-11.71-12.07
				c-0.13,0-0.24-0.11-0.24-0.24c0-0.13,0.1-0.24,0.23-0.24c0,0,0,0,0,0c0.33,0,7.36,0.16,12.15,12.38
				c0.05,0.12-0.01,0.26-0.13,0.31C867.39,420.52,867.36,420.53,867.33,420.53z"/>
		</g>
		<g>
			<path class="st0" d="M843.96,384.72c-1.24,0-2.25-1.03-2.25-2.3c0-1.27,1.01-2.3,2.25-2.3c1.24,0,2.25,1.03,2.25,2.3
				C846.21,383.69,845.2,384.72,843.96,384.72z M843.96,380.6c-0.98,0-1.78,0.82-1.78,1.82c0,1,0.8,1.82,1.78,1.82
				c0.98,0,1.78-0.82,1.78-1.82C845.74,381.42,844.94,380.6,843.96,380.6z"/>
		</g>
		<g>
			<path class="st0" d="M849.99,383.5c-1.24,0-2.25-1.03-2.25-2.3c0-1.27,1.01-2.3,2.25-2.3c1.24,0,2.25,1.03,2.25,2.3
				C852.23,382.47,851.23,383.5,849.99,383.5z M849.99,379.38c-0.98,0-1.78,0.82-1.78,1.82c0,1,0.8,1.82,1.78,1.82
				c0.98,0,1.78-0.82,1.78-1.82C851.76,380.2,850.97,379.38,849.99,379.38z"/>
		</g>
		<g>
			<path class="st0" d="M847.01,387.98c-0.03,0-0.05,0-0.08,0c-1.02-0.11-1.34-2.67-1.4-3.19c-0.01-0.13,0.08-0.25,0.21-0.26
				c0.14-0.03,0.25,0.08,0.26,0.21c0.11,1.08,0.5,2.71,0.98,2.76c0.01,0,0.01,0,0.02,0c0.2,0,0.85-0.31,1.95-3.71
				c0.04-0.13,0.18-0.2,0.3-0.15c0.12,0.04,0.19,0.18,0.15,0.3C848.25,387.47,847.49,387.98,847.01,387.98z"/>
		</g>
		<g>
			<path class="st0" d="M843.88,383.54c-0.58,0-1.05-0.48-1.05-1.07c0-0.59,0.47-1.07,1.05-1.07c0.58,0,1.05,0.48,1.05,1.07
				C844.93,383.06,844.46,383.54,843.88,383.54z M843.88,381.88c-0.32,0-0.58,0.27-0.58,0.59s0.26,0.59,0.58,0.59
				c0.32,0,0.58-0.26,0.58-0.59S844.2,381.88,843.88,381.88z"/>
		</g>
		<g>
			<path class="st0" d="M849.98,382.31c-0.58,0-1.05-0.48-1.05-1.07c0-0.59,0.47-1.07,1.05-1.07c0.58,0,1.05,0.48,1.05,1.07
				C851.03,381.83,850.56,382.31,849.98,382.31z M849.98,380.65c-0.32,0-0.58,0.27-0.58,0.59s0.26,0.59,0.58,0.59
				c0.32,0,0.58-0.26,0.58-0.59S850.3,380.65,849.98,380.65z"/>
		</g>
		<g>
			<path class="st0" d="M835.62,431.49c-0.07,0-0.15-0.04-0.19-0.1c-9.34-13.81,0.06-25,0.15-25.11c0.09-0.1,0.24-0.11,0.33-0.02
				c0.1,0.09,0.11,0.24,0.02,0.34c-0.09,0.11-9.25,11.02-0.12,24.51c0.07,0.11,0.05,0.26-0.06,0.34
				C835.72,431.48,835.67,431.49,835.62,431.49z"/>
		</g>
		<g>
			<path class="st0" d="M847.19,396.23c-5.49,0-7.12-4.78-7.14-4.83c-0.04-0.13,0.03-0.26,0.15-0.31c0.12-0.04,0.26,0.03,0.3,0.15
				c0.09,0.27,2.25,6.59,10.53,3.81c0.13-0.04,0.26,0.03,0.3,0.15c0.04,0.13-0.03,0.26-0.15,0.3
				C849.66,396.02,848.34,396.23,847.19,396.23z"/>
		</g>
	</g>
	<g id="_x31_1_1_">
		<path class="st0" d="M675.99,408.85c-1.44,0-2.96-0.05-4.58-0.17c-14.84-1.06-24.38-11.22-24.47-11.33
			c-0.09-0.1-0.08-0.25,0.02-0.34c0.1-0.09,0.26-0.08,0.35,0.02c0.09,0.1,9.5,10.12,24.14,11.17c14.85,1.06,21.51-3.07,24.48-6.72
			c0.08-0.1,0.24-0.12,0.35-0.04c0.11,0.08,0.13,0.23,0.04,0.34C693.6,405.12,687.89,408.85,675.99,408.85z M677.31,391.31
			c-0.07,0-0.14-0.03-0.19-0.09c-0.09-0.1-0.08-0.25,0.03-0.34c0.35-0.29,8.72-7.02,12.5-4.63c0.12,0.07,0.15,0.22,0.07,0.33
			c-0.08,0.11-0.23,0.14-0.35,0.07c-3.47-2.2-11.82,4.53-11.9,4.6C677.42,391.29,677.36,391.31,677.31,391.31z M664.74,386.79
			c-0.08,0-0.16-0.04-0.2-0.1c-0.08-0.11-0.05-0.26,0.06-0.34c0.06-0.04,5.59-3.76,11.98-5.24c6.44-1.5,9.11-5.93,11.69-10.22
			c2.65-4.4,4-11.21,3.94-12.57c-0.01-0.13,0.1-0.24,0.24-0.25c0.15,0,0.26,0.1,0.26,0.23c0.06,1.44-1.26,8.27-4,12.83
			c-2.64,4.38-5.36,8.9-12.01,10.45c-6.29,1.46-11.75,5.13-11.81,5.17C664.84,386.78,664.79,386.79,664.74,386.79z M663.01,367.51
			C663.01,367.51,663.01,367.51,663.01,367.51c-0.15,0-0.25-0.11-0.25-0.25c0.08-2.51,2.04-4.49,2.75-5.13
			c-2.7-1.09-4.67-2.79-4.71-2.82c-0.1-0.09-0.11-0.24-0.02-0.34c0.09-0.1,0.25-0.1,0.35-0.02c0.07,0.06,6.6,5.68,12,2.74
			c4.09-2.23,4.75-2.06,6.71-1.56l0.07,0.02c1.34,0.34,4.27,0.19,5.31-1.34c0.77-1.12,0.28-2.8-1.39-4.85l0.01,0
			c-0.27-0.34-1.18-2.09-1.01-4.28c0.06-0.75,0.47-7.36-2.51-9.59c-0.11-0.08-0.13-0.23-0.04-0.34c0.08-0.1,0.24-0.12,0.35-0.04
			c3.12,2.33,2.79,8.74,2.7,10c-0.17,2.23,0.84,3.86,0.9,3.96c2.3,2.81,2.04,4.49,1.42,5.41c-1.14,1.66-4.19,1.97-5.86,1.54
			l-0.07-0.02c-1.86-0.48-2.43-0.62-6.33,1.51c-2.46,1.34-5.12,1.02-7.36,0.22c-0.38,0.32-2.7,2.37-2.77,4.94
			C663.26,367.4,663.15,367.51,663.01,367.51z M668.21,357.09c-0.36,0-0.75-0.05-1.17-0.17c-0.13-0.04-0.21-0.17-0.17-0.3
			c0.04-0.13,0.18-0.2,0.31-0.16c1.66,0.47,2.65-0.21,3.8-0.99c0.26-0.18,0.52-0.35,0.79-0.52c1.57-0.96,2.62-0.46,2.66-0.44
			c0.12,0.06,0.17,0.21,0.11,0.32c-0.06,0.12-0.21,0.16-0.34,0.11c-0.04-0.02-0.86-0.38-2.17,0.42c-0.27,0.16-0.52,0.33-0.77,0.5
			C670.37,356.47,669.46,357.09,668.21,357.09z M659.51,355.95c-0.02,0-0.04,0-0.07-0.01c-0.13-0.03-0.21-0.17-0.18-0.29
			c0.31-1.11,0.28-1.83-0.08-2.07c-0.65-0.44-2.38,0.49-2.93,0.86c-0.11,0.07-0.27,0.05-0.35-0.06c-0.08-0.11-0.05-0.26,0.07-0.33
			c0.25-0.16,2.45-1.57,3.51-0.85c0.57,0.39,0.66,1.23,0.28,2.59C659.72,355.88,659.62,355.95,659.51,355.95z M677.69,349.23
			c-0.07,0-0.14-0.03-0.19-0.09c-0.03-0.04-0.77-0.92-0.36-2.75c0.07-0.32,0.16-0.64,0.24-0.95c0.36-1.34,0.71-2.6-0.21-4.15
			c-0.07-0.12-0.03-0.26,0.09-0.33c0.12-0.06,0.27-0.02,0.34,0.09c1.02,1.72,0.64,3.14,0.26,4.51c-0.08,0.31-0.17,0.61-0.24,0.93
			c-0.35,1.59,0.25,2.34,0.26,2.35c0.09,0.1,0.07,0.25-0.04,0.34C677.8,349.21,677.74,349.23,677.69,349.23z M667.74,339.08
			c-0.86,0-1.15-1.89-1.21-2.48c-0.02-0.13,0.08-0.25,0.22-0.27c0.14-0.01,0.26,0.08,0.28,0.21c0.12,1.06,0.47,2.05,0.72,2.05
			c0,0,0,0,0.01,0c0.54-0.03,1.73-1.25,1.86-1.46c0.03-0.13,0.15-0.18,0.29-0.15c0.13,0.03,0.21,0.19,0.18,0.31
			c-0.05,0.2-1.47,1.73-2.3,1.78C667.76,339.08,667.75,339.08,667.74,339.08z M691.27,304.03c-3.57,0-9.04-0.36-16.6-1.82
			c-0.43-0.08-4.27-0.78-5.07-1.33c-0.11-0.08-0.14-0.23-0.06-0.34c0.08-0.11,0.24-0.13,0.35-0.06c0.6,0.41,3.72,1.04,4.87,1.25
			c14.83,2.87,21.51,1.49,21.58,1.47c0.13-0.03,0.27,0.05,0.3,0.18c0.03,0.13-0.05,0.26-0.19,0.29
			C696.43,303.69,694.76,304.03,691.27,304.03z M693.49,298.12c-0.88,0-1.88-0.05-3.05-0.18c-1.15-0.13-2.44-0.25-3.8-0.39
			c-9.07-0.9-16.07-1.73-16.79-3.47c-0.1-0.24-0.13-0.61,0.26-1.05c0.09-0.1,0.25-0.11,0.35-0.03c0.1,0.09,0.12,0.24,0.03,0.34
			c-0.25,0.28-0.22,0.45-0.17,0.56c0.67,1.61,10.12,2.55,16.38,3.17c1.36,0.13,2.65,0.26,3.8,0.39c7.57,0.83,8.2-1.47,8.21-1.49
			c0.03-0.13,0.16-0.21,0.3-0.18c0.13,0.03,0.22,0.15,0.2,0.28C699.18,296.16,698.73,298.12,693.49,298.12z M692.79,291.14
			c-1.24,0-2.7-0.06-4.42-0.21c-11.72-1.01-16.49-1.96-17-3.38c-0.14-0.38,0.01-0.76,0.43-1.14c0.1-0.09,0.26-0.09,0.35,0.01
			c0.09,0.1,0.09,0.25-0.01,0.34c-0.4,0.36-0.32,0.57-0.3,0.63c0.61,1.68,11.8,2.65,16.58,3.06c10.28,0.89,10.79-1.32,10.8-1.34
			c0.02-0.13,0.15-0.22,0.28-0.2c0.13,0.02,0.23,0.13,0.22,0.26C699.69,289.4,699.3,291.14,692.79,291.14z"/>
		<path class="st0" d="M676.07,415c-6.8,0-15.15-1.63-21.33-4.4c-9.82-4.41-9.74-12.64-9.74-12.72c0-0.44,0.16-44.71,0.37-50.98
			c0.03-1,0.06-2.02,0.09-3.05c0.12-4.68,0.25-9.51,0.96-12.95c0.87-4.18,5.2-7.3,7.7-8.79c0.76-0.45,2.16-1.2,3.78-2.07
			c3.42-1.83,7.67-4.1,8.96-5.19c1.73-1.47,1.63-2.16,1.63-2.17c-0.01-0.03-0.01-0.05,0-0.08l1.24-10.73c0-0.04,0-0.09,0.01-0.17
			c0.07-0.57,0-0.71-0.05-0.74c-0.04-0.03-0.09-0.06-0.14-0.09c-0.49-0.32-1.31-0.85-1.29-3.33c0.02-2.68,0.59-3.96,2.09-4.73
			c0.73-0.37,0.68-0.54,0.47-1.34c-0.12-0.46-0.29-1.09-0.34-1.99c-0.15-2.56,2.08-3.64,2.1-3.65c3.98-1.88,17.07-0.1,22,0.57
			l0.38,0.05c4.1,0.56,4.59,1.81,4.64,2.11c0.64,1.45-1.49,5.3-1.74,5.74l-0.02,0.05c-0.03,0.06-0.06,0.16-0.06,0.18
			c0.01,0.02,0.09,0.13,0.69,0.36c1.18,0.46,0.89,3.29,0.85,3.61c-0.42,4.52-2.18,5.02-2.76,5.18c-0.39,0.11-0.47,0.31-0.47,0.32
			c0,0.01-0.88,6.12-1.12,9.03c-0.23,2.8-0.23,2.8,1.97,5.68l0.14,0.19c1.24,1.63,2.99,2.86,5.4,4.56c2.05,1.45,4.61,3.25,7.63,5.88
			c6.5,5.67,4.63,13.96,4.61,14.04c-0.15,0.55-15.23,54.23-17.49,60.69c-2.32,6.65-8.13,8.62-14.39,10.2
			C680.94,414.77,678.61,415,676.07,415z M668.99,312.63c0.04,0.25-0.01,1.08-1.79,2.59c-1.33,1.13-5.61,3.41-9.05,5.25
			c-1.62,0.86-3.01,1.61-3.76,2.06c-2.43,1.45-6.64,4.47-7.47,8.47c-0.71,3.4-0.83,8.21-0.96,12.87c-0.03,1.03-0.05,2.05-0.09,3.05
			c-0.2,6.26-0.37,50.52-0.37,50.97c0,0.08-0.06,8.01,9.45,12.27c8.39,3.76,20.85,5.41,27.77,3.66c6.12-1.54,11.8-3.46,14.04-9.89
			c2.26-6.45,17.33-60.12,17.48-60.66c0.02-0.07,1.82-8.09-4.46-13.57c-3-2.61-5.54-4.41-7.59-5.85c-2.36-1.66-4.22-2.98-5.51-4.66
			l-0.14-0.19c-2.22-2.91-2.31-3.02-2.07-6c0.24-2.93,1.12-9.04,1.13-9.11c0.03-0.09,0.18-0.48,0.77-0.65
			c0.55-0.15,2.06-0.58,2.46-4.78c0.13-1.16,0.05-2.88-0.54-3.11c-0.96-0.37-1.14-0.6-0.91-1.16l0.03-0.08
			c0.66-1.17,2.22-4.35,1.73-5.37c-0.01-0.03-0.02-0.05-0.02-0.08c0,0-0.23-1.17-4.22-1.72l-0.38-0.05
			c-4.42-0.6-17.87-2.44-21.7-0.62c-0.08,0.04-1.95,0.96-1.82,3.19c0.05,0.85,0.21,1.45,0.32,1.89c0.22,0.83,0.35,1.33-0.72,1.88
			c-1.33,0.68-1.81,1.81-1.83,4.31c-0.02,2.22,0.64,2.65,1.07,2.93c0.06,0.04,0.11,0.07,0.16,0.11c0.35,0.26,0.28,0.86,0.24,1.18
			c-0.01,0.05-0.01,0.08-0.01,0.1c0.01,0.03,0,0.01,0,0.04L668.99,312.63z M675.42,401.2c-0.34,0-0.69-0.02-1.03-0.05
			c-4.64-0.42-9.34-3.8-13.96-10.04c-9.39-12.67-2.97-27.61-2.75-28.1c0.5-1.47,0.99-3.13,1-3.56c-1.35-0.56-3.6-2-3.7-2.07
			c-3.52-2.65-4.9-4.55-4.23-5.82c0.89-1.69,5.29-1.36,6.81-0.95l0.14,0.04c0.43,0.12,1.09,0.31,1.51,0.01
			c0.33-0.23,0.5-0.75,0.5-1.52c0.02-2.65,3.09-6.76,4.34-7.62c0.42-0.28,0.75-0.42,0.99-0.53c0.39-0.16,0.39-0.16,0.1-0.83
			c-0.57-1.36-0.84-2.42-1.03-6.9c-0.04-1.01,0.21-1.64,0.75-1.87c1.38-0.58,4.14,1.81,6.65,4.23l0.17,0.16
			c0.64,0.61,0.78,0.56,1.38,0.35c0.84-0.3,2.23-0.79,5.96-0.11c6.12,1.12,17.05,5.29,21.48,20.65c2.68,9.28-0.29,18.52-8.34,26.03
			l-0.22,0.21c-0.19,0.18-0.37,0.34-0.53,0.48c-0.93,0.83-1.4,1.24-1.69,4.51c-0.35,3.93-3.52,8.13-3.65,8.3
			C682.43,399.56,678.94,401.2,675.42,401.2z M654.63,350.77c-1.51,0-3.02,0.26-3.42,1.02c-0.3,0.57-0.18,2.01,4.07,5.22
			c0.01,0.01,2.41,1.55,3.7,2.05c0.23,0.09,0.52,0.2-0.83,4.12c0,0.01,0,0.01-0.01,0.02c-0.07,0.15-6.63,15.05,2.7,27.64
			c4.54,6.12,9.11,9.43,13.6,9.83c3.72,0.34,7.41-1.23,11.27-4.78c0-0.01,3.19-4.23,3.53-8.03c0.31-3.45,0.85-3.93,1.85-4.82
			c0.16-0.14,0.33-0.29,0.51-0.47l0.23-0.22c7.92-7.38,10.83-16.45,8.21-25.55c-4.36-15.11-15.08-19.21-21.09-20.31
			c-3.59-0.66-4.91-0.19-5.69,0.09c-0.71,0.25-1.08,0.33-1.91-0.46l-0.17-0.16c-1.2-1.15-4.84-4.65-6.09-4.12
			c-0.41,0.17-0.47,0.86-0.45,1.41c0.18,4.4,0.44,5.43,0.99,6.74c0.39,0.93,0.33,1.16-0.37,1.45c-0.22,0.09-0.53,0.22-0.9,0.48
			c-1.16,0.79-4.11,4.77-4.13,7.23c-0.01,0.95-0.24,1.57-0.7,1.91c-0.62,0.44-1.45,0.21-1.95,0.07l-0.13-0.04
			C656.78,350.91,655.71,350.77,654.63,350.77z M657.91,363.1L657.91,363.1L657.91,363.1z"/>
	</g>
	<g id="_x31_0">
		<g>
			<path class="st0" d="M811.99,308.34c-0.8,0-1.6-0.19-2.14-0.32l-0.23-0.05c-0.5-0.11-0.77-0.3-0.97-0.44
				c-0.32-0.22-0.48-0.33-1.61,0.23c-1.99,1-6-0.04-8.09-1.05c-2.05-1-3.13-1.15-6.88-1.37c-2.48-0.15-4.44-0.97-4.66-1.96
				c-0.05-0.23-0.04-0.66,0.57-0.99c0.56-0.3,1.21-0.71,1.22-1.15c0.01-0.39-0.43-0.87-1.32-1.43c-2.27-1.44-3.31-4.55-3.36-4.68
				c-0.36-1.39-0.21-2.62,0.43-3.68c1.28-2.09,4.04-2.74,4.18-2.77c1.04-0.25,1.49-0.14,2.01,0.06c0.2,0.07,0.39,0.2,0.6,0.34
				c0.76,0.49,1.71,1.11,3.61-0.09c2.52-1.58,4.64-2.79,7.14-2.79c0.01,0,0.02,0,0.04,0c0.79,0,1.09,0.41,1.2,0.75
				c0.45,1.38-1.44,4.29-3.24,5.6c-0.39,0.28-0.56,0.44-0.64,0.52c0.17,0.05,0.55,0.08,0.92,0.11c1.29,0.11,3.7,0.32,6.81,1.53
				c4.08,1.58,6.03,3.47,5.78,5.62l-0.01,0.07c-0.03,0.34-0.35,0.46-0.58,0.55c-0.08,0.03-0.23,0.09-0.25,0.12
				c0,0-0.02,0.16,0.57,0.7c1.56,1.41,1.81,2.78,1.82,2.84c0.09,1.49-0.23,2.54-0.96,3.14C813.41,308.19,812.7,308.34,811.99,308.34
				z M808.21,306.91c0.28,0,0.46,0.11,0.68,0.26c0.19,0.13,0.41,0.28,0.83,0.38l0.23,0.06c0.95,0.23,2.73,0.65,3.75-0.21
				c0.62-0.52,0.89-1.45,0.81-2.77l0,0c0,0-0.25-1.27-1.68-2.58c-0.55-0.5-0.76-0.82-0.7-1.09c0.05-0.26,0.31-0.36,0.52-0.44
				c0.18-0.07,0.3-0.12,0.31-0.19l0.01-0.07c0.22-1.93-1.63-3.67-5.52-5.17c-3.05-1.18-5.42-1.39-6.7-1.5
				c-0.89-0.08-1.26-0.11-1.34-0.4c-0.07-0.26,0.16-0.49,0.85-0.99c1.8-1.31,3.44-4.04,3.09-5.13c-0.1-0.3-0.36-0.45-0.8-0.46
				c-0.01,0-0.02,0-0.03,0c-2.38,0-4.46,1.18-6.92,2.73c-2.13,1.34-3.3,0.58-4.07,0.08c-0.2-0.13-0.37-0.24-0.52-0.29
				c-0.47-0.17-0.85-0.27-1.77-0.04c0,0,0,0,0,0c-0.03,0.01-2.73,0.63-3.91,2.58c-0.58,0.95-0.71,2.07-0.39,3.33
				c0.01,0.02,1.04,3.09,3.18,4.44c1.05,0.67,1.54,1.24,1.52,1.81c-0.02,0.65-0.71,1.11-1.44,1.51c-0.28,0.15-0.41,0.33-0.36,0.53
				c0.12,0.56,1.57,1.47,4.27,1.63c3.5,0.21,4.82,0.34,7.04,1.41c2.01,0.97,5.85,1.98,7.71,1.05
				C807.51,307.04,807.92,306.91,808.21,306.91z M789.19,288.87L789.19,288.87L789.19,288.87z"/>
			<path class="st0" d="M789.21,293.42c-0.52,0-0.94-0.2-1.09-0.57c-0.23-0.57,0.3-1.3,1.2-1.65h0c0.41-0.16,0.84-0.22,1.2-0.17
				c0.41,0.06,0.69,0.26,0.81,0.55c0.23,0.57-0.3,1.3-1.2,1.65C789.82,293.36,789.5,293.42,789.21,293.42z M789.49,291.59
				c-0.71,0.28-1.08,0.81-0.97,1.1c0.12,0.29,0.75,0.43,1.46,0.14c0.71-0.28,1.08-0.81,0.96-1.1c-0.06-0.14-0.23-0.25-0.48-0.29
				C790.17,291.4,789.83,291.45,789.49,291.59L789.49,291.59z"/>
		</g>
		<path class="st0" d="M808.37,320c-1.15,0-2.23-0.41-3.03-1.19c-1.07-1.04-1.42-2.52-0.96-4.06c0.28-0.94,0.24-1.61-0.12-1.99
			c-0.56-0.61-1.77-0.35-1.78-0.35c-5.28,0.9-7.28-0.5-9.04-1.74c-0.6-0.42-1.18-0.82-1.85-1.11c-0.82-0.35-1.43-0.41-1.88-0.19
			c-0.68,0.34-0.92,1.35-1.18,2.41l-0.09,0.37c-0.05,0.19-0.09,0.4-0.14,0.61c-0.24,1.1-0.5,2.34-1.55,2.88
			c-0.88,0.45-2.15,0.3-3.89-0.46c-3.28-1.44-3.06-5.8-2.85-10.01c0.11-2.13,0.21-4.15-0.13-5.76c-0.39-1.89-0.88-2.38-1.21-2.46
			c-0.57-0.13-1.3,0.76-1.84,1.42c-0.15,0.18-0.29,0.35-0.41,0.49c-0.08,0.09-0.18,0.2-0.28,0.33c-1.21,1.41-4.06,4.71-8.38,3.59
			c-2.15-0.56-3.94-2.04-5.06-4.18c-1.28-2.46-1.45-5.42-0.46-8.11c1.7-4.61,1.5-6.81,1.37-8.27c-0.02-0.19-0.03-0.37-0.04-0.54
			c-0.04-0.62-0.34-1.59-0.66-2.62c-0.44-1.42-0.94-3.02-0.95-4.27c0-0.35-0.05-0.91-0.11-1.62c-0.31-3.76-0.89-10.74,2.35-12.71
			c0.87-0.53,1.65-0.6,2.3-0.21c2.35,1.4,2.35,8.34,2.15,12.36c-0.09,1.77,0.16,2.82,0.7,2.93c1.17,0.25,3.71-3.18,4.84-6.02
			l0.08-0.2c1.56-3.92,3.48-8.82,8.03-8.63c1.82,0.07,2.54,0.98,2.83,1.73c0.73,1.89-0.49,4.74-1.65,5.88
			c-1.76,1.72-6.53,8.24-6.57,8.3c-0.11,0.16-1.17,2.45-0.53,3.67c0.26,0.49,0.77,0.74,1.55,0.74c3.29,0.03,4.21,1.52,5.03,2.83
			l0.18,0.29c0.1,0.16,0.19,0.32,0.28,0.47c0.67,1.16,1.07,1.85,4.7,0.24c4.27-1.89,14.32-2.17,14.74-2.18
			c17.39,0.07,19.61,12.22,19.63,12.35c0,0,0,0.01,0,0.01c0.24,1.91,1.2,3.37,2.86,4.33c0.11,0.06,0.26,0.12,0.44,0.2
			c1.06,0.43,3.04,1.23,2.56,4.87c-0.24,1.85-1.3,2.58-2.14,2.87c-1.7,0.58-4.03-0.15-5.06-1.17c-0.21-0.21-0.46-0.28-0.77-0.22
			c-1.48,0.28-3.72,3.43-4.67,5.56c-0.18,0.4-0.36,0.86-0.56,1.35c-1.03,2.56-2.45,6.06-5.22,6.96
			C809.4,319.92,808.88,320,808.37,320z M803.06,311.93c0.47,0,1.09,0.1,1.5,0.54c0.47,0.5,0.54,1.31,0.22,2.4
			c-0.41,1.38-0.1,2.71,0.85,3.64c1.04,1.01,2.63,1.34,4.15,0.84c2.58-0.84,3.96-4.23,4.96-6.71c0.2-0.5,0.39-0.96,0.57-1.36
			c0.8-1.8,3.16-5.46,4.98-5.8c0.45-0.09,0.83,0.03,1.14,0.34c0.94,0.93,3.08,1.6,4.63,1.07c1.06-0.36,1.69-1.21,1.86-2.52
			c0.44-3.32-1.27-4.01-2.3-4.43c-0.19-0.08-0.36-0.15-0.5-0.22c-1.78-1.03-2.81-2.6-3.07-4.64c-0.05-0.26-2.3-11.93-19.21-11.99
			c-0.1,0-10.38,0.29-14.58,2.15c-3.8,1.68-4.43,0.98-5.24-0.42c-0.08-0.15-0.17-0.3-0.27-0.45l-0.19-0.3
			c-0.83-1.34-1.62-2.61-4.68-2.63c-0.95-0.01-1.59-0.34-1.92-0.98c-0.74-1.44,0.44-3.91,0.57-4.1c0.04-0.06,4.84-6.61,6.62-8.35
			c1.05-1.03,2.21-3.72,1.55-5.42c-0.35-0.92-1.18-1.41-2.45-1.46c-4.23-0.19-6.11,4.56-7.62,8.36l-0.08,0.2
			c-1.08,2.73-3.77,6.61-5.33,6.28c-0.8-0.17-1.14-1.28-1.03-3.37c0.34-6.57-0.39-11.04-1.94-11.97c-0.52-0.31-1.13-0.24-1.86,0.2
			c-3.02,1.83-2.43,8.91-2.15,12.31c0.06,0.72,0.11,1.29,0.11,1.66c0.01,1.19,0.5,2.76,0.93,4.15c0.34,1.1,0.64,2.05,0.68,2.71
			c0.01,0.17,0.03,0.34,0.04,0.52c0.14,1.5,0.34,3.76-1.39,8.45c-0.95,2.58-0.8,5.41,0.43,7.77c1.06,2.03,2.76,3.44,4.79,3.97
			c4.08,1.06,6.79-2.11,7.96-3.46c0.11-0.13,0.21-0.24,0.29-0.33c0.12-0.13,0.25-0.3,0.4-0.47c0.64-0.79,1.44-1.76,2.27-1.56
			c0.68,0.17,1.16,1.05,1.53,2.79c0.35,1.66,0.24,3.7,0.14,5.86c-0.2,4.07-0.41,8.29,2.6,9.6c1.62,0.71,2.77,0.86,3.53,0.47
			c0.87-0.44,1.11-1.58,1.33-2.59c0.05-0.21,0.09-0.42,0.14-0.62l0.09-0.36c0.28-1.16,0.55-2.26,1.4-2.69
			c0.56-0.28,1.29-0.22,2.23,0.18c0.71,0.3,1.3,0.72,1.92,1.15c1.69,1.19,3.61,2.53,8.71,1.67
			C802.41,311.99,802.69,311.93,803.06,311.93z"/>
	</g>
	<g id="_x39__1_">
		<path class="st0" d="M698.23,184.43c-0.08-0.09-1.89-2.11-3.74-2.74c0,0-0.07-0.14,0.19-0.68c0.08-0.16,0.16-0.34,0.22-0.53
			c0.52-1.59,2.95-9.77-0.48-14.83c0-0.01,0-0.01-0.01-0.02c0,0,0,0,0,0c-0.01-0.01-0.01-0.02-0.02-0.04
			c-0.02-0.02-0.45-0.62-1.41-0.57c-1.33,0.06-3.66,1.39-7.25,7.38l-1.19,2.1c0,0-0.13,0.07-0.6-0.18
			c-0.06-0.05-6.43-4.53-12.33,0.19c0,0.01-0.21,0.02-0.56-0.81c0,0,0-0.01-0.01-0.01c-0.18-0.34-4.54-8.35-7.85-8.68
			c-0.7-0.07-1.3,0.2-1.8,0.79c-0.23,0.28-0.4,0.63-0.49,1.04c-0.53,2.3-2.88,13.9,3.1,17.19c-0.11,1.07-0.68,8.31,3.59,9.81
			c0.01,0,1.35,0.41,1.54,1.28c0.11,0.53-0.23,1.14-1.01,1.83c-0.16,0.15-3.95,3.6-3.61,7.55c0.18,2.11,1.52,3.95,3.97,5.47
			c0.57,0.36,1.76,0.79,2.48,0.05l1.13,2.09c-0.22,0.3-0.82,1.22-0.49,1.93c0.24,0.53,0.91,0.8,2,0.8l9.45,0.16
			c0.05,0,1.12-0.11,1.47-0.87c0.22-0.49,0.09-1.11-0.39-1.84c0-0.06,0.02-0.17,0.11-0.27c0.14-0.14,0.42-0.19,0.81-0.15
			c0.1,0.01,0.23,0.03,0.39,0.06c1.74,0.29,7.05,1.18,9.3-4.83c0.04-0.13,0.86-3.24-0.78-7.19c-0.61-0.98-2.03-3.71-1.18-4.65
			c0,0,0.26-0.43,0.78-0.53c0.44-0.09,0.95,0.06,1.51,0.46c1.27,0.91,1.76,1.05,2.55,0.22c0.71-0.74,1.26-1.62,1.66-2.6
			C699.99,190.94,700.85,187.37,698.23,184.43z M694.58,180.36c-0.05,0.16-0.12,0.3-0.18,0.43c-0.01,0.01-0.03,0.01-0.04,0.03
			c-1.14,1.74-2.37,2.47-2.82,2.7c-0.14-0.64-0.41-1.79-0.82-2.65c-0.03-0.07-3.4-7.23,1.44-13.82c0.25-0.34,1.01-1.25,1.62-1.31
			c0.15-0.01,0.28,0.03,0.39,0.13C697.47,170.79,695.09,178.8,694.58,180.36z M670.74,173.86c0.26,0.61,0.52,0.93,0.78,1
			c0.13,0.03,0.24-0.01,0.29-0.05c5.72-4.57,11.88-0.24,11.96-0.18c0.43,0.23,0.73,0.29,0.93,0.19c0.09-0.05,0.14-0.12,0.16-0.18
			l1.16-2.05c3.5-5.84,5.72-7.15,6.96-7.21c0.23-0.01,0.42,0.02,0.57,0.07c-0.82,0.22-1.65,1.36-1.68,1.41
			c-4.97,6.77-1.51,14.11-1.47,14.18c0.44,0.93,0.73,2.27,0.84,2.79c0,0.01,0,0.01,0,0.02c0,0,0,0,0.01,0.01
			c0.02,0.12,0.04,0.2,0.04,0.2c0.09,1.51-0.02,2.81-0.22,3.9c-0.92-5.1-3.62-7.41-4.79-8.19c-0.25-0.17-0.5-0.3-0.74-0.4
			c-3.48-1.4-6.73,1.48-6.75,1.49c-0.82,0.58-1.42,0.03-1.44,0.01c-0.83-0.83-1.69-1.32-2.26-1.59c-0.62-0.29-1.33-0.42-2.02-0.39
			c-5.94,0.26-8.09,7-8.64,9.25c-0.22-1.61-0.15-3.11-0.1-3.79c0-0.01,0.01-0.01,0.01-0.02c0.18-0.89,1.22-2.02,1.24-2.04
			c3.82-5.18-0.96-13.84-1.01-13.93c-0.93-1.66-1.79-2.5-2.55-2.5c0,0,0,0,0,0c-0.07,0-0.14,0.01-0.21,0.02
			c0.39-0.39,0.83-0.58,1.35-0.52C666.25,165.67,670.59,173.58,670.74,173.86z M661.23,166.92c0.02-0.11,0.06-0.2,0.1-0.29
			c0.04-0.01,0.08-0.04,0.11-0.08c0.01-0.01,0.2-0.34,0.58-0.34c0,0,0,0,0,0c0.35,0,1.11,0.3,2.25,2.32
			c0.05,0.08,4.72,8.54,1.05,13.53c-0.04,0.04-0.77,0.83-1.13,1.67C658.4,180.56,660.71,169.18,661.23,166.92z M664.57,188.98
			c0.01-0.02,0.03-0.04,0.04-0.07c0.02-0.09,1.66-9.4,8.48-9.69c0.64-0.03,1.29,0.1,1.86,0.36c0.55,0.25,1.37,0.72,2.16,1.52
			c0.01,0.01,0.83,0.77,1.89,0.02c0.03-0.03,3.13-2.76,6.41-1.44c0.22,0.09,0.45,0.21,0.68,0.36c1.2,0.79,4.05,3.24,4.78,8.82
			c-0.18,0.7-0.39,1.29-0.59,1.76c-0.51,1.19-1.4,2.23-2.56,2.99c-8.26,5.46-18.6,0.67-18.7,0.62c-0.01-0.01-0.03,0-0.04,0
			c-0.52-0.5-1.24-0.72-1.28-0.74C665.83,192.85,664.96,190.93,664.57,188.98z M678.46,201.79c-0.85,0.22-1.77-0.11-2.3-0.82
			c-1.13-1.51-0.24-4.05-0.06-4.53c0.77,0.08,1.57,0.14,2.4,0.14c0.43,0,0.87-0.02,1.31-0.05
			C680.48,199.57,680.02,201.4,678.46,201.79z M684.2,213.98c-0.26,0.58-1.18,0.67-1.17,0.67l-4.96-0.09l0.05-6.22
			c1.53-0.05,2.99-0.81,4.33-2.27c0.06-0.07,0.06-0.18-0.01-0.25c-0.07-0.07-0.18-0.06-0.24,0.01c-1.32,1.44-2.74,2.17-4.24,2.17
			c0,0,0,0-0.01,0c0,0,0,0,0,0c0,0,0,0,0,0c-0.01,0-0.02,0-0.02,0c-2.49-0.02-4.35-2.07-4.37-2.09c-0.06-0.07-0.17-0.08-0.24-0.01
			c-0.07,0.07-0.08,0.18-0.01,0.25c0.08,0.09,1.91,2.11,4.48,2.2l-0.05,6.21l-4.13-0.07c-0.93,0-1.52-0.21-1.69-0.6
			c-0.23-0.5,0.23-1.27,0.47-1.59c0.11-0.02,0.7-0.09,3.24,0.08c0,0,0.01,0,0.01,0c0.09,0,0.17-0.07,0.17-0.16
			c0.01-0.1-0.07-0.18-0.16-0.19c-1.02-0.07-2.67-0.15-3.25-0.08l-1.25-2.31c0-0.01,0-0.02-0.01-0.02
			c-0.03-0.05-3.48-5.12,0.72-11.42c0.05-0.08,0.03-0.19-0.05-0.24c-0.08-0.05-0.18-0.03-0.24,0.05c-3.98,5.97-1.3,10.88-0.79,11.7
			c-0.7,0.86-2.06,0.01-2.12-0.02c-2.35-1.46-3.64-3.21-3.81-5.2c-0.33-3.78,3.46-7.23,3.49-7.26c0.88-0.77,1.26-1.5,1.12-2.17
			c-0.02-0.1-0.06-0.19-0.1-0.27c0.98,0.4,3.38,1.27,6.39,1.64c-0.26,0.7-1.06,3.2,0.14,4.79c0.49,0.65,1.26,1.02,2.05,1.02
			c0.2,0,0.41-0.02,0.6-0.08c1.23-0.31,2.5-1.55,1.62-5.63c1.68-0.14,3.42-0.51,5.13-1.21c0.56,0.32,7.91,4.8,4.68,12.62
			c-0.01,0.02-0.85,1.68-2.12,1.48c-0.01,0-0.26-0.05-0.42-0.3c-0.15-0.23-0.19-0.57-0.11-0.98c0.01-0.06,0.14-0.55-0.15-0.74
			c-0.22-0.15-0.58-0.04-1.09,0.32c1.29-5.65-1.75-10.27-1.79-10.33c-0.05-0.08-0.16-0.1-0.24-0.04c-0.08,0.05-0.1,0.16-0.04,0.24
			c0.05,0.07,4.68,7.09-0.12,14.32c-0.01,0.01,0,0.02-0.01,0.03c-0.04,0.06-0.06,0.12-0.08,0.18c-0.46-0.1-1.81-0.33-4.18,0.03
			c-0.09,0.01-0.16,0.1-0.14,0.2c0.01,0.1,0.1,0.16,0.19,0.15c2.45-0.37,3.81-0.09,4.14-0.01
			C684.24,213.09,684.37,213.6,684.2,213.98z M693.45,194.38c-0.66,0.14-0.98,0.67-0.97,0.67c0,0,0,0,0,0
			c-1.17,1.3,1.07,4.9,1.15,5.02c1.58,3.81,0.76,6.9,0.75,6.92c-2.15,5.73-7.06,4.91-8.92,4.59c-0.16-0.03-0.3-0.05-0.4-0.06
			c-0.21-0.03-0.39-0.02-0.56,0c0.67-1.12,1.14-2.23,1.43-3.31c0.84-0.67,1.03-0.56,1.04-0.56c0.05,0.03,0.05,0.22,0.01,0.37
			c-0.1,0.52-0.05,0.95,0.16,1.26c0.25,0.37,0.62,0.44,0.64,0.45c0.1,0.02,0.19,0.02,0.28,0.02c1.35,0,2.16-1.62,2.2-1.7
			c3.11-7.53-3.2-12.05-4.59-12.94c0.75-0.33,1.49-0.73,2.21-1.21c1.22-0.8,2.14-1.89,2.68-3.15c0.58-1.34,1.22-3.59,1.04-6.76
			c0-0.01-0.01-0.05-0.02-0.12c0.37-0.17,1.44-0.76,2.54-2.17c0.01,0.06,0.03,0.12,0.06,0.17c0.06,0.1,0.15,0.14,0.23,0.15
			c1.73,0.61,3.53,2.62,3.55,2.64c1.53,1.72,1.81,3.67,1.63,5.34c-4.25-0.43-5.44,3.57-5.63,4.36
			C693.79,194.34,693.62,194.34,693.45,194.38z M698.93,192.68c-0.38,0.94-0.91,1.77-1.58,2.48c-0.58,0.61-0.82,0.66-2.1-0.26
			c-0.32-0.23-0.63-0.39-0.93-0.48c0.18-0.79,1.25-4.47,5.25-4.07C699.43,191.26,699.17,192.06,698.93,192.68z"/>
		<path class="st0" d="M676.07,191.15c0.09,0.01,0.17,0.01,0.25,0.01c0.69,0,1.2-0.19,1.53-0.57c0.1-0.12,0.17-0.25,0.23-0.38
			c0.06,0.13,0.13,0.26,0.24,0.39c0.3,0.34,0.75,0.52,1.34,0.52c0.02,0,0.05,0,0.08,0c0.06,0,1.39-0.09,1.94-1.56
			c0.03-0.09-0.01-0.19-0.1-0.23c-0.09-0.03-0.19,0.01-0.22,0.1c-0.47,1.25-1.59,1.33-1.63,1.34c-0.51,0.02-0.9-0.12-1.14-0.4
			c-0.32-0.37-0.32-0.89-0.32-1.05c0.48-0.02,1.02-0.19,1.56-0.65c0.12-0.09,1.16-0.86,0.92-1.53c-0.22-0.62-1.38-0.82-3.66-0.65
			c-0.15,0.01-1.42,0.1-1.61,0.75c-0.11,0.39,0.17,0.82,0.84,1.33c0.01,0.01,0.65,0.61,1.56,0.73c0.01,0.06,0.09,0.64-0.28,1.06
			c-0.29,0.33-0.79,0.48-1.5,0.44c-0.01,0-1.13-0.08-1.57-1.43c-0.03-0.09-0.13-0.14-0.22-0.11c-0.09,0.03-0.14,0.13-0.11,0.22
			C674.71,191.05,676.02,191.15,676.07,191.15z M675.8,187.34c0.1-0.33,0.92-0.48,1.3-0.5c0,0,0,0,0,0
			c0.54-0.04,0.99-0.06,1.36-0.06c1.58,0,1.89,0.32,1.95,0.48c0.12,0.33-0.49,0.9-0.81,1.13c-1.57,1.34-3.01-0.01-3.08-0.08
			C675.81,187.76,675.77,187.47,675.8,187.34z"/>
		<path class="st0" d="M670.91,188.73c1.4,0,2.55-1.17,2.55-2.6s-1.14-2.6-2.55-2.6s-2.55,1.17-2.55,2.6
			S669.51,188.73,670.91,188.73z M670.91,183.88c1.22,0,2.2,1.01,2.2,2.25c0,1.24-0.99,2.25-2.2,2.25c-1.22,0-2.2-1.01-2.2-2.25
			C668.71,184.89,669.7,183.88,670.91,183.88z"/>
		<path class="st0" d="M685.13,188.76c1.4,0,2.55-1.17,2.55-2.6c0-1.43-1.14-2.6-2.55-2.6s-2.55,1.17-2.55,2.6
			C682.59,187.59,683.73,188.76,685.13,188.76z M685.13,183.9c1.22,0,2.2,1.01,2.2,2.25c0,1.24-0.99,2.25-2.2,2.25
			s-2.2-1.01-2.2-2.25C682.93,184.91,683.92,183.9,685.13,183.9z"/>
	</g>
	<g id="_x38__1_">
		<path class="st0" d="M762.05,188.81c-0.17-0.08-0.26-0.26-0.22-0.44c0.05-0.21,0.26-0.34,0.47-0.29
			c3.42,0.79,6.92-5.38,8.88-10.91c1.95-5.49-1.96-11.42-4.58-14.05c-2.42-2.44-3.8-3.99-8.8-12.64c-2.93-5.06-2.44-8.04-1.52-9.64
			c0.89-1.55,2.46-2.26,3.3-2.28c0.39-0.01,0.73,0.15,1.08,0.32c0.99,0.47,2.43,1.14,6.75-1.9c6-4.21,10.46-1.98,14.4-0.01
			l0.15,0.08c1.36,0.68,2.48,0.86,3.23,0.53c0.71-0.31,0.9-0.97,0.9-1l2.06-4.71c1.02-3.38,2.28-5.1,3.82-5.21
			c2.13-0.14,3.75,3.03,3.82,3.16c12.18,16.63,10.68,31.63,10.04,38.03c-0.12,1.23-0.22,2.21-0.16,2.68
			c0.12,0.9,0.02,1.57-0.06,2.17c-0.2,1.34-0.33,2.22,3.04,4.83c5.04,3.88,6.4,15.11,6.46,15.59c0.02,0.21-0.13,0.41-0.35,0.43
			c-0.22,0.02-0.42-0.14-0.44-0.35c-0.01-0.11-1.38-11.38-6.15-15.06c-2.73-2.1-3.39-3.24-3.43-4.43c-0.11,0.11-0.28,0.15-0.44,0.09
			c-0.24-0.1-5.92-2.32-9.23,2.1c-0.13,0.17-0.36,0.21-0.56,0.08c-0.18-0.13-0.22-0.37-0.09-0.55c3.67-4.91,10.1-2.37,10.16-2.35
			c0.08,0.03,0.12,0.07,0.16,0.12c0.02-0.2,0.04-0.4,0.07-0.62c0.09-0.57,0.17-1.16,0.06-1.95c-0.08-0.56,0.01-1.47,0.15-2.86
			c0.63-6.31,2.11-21.1-9.93-37.55c-0.43-0.84-1.75-2.87-3.07-2.78c-0.8,0.06-1.99,0.92-3.14,4.71l-2.06,4.7c0,0,0,0,0,0
			c0,0-0.26,0.99-1.31,1.45c-1,0.44-2.32,0.25-3.93-0.55l-0.15-0.08c-3.92-1.96-7.98-3.98-13.59-0.05c-4.55,3.19-6.3,2.54-7.44,2.02
			c-0.08-0.04-0.15-0.07-0.21-0.1c-0.24-0.11-0.44-0.2-0.62-0.19c-0.42,0.01-1.81,0.47-2.63,1.89c-0.82,1.43-1.23,4.13,1.52,8.87
			c5.17,8.94,6.49,10.27,8.68,12.47c2.75,2.76,6.84,9,4.77,14.85c-2.16,6.11-5.87,12.31-9.8,11.41
			C762.1,188.83,762.07,188.83,762.05,188.81z M768.19,147.55c0,0-0.01,0-0.02-0.01c-0.19-0.1-0.27-0.34-0.17-0.53
			c0.55-1.06,2.17-2.83,4.37-1.98c0.2,0.04,0.31,0.31,0.23,0.51c-0.08,0.2-0.31,0.3-0.51,0.22c-2.08-0.81-3.32,1.52-3.37,1.62
			C768.61,147.57,768.38,147.64,768.19,147.55z M807.1,156.9c-0.13-0.06-0.22-0.19-0.23-0.34c-0.01-0.22,0.16-0.4,0.38-0.4
			c11.62-0.39,12.69-2.01,12.73-2.08l13-27.28c0.09-0.19,0.33-0.28,0.53-0.18l0,0c0.2,0.09,0.29,0.33,0.19,0.52L820.7,154.4
			c-0.1,0.44-1.44,2.14-13.42,2.54C807.21,156.94,807.15,156.93,807.1,156.9z M771.52,125.85L771.52,125.85
			c-0.2-0.09-0.29-0.33-0.2-0.52l16.38-34.81c0.09-0.2,0.33-0.28,0.53-0.19l0,0c0.2,0.09,0.29,0.33,0.2,0.52l-16.38,34.81
			C771.96,125.86,771.72,125.94,771.52,125.85z M810.27,135.32c-0.2-0.09-0.29-0.33-0.19-0.52l16.2-33.82
			c0.09-0.19,0.33-0.27,0.53-0.18c0,0,0,0,0,0c0.2,0.09,0.28,0.33,0.19,0.52l-16.2,33.82C810.7,135.33,810.47,135.41,810.27,135.32z
			 M796.63,119.65c-0.2-0.09-0.29-0.32-0.2-0.52l13.9-29.86c0.09-0.2,0.33-0.28,0.53-0.19l0,0c0.2,0.09,0.29,0.32,0.2,0.52
			l-13.9,29.86C797.07,119.66,796.83,119.74,796.63,119.65L796.63,119.65z"/>
		<path class="st0" d="M772.8,195.09c-2.05-0.95-4.11-2.03-6.19-3.25c-33.22-19.51-22.48-47.34-22.37-47.62l25.02-54.1
			c0-0.01,0.01-0.02,0.01-0.03l0.01-0.03c0.01-0.03,0.03-0.06,0.05-0.08l0.23-0.38c1.83-3.1,3.56-6.03,8.07-7.53
			c1.87-0.62,3.78-0.47,5.54,0.45c1.91,1,3.25,2.74,3.59,3.94c0.35,1.24,1.02,1.96,1.45,2.02c0.23,0.03,0.45-0.14,0.66-0.5
			c0.28-0.5,0.67-1.39,1.13-2.42c1.01-2.26,2.15-4.83,3.07-5.67c1.4-1.27,4.59-4.17,10.01-2.75c4.82,1.27,7.75,4.28,8.01,8.28
			c0.09,1.32,0.37,1.48,0.37,1.48l0,0c0.09,0.02,0.4-0.23,0.6-0.51l2.84-6.06c3.12-7.54,11.37-4.92,11.45-4.89
			c3.48,1.32,5.77,3.15,6.83,5.45c1.18,2.55,0.37,4.72,0.33,4.81l-5.3,12.03c-0.47,0.79-0.53,1.3-0.39,1.46
			c0.12,0.12,0.59,0.21,1.67-0.22c2.47-1,5.96,0.15,6.1,0.2c2.88,0.84,4.82,2.28,5.77,4.27c1.42,2.98,0.06,6.07,0.01,6.2
			c-0.05,0.1-4.7,10.64-6.36,14.19c-0.42,0.91-0.51,1.58-0.23,1.89c0.45,0.5,1.8,0.26,2.24,0.14c0.05-0.02,0.11-0.02,0.17-0.01
			c4.67,0.69,7.8,2.45,9.31,5.21c2.33,4.29-0.12,9.38-0.23,9.6L827.7,179.2c-3.2,6.65-11.3,15.68-23.56,19.26
			C794.33,201.32,783.81,200.19,772.8,195.09z M769.99,90.46l-25.01,54.08c-0.1,0.25-10.58,27.48,22.04,46.63
			c13.07,7.67,25.48,9.87,36.9,6.54c11.24-3.28,19.69-11.83,23.08-18.85l18.57-38.53c0.03-0.05,2.38-4.96,0.24-8.9
			c-1.37-2.52-4.27-4.12-8.63-4.79c-0.45,0.12-2.19,0.49-2.98-0.4c-0.51-0.57-0.47-1.49,0.11-2.73c1.65-3.54,6.31-14.07,6.35-14.18
			c0.01-0.03,1.27-2.91,0-5.56c-0.85-1.77-2.62-3.07-5.28-3.85c-0.05-0.02-3.37-1.1-5.56-0.22c-1.26,0.51-2.12,0.51-2.57,0
			c-0.43-0.48-0.33-1.31,0.28-2.32l5.27-11.96c0.08-0.22,2.1-5.89-6.69-9.23c-0.29-0.1-7.61-2.4-10.46,4.47l-2.88,6.13
			c-0.15,0.23-0.78,1.07-1.49,0.87c-0.73-0.21-0.9-1.35-0.96-2.19c-0.24-3.63-2.93-6.39-7.41-7.56c-4.99-1.32-7.96,1.38-9.23,2.53
			c-0.84,0.76-2.05,3.47-2.93,5.45c-0.47,1.05-0.87,1.95-1.17,2.48c-0.49,0.87-1.11,0.93-1.44,0.89c-0.86-0.12-1.72-1.15-2.13-2.6
			c-0.29-1.01-1.5-2.56-3.19-3.45c-1.09-0.56-2.81-1.1-4.91-0.4c-4.22,1.4-5.81,4.08-7.64,7.19L769.99,90.46z"/>
	</g>
	<g id="_x37__1_">
		<path class="st0" d="M628.01,21.56c-0.09-0.07-2.34-1.68-7.35,1.32c0,0.01,0,0.03,0,0.04c-0.26,0.15-0.52,0.29-0.77,0.45
			c-0.02,0.01-0.03,0.04-0.04,0.06c-0.97,0.62-6.48,4.36-8.1,10.11c-0.04,0.13,0.04,0.27,0.16,0.3c0.02,0.01,0.05,0.01,0.07,0.01
			c0.1,0,0.2-0.07,0.23-0.18c1.71-6.09,7.98-9.89,8.04-9.93c0.02-0.01,0.02-0.03,0.03-0.04c0.43-0.26,0.86-0.51,1.3-0.75
			c0.02-0.01,0.03-0.04,0.04-0.06c4.2-2.26,6.09-0.95,6.15-0.91c1.12,0.52,1.71,1.17,1.75,1.95c0.13,2.34-4.48,5.17-4.52,5.19
			c-7.6,4.22-9.27,7.02-9.34,8.62c-0.01,0.23,0.02,0.43,0.06,0.61c-1.83-1.39-7.24-5.28-12.78-7.38c-2.04-3.61-2.68-8.26-2.86-9.98
			c-0.03-0.28-0.2-1.08-0.24-1.22c-0.29-1.17-0.22-2.48,0.55-3.44c0.7-0.86,1.82-1.12,2.74-0.45c0.47,0.35,0.81,0.85,1.07,1.38
			c0.03,0.07,0.26,0.65,0.34,0.9c0.63,1.87,2.15,7.16,1.74,13.81c-0.01,0.14,0.09,0.25,0.22,0.26c0,0,0.01,0,0.02,0
			c0.13,0,0.23-0.1,0.24-0.23c0.42-6.72-1.12-12.09-1.77-14.01c0-0.01-0.3-0.78-0.31-0.8c-0.55-1.18-1.47-2.3-2.83-2.2
			c-1.34,0.1-2.28,1.31-2.55,2.58c-0.21,0.97-0.08,1.98,0.25,2.91c0.07,0.9,0.56,6.07,2.71,10.22c-0.87-0.3-1.74-0.55-2.6-0.74
			c-0.04-0.06-3.04-0.35-3.68-0.34c-1.22,0.01-2.44,0.08-3.65,0.23c-1.28-0.04-14.23,0.28-17.13,20.6
			c-1.53,10.71,6.77,18.27,15.04,21.77c4.14,1.75,8.84,2.76,13.4,2.76c6.74,0,13.18-2.21,17-7.48c0.11-0.18,10.54-18.51-3.94-28.44
			c-0.01,0-0.6-0.42-0.56-1.33c0.05-1.21,1.3-3.88,9.1-8.21c0.2-0.12,4.91-3.01,4.76-5.65C629.95,22.93,629.26,22.13,628.01,21.56z
			 M616.19,39.28c0.12,0.13,0.23,0.21,0.24,0.22c14.1,9.67,3.9,27.6,3.81,27.75c-6.26,8.61-19.74,8.8-29.82,4.54
			c-8.11-3.43-16.24-10.81-14.75-21.25c2.55-17.84,12.94-19.93,15.93-20.16c0.28-0.02,1.56-0.12,1.95-0.15
			c0.81-0.07,1.62-0.1,2.44-0.11c0.61-0.01,3.16,0.2,3.16,0.22c7.64,1.52,16.83,8.81,16.93,8.89
			C616.1,39.27,616.15,39.28,616.19,39.28z"/>
		<path class="st0" d="M602.48,33.4c-0.03-0.13-0.16-0.21-0.29-0.18c-0.13,0.03-0.21,0.17-0.17,0.3
			c0.04,0.18,4.18,17.82-13.15,36.07c-0.09,0.1-0.09,0.25,0.01,0.35c0.05,0.05,0.11,0.07,0.17,0.07c0.06,0,0.12-0.02,0.17-0.07
			C606.73,51.47,602.52,33.57,602.48,33.4z"/>
		<path class="st0" d="M611.88,38.71c-0.01-0.14-0.13-0.23-0.26-0.22c-0.13,0.01-0.23,0.14-0.22,0.27
			c0.02,0.19,1.73,19.1-14.19,33.27c-0.1,0.09-0.11,0.24-0.02,0.35c0.05,0.06,0.11,0.08,0.18,0.08c0.06,0,0.11-0.02,0.16-0.06
			C613.64,58.05,611.9,38.9,611.88,38.71z"/>
		<path class="st0" d="M608.37,72.54c0.05,0.05,0.11,0.07,0.17,0.07c0.06,0,0.12-0.02,0.17-0.07c14.13-14.62,10.05-28.3,10.01-28.44
			c-0.04-0.13-0.17-0.2-0.3-0.16c-0.13,0.04-0.2,0.18-0.16,0.31c0.04,0.13,4.03,13.54-9.89,27.94
			C608.27,72.29,608.27,72.44,608.37,72.54z"/>
		<path class="st0" d="M588.7,47.09c-0.12-0.05-0.26,0.02-0.31,0.15c-0.6,1.66-1.28,2.56-1.96,2.59c-0.01,0-0.03,0-0.04,0
			c-0.77,0-1.47-1.11-1.68-1.54c-0.06-0.12-0.2-0.17-0.32-0.11c-0.12,0.06-0.17,0.21-0.11,0.33c0.04,0.08,0.89,1.81,2.11,1.81
			c0.02,0,0.05,0,0.07,0c0.9-0.05,1.7-1.03,2.38-2.91C588.88,47.28,588.82,47.14,588.7,47.09z"/>
		<path class="st0" d="M582.16,43.48c-0.89-0.37-1.98,0.37-2.51,1.68c-0.52,1.31-0.25,2.63,0.64,3c0.15,0.06,0.31,0.1,0.48,0.1
			c0.77,0,1.6-0.69,2.03-1.77C583.32,45.17,583.05,43.85,582.16,43.48z M582.35,46.29c-0.41,1.02-1.27,1.66-1.88,1.41
			c-0.61-0.26-0.78-1.34-0.37-2.35c0.35-0.87,1.03-1.46,1.6-1.46c0.1,0,0.2,0.02,0.29,0.06C582.59,44.19,582.76,45.27,582.35,46.29z
			"/>
		<path class="st0" d="M592.21,47.93c0.16,0.07,0.34,0.1,0.51,0.1c0.86,0,1.81-0.79,2.29-1.99c0.58-1.44,0.26-2.95-0.7-3.36
			c-0.36-0.15-0.77-0.14-1.18,0.04c-0.67,0.29-1.28,0.98-1.63,1.85C590.93,46.01,591.24,47.52,592.21,47.93z M591.95,44.76
			c0.3-0.75,0.81-1.34,1.37-1.58c0.16-0.07,0.32-0.1,0.47-0.1c0.12,0,0.23,0.02,0.34,0.07c0.71,0.3,0.91,1.54,0.44,2.72
			c-0.47,1.17-1.47,1.91-2.18,1.62C591.68,47.17,591.48,45.93,591.95,44.76z"/>
	</g>
	<g id="_x36__1_">
		<path class="st0" d="M125.42,358.94c-1.76,0-4.17-1-5.12-2.9c-0.59-1.18-0.67-2.19-0.24-2.99c0.7-1.29,2.49-1.48,2.57-1.49
			c0,0,0.01,0,0.01,0c0.08-0.01,0.16-0.01,0.24-0.01c2.72,0,3.67,2.96,4.3,4.94c0.07,0.22,0.14,0.44,0.21,0.65
			c0.24,0.69-0.04,1.29-0.75,1.59C126.31,358.87,125.89,358.94,125.42,358.94z M122.69,352.34c-0.1,0.01-1.48,0.19-1.97,1.1
			c-0.3,0.56-0.22,1.32,0.25,2.26c1.08,2.16,4.22,2.82,5.37,2.32c0.41-0.17,0.4-0.41,0.32-0.63c-0.07-0.21-0.14-0.43-0.21-0.66
			C125.81,354.72,125.03,352.24,122.69,352.34z"/>
		<path class="st0" d="M101.18,435c-2.3,0-4.84-0.17-7.65-0.53c-38.79-5.06-40.96-44.22-40.98-44.61
			c-0.84-27.53,10.21-41.74,19.64-48.82c10.22-7.67,20.79-8.84,20.89-8.85c0,0,0.01,0,0.01,0l0.86-0.06
			c3.72-0.26,12.44-0.88,16.91-4.06c2.87-2.05,3.47-2.94,4.65-4.72c0.84-1.25,1.98-2.96,4.36-5.79c1.88-2.23,3.43-3,4.6-2.3
			c2.03,1.22,1.87,6.94,0.39,10.86c-0.57,1.5-0.81,4.21,0.11,4.88c0.58,0.43,1.72-0.01,3.22-1.24c4.34-3.53,7.34-4.17,7.46-4.2
			c2.02-0.78,2.99-0.18,3.44,0.46c1.46,2.06-0.59,7.18-5.11,12.74c-0.24,0.29-0.52,0.56-0.81,0.85c-1.3,1.26-2.65,2.57-0.18,6
			c4.76,6.62,9.11,16.32,10.12,22.56c0.89,5.51,3.4,10.42,7.47,14.6c3.64,3.73,5.93,7.58,5.95,7.62
			c3.47,10.52-3.24,15.63-7.55,17.74c-4.26,2.08-6.72,2.18-10.09-2.74l-0.11-0.16c-3.32-4.84-7.85-11.47-17.87-15.47
			c-1.23-0.49-2.26-0.9-3.13-1.24c-4.89-1.93-4.89-1.93-8.34-4.28c-1.06-0.73-2.46-1.68-4.44-2.98c-9.58-6.32-9.76-11.45-9.99-17.95
			l-0.01-0.13c-0.21-5.89-1.37-6.39-1.38-6.4c-0.07-0.01-0.09-0.02-0.14-0.06c-0.34-0.25-0.64-0.27-0.97-0.06
			c-1.85,1.15-3.5,8.5-2.85,12.7c0.8,5.12-0.88,7.35-2.37,9.32c-0.2,0.26-0.39,0.5-0.58,0.73c-0.62,0.77-1.11,1.37-1.03,1.96
			c0.08,0.54,0.64,1.17,1.71,1.91c2.67,1.84,2.43,2.73,1.84,3.71c-0.1,0.16-0.19,0.32-0.25,0.48c-0.09,0.26-0.2,0.49-0.31,0.7
			c-0.31,0.6-0.47,0.93,0.15,1.84c1.04,1.5,1.27,3.13,1.28,3.2c0.57,7.64,2.59,8.28,4.79,8.29c0.59-0.02,1.53-0.08,2.59-0.18
			c2.79-0.26,7.01-0.65,11.35,0.04c6.01,0.96,10.86,6.6,11.07,6.84c3.34,3.24,5.01,10.82,2.13,16.9
			C120.18,429.02,115.04,435,101.18,435z M93.15,332.95c-0.28,0.03-10.58,1.23-20.54,8.72c-9.27,6.97-20.14,20.98-19.3,48.15
			c0.02,0.38,2.17,38.91,40.31,43.88c19.25,2.51,25.65-4.55,27.75-8.97c2.74-5.77,1.18-12.95-2-16.04
			c-0.07-0.08-4.9-5.69-10.63-6.61c-4.25-0.68-8.41-0.29-11.16-0.04c-1.12,0.1-2,0.16-2.66,0.18c-3.01-0.01-4.99-1.51-5.54-8.98l0,0
			c0,0-0.22-1.5-1.15-2.84c-0.89-1.29-0.54-1.97-0.21-2.63c0.09-0.18,0.19-0.37,0.27-0.6c0.08-0.24,0.21-0.45,0.32-0.63
			c0.37-0.61,0.66-1.09-1.62-2.67c-1.3-0.9-1.93-1.65-2.04-2.44c-0.13-0.93,0.48-1.68,1.2-2.56c0.18-0.22,0.37-0.46,0.56-0.71
			c1.46-1.94,2.97-3.94,2.22-8.73c-0.66-4.23,0.91-12.06,3.2-13.48c0.58-0.36,1.18-0.34,1.75,0.05c0.52,0.16,1.7,1.17,1.91,7.1
			l0,0.13c0.23,6.52,0.4,11.23,9.64,17.34c1.98,1.31,3.39,2.26,4.45,2.99c3.38,2.3,3.38,2.3,8.19,4.2c0.87,0.34,1.9,0.75,3.13,1.24
			c10.23,4.08,14.84,10.82,18.21,15.75l0.11,0.16c3.22,4.7,5.35,4.34,9.13,2.49c4.08-2,10.44-6.84,7.19-16.73l0,0
			c-0.01,0-2.25-3.75-5.8-7.4c-4.18-4.29-6.77-9.35-7.68-15.02c-0.98-6.03-5.36-15.8-9.98-22.23c-2.86-3.97-1.12-5.66,0.27-7.01
			c0.28-0.27,0.54-0.52,0.75-0.78c4.67-5.74,6.1-10.37,5.08-11.8c-0.54-0.76-1.72-0.51-2.61-0.17c-0.09,0.02-3.02,0.66-7.19,4.06
			c-1.85,1.5-3.24,1.93-4.15,1.26c-1.4-1.03-0.92-4.32-0.37-5.78c1.45-3.84,1.42-9.03-0.07-9.92c-0.78-0.47-2.07,0.29-3.63,2.14
			c-2.36,2.79-3.49,4.48-4.31,5.72c-1.24,1.86-1.86,2.79-4.85,4.92c-4.64,3.31-13.51,3.93-17.29,4.2L93.15,332.95z"/>
	</g>
	<g id="_x35__1_">
		<g>
			<path class="st0" d="M154.88,218.97c-1.98,0-3.89-0.79-5.3-2.21c-0.06-0.06-0.06-0.17,0-0.23s0.16-0.06,0.23,0
				c1.44,1.44,3.42,2.21,5.45,2.1c3.94-0.21,6.98-3.6,6.77-7.56c-0.1-1.92-0.94-3.68-2.36-4.96c-1.42-1.28-3.26-1.94-5.17-1.83
				c-1.24,0.07-2.45,0.46-3.5,1.13c-0.07,0.05-0.17,0.03-0.22-0.05c-0.05-0.08-0.03-0.18,0.05-0.22c1.09-0.71,2.35-1.11,3.65-1.18
				c2-0.1,3.91,0.58,5.4,1.92c1.49,1.34,2.36,3.18,2.47,5.19c0.22,4.14-2.96,7.68-7.08,7.9
				C155.14,218.97,155.01,218.97,154.88,218.97z"/>
			<path class="st0" d="M169.49,218.58c-1.85,0-3.61-0.68-4.99-1.93c-1.49-1.34-2.36-3.18-2.47-5.19c-0.11-2,0.57-3.93,1.91-5.42
				c1.34-1.49,3.17-2.37,5.17-2.48c1.47-0.08,2.92,0.28,4.19,1.03c0.08,0.05,0.1,0.14,0.06,0.22c-0.05,0.08-0.14,0.1-0.22,0.06
				c-1.21-0.72-2.6-1.06-4.01-0.98c-1.91,0.1-3.66,0.94-4.94,2.37c-1.28,1.43-1.93,3.27-1.83,5.19c0.21,3.96,3.59,7.01,7.53,6.8
				c2.06-0.11,3.97-1.11,5.25-2.74c0.06-0.07,0.16-0.08,0.23-0.03c0.07,0.05,0.08,0.16,0.03,0.23c-1.33,1.7-3.33,2.74-5.48,2.86
				C169.76,218.58,169.62,218.58,169.49,218.58z"/>
			<path class="st0" d="M155.3,214.65c-0.73,0-1.42-0.27-1.97-0.76c-0.59-0.53-0.93-1.25-0.97-2.04c-0.09-1.63,1.16-3.02,2.78-3.11
				l0,0c1.62-0.08,3.01,1.17,3.1,2.8c0.09,1.63-1.16,3.02-2.78,3.11C155.4,214.64,155.35,214.65,155.3,214.65z M155.16,209.06
				c-0.7,0.04-1.34,0.35-1.81,0.87s-0.71,1.2-0.67,1.9c0.04,0.7,0.34,1.35,0.87,1.82c0.52,0.47,1.2,0.71,1.89,0.67
				c1.44-0.08,2.56-1.32,2.48-2.77C157.84,210.1,156.6,208.98,155.16,209.06L155.16,209.06z"/>
			<path class="st0" d="M168.8,213.77c-1.55,0-2.86-1.22-2.94-2.8c-0.09-1.63,1.16-3.02,2.78-3.11l0,0c1.63-0.08,3.01,1.17,3.1,2.8
				c0.09,1.63-1.16,3.02-2.78,3.11C168.9,213.77,168.85,213.77,168.8,213.77z M168.66,208.18c-1.44,0.08-2.56,1.32-2.48,2.77
				c0.08,1.45,1.32,2.57,2.76,2.49c1.44-0.08,2.56-1.32,2.48-2.77C171.34,209.22,170.09,208.1,168.66,208.18L168.66,208.18z"/>
			<path class="st0" d="M159.52,204.25c-0.05,0-0.11-0.03-0.14-0.07c-0.01-0.02-1.23-1.85-5.09-1.91c-3.77-0.06-5.83-2.12-6.82-3.1
				c-0.08-0.08-0.15-0.15-0.21-0.21c-0.06-0.06-0.07-0.16,0-0.23c0.06-0.07,0.16-0.07,0.23-0.01c0.07,0.06,0.14,0.14,0.22,0.21
				c0.96,0.96,2.96,2.95,6.6,3.01c4.05,0.07,5.3,1.98,5.36,2.06c0.05,0.08,0.03,0.18-0.05,0.22
				C159.58,204.24,159.55,204.25,159.52,204.25z"/>
			<path class="st0" d="M163.98,204.13c-0.02,0-0.05-0.01-0.07-0.02c-0.08-0.04-0.11-0.14-0.07-0.22c0.04-0.09,1.09-2.12,5.11-2.62
				c3.61-0.45,5.39-2.64,6.25-3.7c0.07-0.09,0.13-0.17,0.19-0.24c0.06-0.07,0.16-0.08,0.23-0.02c0.07,0.06,0.08,0.16,0.02,0.23
				c-0.06,0.07-0.12,0.15-0.19,0.23c-0.88,1.09-2.72,3.35-6.46,3.81c-3.83,0.47-4.85,2.42-4.86,2.44
				C164.09,204.1,164.04,204.13,163.98,204.13z"/>
			<path class="st0" d="M162.81,220.77c-0.04,0-0.08-0.02-0.11-0.04l-2.81-2.71c-0.06-0.06-0.07-0.16,0-0.23
				c0.06-0.07,0.16-0.07,0.23-0.01l2.69,2.59l2.15-2.63c0.06-0.07,0.16-0.08,0.23-0.02c0.07,0.06,0.08,0.16,0.02,0.23l-2.26,2.76
				C162.91,220.74,162.86,220.76,162.81,220.77C162.82,220.77,162.81,220.77,162.81,220.77z"/>
			<path class="st0" d="M163.18,230.16c-0.04,0-0.07-0.01-0.1-0.04l-12.43-10.65c-0.07-0.06-0.08-0.16-0.02-0.23
				c0.06-0.07,0.16-0.08,0.23-0.02l12.31,10.54c10.79-11.82,10.79-11.81,10.94-11.73c0.08,0.04,0.11,0.14,0.07,0.22
				c-0.01,0.03-0.03,0.05-0.05,0.06c-0.35,0.32-7.22,7.83-10.83,11.78C163.27,230.14,163.22,230.16,163.18,230.16z"/>
			<path class="st0" d="M163.79,240.28c-0.82,0-1.47-0.44-1.48-0.45c-12.19-6.51-12.61-18.67-12.61-18.8c0-0.09,0.07-0.16,0.16-0.17
				c0,0,0,0,0,0c0.09,0,0.16,0.07,0.16,0.16c0,0.12,0.43,12.1,12.46,18.53c0.07,0.05,1.41,0.96,2.6-0.12
				c0.14-0.12,0.36-0.3,0.65-0.52c2.53-1.96,10.22-7.95,9.44-18.94c-0.01-0.09,0.06-0.17,0.15-0.17c0.08-0.02,0.17,0.06,0.17,0.15
				c0.79,11.17-7.01,17.23-9.57,19.22c-0.28,0.22-0.5,0.39-0.63,0.51C164.79,240.13,164.26,240.28,163.79,240.28z"/>
			<path class="st0" d="M150.99,234.14c-0.02,0-0.05,0-0.07-0.01c-4.63-2.12-7.13-10.74-7.24-11.11c-0.02-0.09,0.02-0.18,0.11-0.2
				c0.09-0.03,0.18,0.02,0.2,0.11c0.03,0.09,2.57,8.84,7.06,10.9c0.08,0.04,0.12,0.13,0.08,0.21
				C151.11,234.11,151.05,234.14,150.99,234.14z"/>
			<path class="st0" d="M175.26,232.79c-0.05,0-0.1-0.02-0.13-0.07c-0.05-0.07-0.04-0.17,0.04-0.23c6.22-4.54,6.18-11.49,6.17-11.56
				c0-0.09,0.07-0.16,0.16-0.16c0.08,0.01,0.16,0.07,0.16,0.16c0,0.07,0.05,7.19-6.31,11.82
				C175.33,232.78,175.3,232.79,175.26,232.79z"/>
			<path class="st0" d="M158.42,245.74c-0.01,0-0.02,0-0.03,0c-0.09-0.02-0.14-0.1-0.12-0.19l1.07-5c0.02-0.09,0.1-0.14,0.19-0.12
				c0.09,0.02,0.14,0.1,0.12,0.19l-1.07,5C158.56,245.69,158.5,245.74,158.42,245.74z"/>
			<path class="st0" d="M169.73,245.17c-0.06,0-0.12-0.04-0.15-0.1l-1.98-5.03c-0.03-0.08,0.01-0.18,0.09-0.21
				c0.08-0.03,0.18,0.01,0.21,0.09l1.98,5.03c0.03,0.08-0.01,0.18-0.09,0.21C169.77,245.17,169.75,245.17,169.73,245.17z"/>
			<path class="st0" d="M163.84,248.27c-0.09,0-0.16-0.07-0.16-0.16l-0.25-6.45c0-0.09,0.07-0.16,0.15-0.17c0,0,0,0,0.01,0
				c0.09,0,0.16,0.07,0.16,0.16l0.25,6.45C164.01,248.19,163.94,248.26,163.84,248.27C163.85,248.27,163.85,248.27,163.84,248.27z"
				/>
		</g>
		<path class="st0" d="M163.66,250C163.66,250,163.66,250,163.66,250c-1.85,0-6.4-2.47-6.6-2.57c-1.24-0.76-3.5-2.15-4.36-4.03
			c-0.63-1.36,0.58-3.02,1.65-4.47c0.44-0.61,0.86-1.18,1.08-1.65c0.23-0.49,0.23-0.93,0.01-1.21c-0.15-0.19-0.36-0.26-0.49-0.23
			c-0.49,0.09-5.35,0.13-5.56,0.13c-6.42-0.89-10.15-5.83-11.5-10.16c-0.53-1.68-0.53-2.96-0.01-3.8c0.45-0.72,1.12-0.83,1.15-0.83
			c0.1-0.01,8.79-0.5,9.84-0.52c0.49-0.01,0.66-0.13,0.71-0.2c0.05-0.07,0.04-0.13,0.03-0.14c-0.1-1.55-0.24-3.2-0.27-3.52
			l-0.49-0.53c-1.35-1.74-1.89-3.59-1.64-5.51c0.31-2.31,1.76-4.18,2.61-4.82c0.49-0.37,0.73-0.65,0.71-0.84
			c-0.02-0.22-0.39-0.43-0.79-0.65c-0.74-0.4-3.24-1.9-4.14-4.64c-0.42-1.28-0.41-2.1,0.03-2.52c0.43-0.41,1.21-0.39,2.41,0.06
			c0.29,0.11,0.52,0.2,0.71,0.28c1,0.4,1,0.4,3.75,0.55l1.6,0.09c5.06,0.29,6.38,2.78,6.47,2.97c0.04,0.06,0.62,0.94,1.34,0.74
			c0.66-0.19,1.04-0.82,1.74-1.97l0.31-0.51c0.84-1.37,2.97-2.07,6.49-2.13c2.35-0.04,3.42-1,3.87-1.41
			c0.13-0.12,0.21-0.19,0.29-0.22c0.03-0.01,0.09-0.05,0.16-0.11c0.43-0.29,1.33-0.89,1.98-0.5c0.54,0.32,0.73,1.2,0.59,2.68
			c-0.33,3.64-2.05,4.75-3.08,5.42c-0.23,0.15-0.42,0.27-0.56,0.4c-0.23,0.21-0.35,0.4-0.34,0.54c0.01,0.16,0.16,0.28,0.28,0.38
			c0.03,0.03,0.06,0.05,0.09,0.07c0.02,0.01,0.05,0.03,0.09,0.06c0.39,0.24,1.59,0.98,2.78,4.05c1.28,3.3-0.78,6.71-1.07,7.17
			c0.02,0.26,0.09,1.37,0.13,2.45c0.01,0.33,0.11,0.56,0.29,0.7c0.29,0.23,0.72,0.14,0.73,0.14l3.48-0.19
			c3.05-0.2,6.75-0.37,7.03-0.12c0.01,0.01,0.02,0.02,0.03,0.03c0.44,0.61,0.25,4,0.23,4.38c-0.72,7.73-8.68,10.54-8.76,10.57
			c-0.9,0.25-4.88,1.22-6.48,1.03c-0.24-0.03-0.39,0.03-0.47,0.16c-0.14,0.27,0.02,0.81,0.38,1.25c0.61,0.75,2.83,3.84,2.92,3.97
			c0.01,0.01,0.02,0.03,0.02,0.04c0.88,2.73-2.75,5.69-4.35,6.84C168.73,248.55,165.57,250,163.66,250z M155.03,235.51
			c0.25,0,0.51,0.13,0.68,0.36c0.3,0.39,0.31,0.95,0.03,1.55c-0.23,0.5-0.66,1.08-1.12,1.7c-1.02,1.38-2.17,2.96-1.62,4.15
			c0.82,1.78,3.02,3.14,4.21,3.87c0.06,0.03,4.69,2.54,6.45,2.54c0,0,0,0,0,0c1.84,0,4.92-1.42,6.85-2.8
			c1.54-1.1,5.02-3.93,4.24-6.45c-0.2-0.28-2.31-3.23-2.9-3.93c-0.46-0.55-0.63-1.21-0.41-1.61c0.08-0.15,0.29-0.39,0.79-0.33
			c1.43,0.17,5.16-0.69,6.36-1.02c1.28-0.35,7.9-3.57,8.53-10.28c0.08-1.37,0.11-3.67-0.15-4.14c-0.17-0.04-1.17-0.17-6.8,0.19
			l-3.45,0.19c0,0-0.55,0.12-0.97-0.2c-0.26-0.2-0.4-0.52-0.41-0.95c-0.04-1.22-0.13-2.48-0.14-2.49c0-0.04,0.01-0.07,0.03-0.1
			c0.02-0.04,2.35-3.61,1.07-6.92c-1.15-2.97-2.28-3.66-2.65-3.89c-0.06-0.04-0.11-0.07-0.13-0.09c-0.02-0.02-0.04-0.04-0.07-0.06
			c-0.15-0.12-0.39-0.31-0.4-0.62c-0.01-0.25,0.14-0.51,0.45-0.79c0.16-0.14,0.36-0.28,0.6-0.43c1.04-0.67,2.61-1.7,2.93-5.18
			c0.15-1.66-0.15-2.21-0.44-2.38c-0.48-0.28-1.29,0.26-1.64,0.49c-0.13,0.08-0.18,0.12-0.23,0.14c-0.03,0.01-0.11,0.09-0.19,0.16
			c-0.48,0.43-1.61,1.45-4.08,1.49c-3.41,0.06-5.44,0.7-6.22,1.97l-0.31,0.51c-0.74,1.22-1.15,1.89-1.93,2.11
			c-0.84,0.24-1.53-0.58-1.71-0.89c0,0,0-0.01-0.01-0.01c-0.01-0.03-1.25-2.52-6.2-2.8l-1.6-0.09c-2.81-0.15-2.81-0.15-3.85-0.57
			c-0.19-0.08-0.42-0.17-0.71-0.28c-1.05-0.4-1.75-0.44-2.07-0.13c-0.33,0.32-0.31,1.06,0.06,2.19c0.86,2.63,3.26,4.08,3.98,4.46
			c0.53,0.28,0.94,0.53,0.97,0.91c0.03,0.33-0.23,0.66-0.84,1.13c-0.8,0.61-2.19,2.39-2.48,4.6c-0.24,1.83,0.28,3.6,1.56,5.26
			l0.52,0.56c0.02,0.03,0.04,0.06,0.04,0.1c0,0.02,0.16,1.86,0.27,3.55c0,0,0,0,0,0c0,0,0.05,0.19-0.08,0.38
			c-0.15,0.22-0.48,0.33-0.97,0.34c-1.05,0.02-9.73,0.52-9.81,0.52c-0.01,0-0.54,0.09-0.91,0.69c-0.46,0.75-0.44,1.96,0.05,3.52
			c1.33,4.23,4.97,9.06,11.22,9.93c1.38-0.01,5.1-0.06,5.48-0.13C154.94,235.51,154.98,235.51,155.03,235.51z"/>
	</g>
	<g id="_x34__2_">
		<path class="st0" d="M30.94,234.55c-1.72-0.71-2.57-1.65-2.67-2.94c-0.08-1.15,0.43-2.4,1.03-3.84c0.14-0.34,0.28-0.69,0.43-1.05
			c1.02-2.59,0.42-3.08-0.5-3.83c-0.17-0.14-0.36-0.29-0.54-0.46c-0.23-0.21-0.54-0.42-0.87-0.64c-1.34-0.9-3.18-2.13-2.08-5.32
			c1.07-3.08,3.7-2.82,6.03-2.6c0.71,0.07,1.39,0.14,2,0.11c2.54-0.11,2.98-0.64,3.52-2.03c0.15-0.39,0.24-0.75,0.34-1.13
			c0.25-0.98,0.5-2,1.91-3.45c1.98-2.04,5.42-0.57,5.6-0.5c0,0,0,0,0.01,0c2.43,1,2.59,4.14,2.59,5.07
			c-0.01,1.45-0.02,2.5,2.79,2.61c3.19,0.12,6.97,1.92,7.75,4.7c0.33,1.16,0.07,2.45-0.72,3.62c-0.91,1.35-2.42,2.32-3.83,2.49
			c-0.93,0.11-1.53,0.4-1.84,0.89c-0.45,0.72-0.34,1.99,0.34,3.88c1.22,3.39,1.47,4.84-0.79,6.68c-0.73,0.6-1.59,0.82-2.54,0.67
			c-1.84-0.3-3.84-1.98-5.51-4.62c-0.84-1.33-1.61-2.06-2.34-2.23c-0.73-0.17-1.39,0.25-2.1,0.69c-0.15,0.09-0.3,0.19-0.46,0.28
			c-0.36,0.21-0.74,0.6-1.17,1.05c-1.32,1.36-3.12,3.21-6.31,1.92C30.98,234.56,30.96,234.55,30.94,234.55z M44.89,207.39
			c-0.31-0.13-3.29-1.29-4.92,0.38c-1.3,1.34-1.52,2.23-1.76,3.18c-0.09,0.38-0.19,0.77-0.36,1.2c-0.65,1.67-1.36,2.28-4.04,2.4
			c-0.65,0.03-1.35-0.04-2.09-0.11c-2.31-0.23-4.5-0.44-5.42,2.21c-0.96,2.77,0.53,3.77,1.85,4.65c0.35,0.24,0.68,0.46,0.94,0.7
			c0.17,0.16,0.35,0.3,0.51,0.44c0.99,0.81,1.84,1.51,0.67,4.49c-0.14,0.36-0.29,0.71-0.43,1.06c-0.57,1.38-1.06,2.57-0.99,3.58
			c0.05,0.66,0.34,1.64,2.31,2.45c0.02,0.01,0.04,0.01,0.05,0.02c2.82,1.14,4.39-0.48,5.66-1.79c0.47-0.48,0.87-0.9,1.3-1.15
			c0.15-0.09,0.3-0.18,0.44-0.27c0.77-0.48,1.57-0.98,2.54-0.76c0.91,0.2,1.76,0.99,2.7,2.48c1.56,2.46,3.47,4.09,5.11,4.36
			c0.78,0.13,1.48-0.06,2.08-0.55c1.95-1.59,1.85-2.63,0.62-6.04c-0.75-2.09-0.84-3.48-0.28-4.38c0.41-0.65,1.15-1.03,2.27-1.17
			c1.26-0.15,2.6-1.02,3.42-2.23c0.7-1.03,0.92-2.14,0.64-3.14c-0.7-2.5-4.3-4.16-7.21-4.28c-3.37-0.13-3.36-1.76-3.35-3.19
			c0.01-0.85-0.14-3.67-2.23-4.53c0,0-0.01,0-0.01-0.01C44.91,207.4,44.91,207.39,44.89,207.39z"/>
		<path class="st0" d="M21.71,269.09c-0.1-0.04-0.18-0.14-0.18-0.26l-1.31-31.61c-0.01-0.16,0.12-0.29,0.28-0.3
			c0.16-0.01,0.3,0.12,0.3,0.28l1.31,31.61c0.01,0.16-0.12,0.29-0.28,0.3C21.79,269.11,21.75,269.11,21.71,269.09z"/>
		<path class="st0" d="M57.65,271.66c-0.1-0.04-0.18-0.14-0.18-0.26l-0.57-28.6c0-0.16,0.12-0.29,0.29-0.3
			c0.16-0.01,0.3,0.12,0.3,0.28l0.57,28.6c0,0.16-0.12,0.29-0.29,0.3C57.73,271.68,57.69,271.67,57.65,271.66z"/>
		<path class="st0" d="M75.31,155.65c-0.05-0.02-0.1-0.06-0.14-0.12c-0.08-0.14-0.04-0.31,0.1-0.4c3.08-1.87,4.61,0.04,4.62,0.06
			c0.1,0.13,0.07,0.31-0.05,0.41c-0.13,0.1-0.31,0.07-0.41-0.05l0,0c-0.05-0.06-1.24-1.5-3.85,0.08
			C75.49,155.68,75.4,155.69,75.31,155.65z"/>
		<path class="st0" d="M15.23,270.56c-5.98-2.47-8.36-30.42-7.24-36.84c0.55-3.14,0.04-4.25-0.48-4.62
			c-0.64-0.47-1.68-0.08-2.44,0.32c-0.2,0.1-0.41,0.25-0.64,0.4c-0.74,0.5-1.67,1.12-2.54,0.76c-0.01,0-0.02-0.01-0.03-0.01
			c-0.88-0.39-1.44-1.66-1.76-4.01c-0.84-6.14,4.33-13.56,4.55-13.87c11.75-19.51,41.48-13.3,41.94-13.2
			c0.09,0.02,1.27,0.25,2.37,0.63c0.67,0.23,1.04,0.27,1.29,0.12c0.39-0.23,0.65-1.01,0.91-2.68c0.31-2.03,0.86-2.82,1.39-3.59
			c0.28-0.4,0.54-0.78,0.76-1.33c0.66-1.66,1.26-3.17,0.38-4.95c-0.95-1.92-1.7-4.73-1.73-4.85c-1.16-6.33,1.36-8.99,3.21-10.94
			c0.2-0.21,0.4-0.42,0.58-0.62c0.33-0.37,0.65-0.6,0.93-0.8c0.93-0.67,1.35-0.98-0.36-6.77c-2.16-7.31,0.05-10.31,1.56-11.45
			c0.34-0.26,0.69-0.41,0.99-0.53c0.8-0.34,1.2-0.51,0.44-2.81c-1.13-3.4-0.77-7.17-0.76-7.33c0.54-2.84,1.51-4.42,2.87-4.71
			c2.28-0.48,4.72,2.82,5.19,3.48c0.74,1.06,1.6,1.63,2.3,1.52c0.6-0.09,1.09-0.69,1.41-1.73c0.89-2.84,1.77-3.95,1.81-3.99
			c0.75-0.98,1.54-1.34,2.33-1.09c2.48,0.82,3.98,7.82,4.05,10.52c0.09,3.19,1.82,4.27,5.41,6.22c3.61,1.96,9.21,6.19,9.26,6.24
			c1.53,1.6,2.11,3.19,1.75,4.74c-0.93,4.01-7.79,6.57-10.36,7.54c-0.35,0.13-0.61,0.23-0.73,0.28c-0.37,0.17-0.9,0.13-1.52,0.07
			c-0.86-0.08-1.83-0.17-2.28,0.39c-0.49,0.6-0.41,1.92,0.23,3.91c2.33,7.25,1.34,10.17,0.39,11.74c-0.33,0.54-0.8,0.85-1.22,1.13
			c-1.07,0.71-2,1.32-0.13,5.73c2.63,6.23,1.98,8.89,0.68,12.22c-0.35,0.91-0.73,1.29-1,1.57c-0.59,0.61-0.75,0.77,1.17,7.99
			c2.69,10.09-3.57,22.54-6.83,24.87c-2.79,2-2.67,4.92-2.67,4.95c-0.08,0.9-1.89,21.08-2.69,25.09c-0.48,2.39-1.79,4.16-3.41,4.61
			c-1.35,0.37-2.81-0.19-4.11-1.59c-1.96-2.11-2.24-1.92-3.42-1.07c-0.55,0.39-1.23,0.88-2.28,1.33c-1.16,0.5-2.89,1.04-4.55,0.15
			c-2.37-1.28-4.07-5.21-5.19-12.03c-2.35-14.21-5.42-20.69-10.24-21.66c-0.37-0.08-0.7,0.01-1.02,0.26
			c-2.68,2.17-2.7,14.89-2.71,22.5c0,3.28-0.01,5.66-0.19,6.48c-0.3,1.32-1.31,2.24-2.8,2.53c-1.6,0.31-3.37-0.22-4.05-1.19
			c-0.56-0.81-1.17-1.26-1.81-1.37c-0.63-0.1-1.34,0.15-2.1,0.73c-1.9,1.44-4.57,0.69-4.68,0.66
			C15.32,270.6,15.27,270.58,15.23,270.56z M7.52,228.44c0.12,0.05,0.23,0.11,0.34,0.19c0.97,0.69,1.2,2.39,0.71,5.19
			c-1.24,7.12,1.52,34,6.86,36.2c0.03,0.01,0.07,0.03,0.1,0.04c0.01,0,2.48,0.7,4.14-0.57c0.89-0.68,1.75-0.96,2.55-0.84
			c0.81,0.12,1.55,0.67,2.2,1.61c0.54,0.79,2.09,1.21,3.45,0.95c0.73-0.14,2-0.6,2.34-2.08c0.17-0.76,0.17-3.23,0.18-6.36
			c0.01-8.2,0.03-20.6,2.93-22.94c0.45-0.36,0.95-0.49,1.5-0.38c5.11,1.02,8.31,7.65,10.7,22.13c1.1,6.62,2.7,10.42,4.9,11.61
			c1.11,0.6,2.36,0.55,4.04-0.17c0.99-0.42,1.64-0.89,2.17-1.27c1.4-1,1.99-1.23,4.2,1.15c1.16,1.25,2.38,1.74,3.52,1.42
			c1.4-0.39,2.55-1.99,2.99-4.16c0.8-3.97,2.66-24.77,2.68-24.98c-0.01-0.09-0.15-3.21,2.91-5.41c2.64-1.9,9.37-13.86,6.6-24.25
			c-1.95-7.33-1.87-7.68-1.03-8.54c0.25-0.26,0.57-0.58,0.88-1.38c1.29-3.3,1.89-5.74-0.67-11.79c-1.91-4.51-1.06-5.51,0.35-6.44
			c0.4-0.27,0.79-0.52,1.04-0.95c0.89-1.47,1.81-4.24-0.45-11.27c-0.71-2.22-0.75-3.67-0.13-4.44c0.65-0.8,1.84-0.7,2.79-0.61
			c0.48,0.04,0.99,0.09,1.21-0.02c0.13-0.06,0.4-0.16,0.77-0.3c2.26-0.85,9.14-3.42,10-7.13c0.31-1.35-0.21-2.76-1.57-4.18
			c-0.02-0.01-5.58-4.21-9.15-6.16c-3.69-2-5.62-3.21-5.72-6.71c-0.08-2.92-1.66-9.17-3.56-9.95c-0.03-0.01-0.06-0.02-0.09-0.03
			c-0.53-0.17-1.1,0.13-1.69,0.9c-0.01,0.02-0.86,1.09-1.71,3.81c-0.5,1.6-1.3,2.04-1.88,2.13c-0.94,0.14-1.98-0.5-2.87-1.76
			c-1.19-1.69-3.1-3.56-4.59-3.25c-1.11,0.23-1.92,1.66-2.41,4.22c0,0.01-0.35,3.79,0.74,7.07c0.84,2.52,0.39,3.03-0.76,3.52
			c-0.28,0.12-0.58,0.25-0.87,0.47c-1.39,1.05-3.42,3.84-1.35,10.82c1.74,5.88,1.4,6.49,0.15,7.4c-0.26,0.19-0.54,0.39-0.84,0.72
			c-0.18,0.21-0.38,0.41-0.59,0.63c-1.86,1.96-4.17,4.4-3.06,10.42c0,0.01,0.77,2.86,1.69,4.72c0.99,2,0.31,3.7-0.34,5.35
			c-0.27,0.68-0.56,1.1-0.85,1.51c-0.49,0.71-1,1.45-1.3,3.35c-0.3,1.94-0.61,2.74-1.18,3.09c-0.48,0.29-1.06,0.18-1.78-0.07
			c-1.07-0.37-2.28-0.61-2.29-0.61c0,0,0,0-0.01,0c-0.3-0.06-29.75-6.27-41.33,12.95c-0.06,0.09-5.27,7.56-4.46,13.48
			c0.28,2.07,0.76,3.27,1.42,3.56c0.55,0.25,1.34-0.25,2.01-0.7c0.25-0.17,0.48-0.32,0.69-0.43C5.92,228.31,6.83,228.16,7.52,228.44
			z M46.53,199.76L46.53,199.76L46.53,199.76z"/>
	</g>
	<g id="_x33__2_">
		<g>
			<path class="st1" d="M304.51,21.41"/>
		</g>
		<g>
			<path class="st0" d="M334.02,75c-0.68,0-1.36-0.02-2.03-0.05c-17.69-0.93-20.16-5.91-20.41-8.02c-0.03-0.27-0.23-0.51-0.52-0.61
				c-0.6-0.22-1.26-0.57-1.97-1.03c-1.34-0.88-2.58-2.07-3.69-3.52c-8.47-11.06-11.79-21.85-9.89-32.07
				c2.83-15.21,16.52-23.87,16.66-23.96c27.59-15.85,54.49,6.15,54.76,6.38c0.01,0.01,0.03,0.02,0.04,0.04
				c2.17,2.74,1.82,4.17,1.13,4.89c-0.26,0.28-0.25,0.74,0.03,1.05c4.08,4.4,5.58,10.23,5.6,10.29c3.77,14.9-1.59,25.34-6.74,31.48
				C359.15,69.19,346.39,75,334.02,75z M333.45,0.51c-6.64,0-13.8,1.52-21,5.66c-0.13,0.08-13.63,8.63-16.42,23.62
				c-1.87,10.08,1.42,20.73,9.8,31.67c1.08,1.41,2.28,2.55,3.56,3.4c0.67,0.44,1.3,0.77,1.86,0.98c0.47,0.17,0.8,0.57,0.85,1.03
				c0.18,1.54,2.14,6.63,19.92,7.56c12.84,0.67,26.4-5.18,34.57-14.91c5.08-6.05,10.35-16.34,6.64-31.03
				c-0.02-0.06-1.49-5.77-5.48-10.07c-0.47-0.5-0.48-1.27-0.03-1.74c0.77-0.81,0.36-2.3-1.14-4.2
				C365.95,11.97,351.65,0.51,333.45,0.51z"/>
		</g>
		<g>
			<path class="st0" d="M333.31,70.01c-4.81,0-10.32-0.75-16.47-2.77c-1.02-0.34-2.01-0.78-2.97-1.22l-0.16-0.07
				c-0.87-0.39-1.19-0.01-1.36,0.31c-0.07,0.13-0.22,0.17-0.35,0.11c-0.13-0.07-0.18-0.22-0.11-0.34c0.4-0.75,1.14-0.94,2.04-0.54
				l0.16,0.07c0.95,0.43,1.92,0.87,2.92,1.2c23.53,7.72,37.71-3.32,37.85-3.43c14.95-11.79,8.56-24.73,6.25-28.42
				c-0.38-0.61-0.63-1.28-0.75-2c-0.69-4.41-1.57-5.14-2.03-5.19c-0.02,0-0.03,0-0.05,0c-0.73,0-1.73,1.46-2.63,3.85
				c-0.15,0.39-0.52,0.64-0.96,0.61L351.4,32c-0.11-0.01-0.21-0.08-0.24-0.19l-0.15-0.56c-0.68-3.67-1.55-4.28-2-4.31
				c-0.02,0-0.04,0-0.05,0c-1.27,0-2.91,3.34-3.93,6.24c-0.08,0.23-0.25,0.43-0.46,0.54c-4.65,2.49-12.74,4.62-12.82,4.64
				c-16.13,3.76-20.8-7.03-20.85-7.14c-5.65-13.62,4.31-21.16,5.47-21.97c1.64-3.74,3-5.46,4.15-5.31c1.22,0.15,1.72,2.3,1.92,3.56
				c0.02,0.1,0.11,0.16,0.21,0.16l3.93-0.41c0.17-0.02,0.33-0.13,0.42-0.29c1.6-2.88,2.77-4.11,3.66-3.89
				c0.76,0.19,1.14,1.4,1.14,3.6c0,1.26,0.98,1.33,1.09,1.33c15.15-2.39,25.34,4.24,28.1,6.32c4.18,3.16,5.43,3.2,5.45,3.2
				c0.14,0,0.26,0.11,0.26,0.25c0,0.14-0.1,0.25-0.24,0.26c-0.13,0.01-1.42-0.01-5.78-3.31c-2.72-2.06-12.76-8.58-27.75-6.22
				c-0.6-0.01-1.64-0.4-1.64-1.84c0-2.15-0.39-3.01-0.75-3.1c-0.27-0.07-1.13,0.15-3.07,3.64c-0.17,0.31-0.48,0.51-0.82,0.55
				l-3.93,0.41c-0.37,0.04-0.72-0.22-0.78-0.59c-0.22-1.45-0.72-3.04-1.47-3.13c-0.48-0.05-1.63,0.5-3.58,4.97
				c-0.05,0.11-0.12,0.19-0.21,0.26c-1.12,0.79-10.79,8.11-5.29,21.37c0.04,0.11,4.56,10.49,20.24,6.84
				c0.07-0.02,8.11-2.13,12.7-4.6c0.11-0.06,0.18-0.15,0.22-0.26c0.72-2.03,2.59-6.74,4.52-6.58c1.09,0.08,1.9,1.62,2.47,4.71
				l0.1,0.36l3.09,0.17c0.01,0,0.02,0,0.03,0c0.19,0,0.35-0.11,0.42-0.28c0.61-1.62,1.84-4.29,3.22-4.18
				c1.12,0.11,1.91,1.9,2.49,5.62c0.1,0.65,0.33,1.26,0.68,1.81c2.37,3.78,8.92,17.03-6.36,29.08
				C355.08,63.81,347.13,70.01,333.31,70.01z"/>
		</g>
		<g>
			<path class="st0" d="M332.7,37.82c-1.62,0-2.38-0.66-2.53-1.32c-0.2-0.86,0.51-2.07,2.56-2.69c3.46-1.05,8.53-3.45,8.58-3.47
				c0.12-0.06,0.28-0.01,0.35,0.12c0.06,0.13,0.01,0.28-0.12,0.34c-0.05,0.02-5.15,2.44-8.65,3.5c-1.66,0.5-2.37,1.43-2.21,2.09
				c0.15,0.64,1.17,1.15,3.11,0.84c0.15-0.03,0.27,0.07,0.3,0.21c0.02,0.14-0.07,0.27-0.21,0.29
				C333.44,37.79,333.05,37.82,332.7,37.82z"/>
		</g>
		<g>
			<path class="st0" d="M349.51,66.83c-0.09,0-0.18-0.05-0.22-0.13c-0.07-0.12-0.03-0.28,0.09-0.35c1.44-0.82,1.94-1.89,1.92-2.61
				c-0.01-0.48-0.24-0.86-0.64-1.06c-0.73-0.37-1.86-0.1-3.11,0.74c-4.42,2.95-10.11,2.66-10.35,2.65
				c-0.14-0.01-0.25-0.13-0.24-0.27c0.01-0.14,0.14-0.26,0.27-0.24c0.06,0,5.76,0.29,10.03-2.56c1.41-0.94,2.74-1.22,3.64-0.77
				c0.57,0.29,0.9,0.83,0.92,1.5c0.02,0.87-0.54,2.13-2.17,3.07C349.6,66.82,349.56,66.83,349.51,66.83z"/>
		</g>
		<g>
			<path class="st0" d="M319.29,28.71c-0.68,0-1.41-0.48-2.2-1.45c-0.09-0.11-0.07-0.27,0.04-0.36c0.11-0.09,0.28-0.07,0.37,0.04
				c0.8,0.98,1.49,1.39,2.04,1.22c1.28-0.38,1.84-3.63,1.96-4.85c0.01-0.13,0.12-0.23,0.26-0.23c0,0,0,0,0,0
				c0.14,0,0.25,0.11,0.26,0.24c0.07,1.13,0.5,4.12,1.66,4.42c0.46,0.12,1.31-0.17,2.69-2.27c0.08-0.12,0.24-0.15,0.36-0.08
				s0.16,0.23,0.08,0.35c-1.26,1.91-2.32,2.73-3.26,2.48c-1.03-0.27-1.55-1.8-1.81-3.08c-0.3,1.41-0.91,3.16-2.04,3.5
				C319.55,28.69,319.42,28.71,319.29,28.71z"/>
		</g>
		<g>
			<path class="st0" d="M321.83,23.49c-0.72,0-1.3-0.57-1.3-1.28c0-0.71,0.58-1.28,1.3-1.28s1.3,0.57,1.3,1.28
				C323.14,22.92,322.55,23.49,321.83,23.49z M321.83,21.44c-0.43,0-0.78,0.35-0.78,0.77c0,0.42,0.35,0.77,0.78,0.77
				s0.78-0.35,0.78-0.77C322.62,21.79,322.27,21.44,321.83,21.44z"/>
		</g>
		<g>
			<path class="st0" d="M349.78,52.1c-0.59,0-1.22-0.19-1.89-0.56c-0.12-0.07-0.17-0.23-0.1-0.35c0.07-0.12,0.23-0.17,0.35-0.1
				c0.97,0.54,1.83,0.63,2.56,0.28c1.91-0.94,2.41-4.63,2.42-4.67c0.02-0.13,0.13-0.22,0.26-0.22c0,0,0,0,0,0
				c0.13,0,0.24,0.1,0.26,0.23c0,0.04,0.43,4.02,2.14,4.66c0.65,0.24,1.44-0.05,2.35-0.87c0.11-0.09,0.27-0.09,0.37,0.02
				c0.1,0.1,0.09,0.27-0.02,0.36c-1.07,0.97-2.04,1.29-2.89,0.98c-1.29-0.48-1.94-2.39-2.24-3.72c-0.34,1.26-1.06,3.04-2.42,3.71
				C350.57,52.01,350.19,52.1,349.78,52.1z"/>
		</g>
		<g>
			<path class="st0" d="M353.43,46.89c-0.76,0-1.38-0.61-1.38-1.35c0-0.75,0.62-1.35,1.38-1.35c0.76,0,1.38,0.61,1.38,1.35
				C354.8,46.29,354.18,46.89,353.43,46.89z M353.43,44.7c-0.47,0-0.86,0.38-0.86,0.84c0,0.46,0.38,0.84,0.86,0.84
				s0.86-0.38,0.86-0.84C354.28,45.08,353.9,44.7,353.43,44.7z"/>
		</g>
		<g>
			<path class="st0" d="M317.89,20.27c-0.93,0-1.81-0.37-2.42-1c-0.08-0.09-0.15-0.17-0.21-0.26c-0.39-0.52-0.56-1.07-0.48-1.54
				c0.06-0.34,0.25-0.63,0.55-0.83c0.61-0.41,1.82-0.48,2.57,0.23c0.75-0.71,1.95-0.64,2.57-0.23c0.3,0.2,0.49,0.48,0.55,0.83
				c0.08,0.47-0.09,1.02-0.48,1.55c-0.05,0.08-0.13,0.16-0.21,0.25C319.69,19.9,318.81,20.27,317.89,20.27
				C317.89,20.27,317.89,20.27,317.89,20.27z M316.45,16.84c-0.32,0-0.63,0.08-0.84,0.22c-0.18,0.12-0.29,0.29-0.33,0.49
				c-0.06,0.33,0.08,0.74,0.39,1.15c0.05,0.07,0.11,0.14,0.17,0.2c0.52,0.54,1.26,0.84,2.05,0.84c0,0,0,0,0,0
				c0.78,0,1.53-0.31,2.04-0.84c0.06-0.07,0.12-0.13,0.16-0.2c0.32-0.42,0.45-0.83,0.4-1.16c-0.04-0.2-0.15-0.37-0.33-0.49
				c-0.49-0.33-1.54-0.36-2.07,0.34c-0.05,0.06-0.13,0.1-0.21,0.1l0,0c-0.08,0-0.16-0.04-0.21-0.1
				C317.37,17,316.89,16.84,316.45,16.84z"/>
		</g>
		<g>
			<path class="st0" d="M326.14,20.21C326.14,20.21,326.14,20.21,326.14,20.21c-0.93,0-1.81-0.37-2.42-1
				c-0.08-0.09-0.15-0.17-0.21-0.26c-0.39-0.52-0.56-1.07-0.48-1.54c0.06-0.34,0.25-0.63,0.55-0.83c0.61-0.41,1.82-0.48,2.57,0.23
				c0.75-0.71,1.95-0.64,2.57-0.23c0.3,0.2,0.49,0.48,0.55,0.83c0.08,0.47-0.09,1.02-0.48,1.55c-0.06,0.08-0.13,0.16-0.21,0.25
				C327.95,19.84,327.06,20.21,326.14,20.21z M324.7,16.79c-0.32,0-0.63,0.08-0.84,0.22c-0.18,0.12-0.29,0.29-0.33,0.49
				c-0.06,0.33,0.08,0.74,0.39,1.16c0.05,0.07,0.11,0.14,0.17,0.2c0.52,0.54,1.26,0.84,2.04,0.84c0,0,0,0,0,0
				c0.78,0,1.53-0.31,2.05-0.84c0.06-0.07,0.12-0.13,0.17-0.2c0.31-0.42,0.45-0.83,0.39-1.16c-0.04-0.21-0.15-0.37-0.33-0.49
				c-0.49-0.33-1.54-0.36-2.07,0.34c-0.1,0.13-0.32,0.13-0.42,0C325.63,16.95,325.15,16.79,324.7,16.79z"/>
		</g>
		<g>
			<path class="st0" d="M348.39,44.15c-1,0-1.88-0.52-2.29-1.37c-0.58-1.15-0.56-2.27,0.04-2.87c0.32-0.32,0.79-0.47,1.25-0.39
				c0.39,0.06,0.73,0.27,1,0.6c0.26-0.33,0.61-0.54,1-0.6c0.47-0.07,0.93,0.07,1.25,0.39c0.6,0.6,0.62,1.71,0.05,2.85
				C350.26,43.63,349.39,44.15,348.39,44.15C348.39,44.15,348.39,44.15,348.39,44.15z M347.16,40.02c-0.24,0-0.48,0.09-0.65,0.26
				c-0.43,0.43-0.41,1.36,0.05,2.26c0.34,0.69,1.03,1.1,1.83,1.1c0,0,0,0,0,0c0.8,0,1.49-0.41,1.82-1.07
				c0.47-0.93,0.49-1.86,0.06-2.29c-0.2-0.2-0.5-0.3-0.8-0.25c-0.35,0.06-0.65,0.3-0.85,0.69c-0.09,0.17-0.38,0.17-0.46,0
				c-0.2-0.39-0.5-0.64-0.85-0.69C347.26,40.02,347.21,40.02,347.16,40.02z"/>
		</g>
		<g>
			<path class="st0" d="M357.99,44.19c-0.96,0-1.78-0.51-2.14-1.33c-0.53-1.17-0.52-2.31,0.03-2.91c0.3-0.33,0.74-0.48,1.16-0.41
				c0.37,0.06,0.7,0.27,0.95,0.6c0.25-0.33,0.57-0.54,0.95-0.6c0.43-0.06,0.86,0.09,1.16,0.41c0.55,0.6,0.57,1.74,0.04,2.89
				C359.76,43.68,358.94,44.19,357.99,44.19C357.99,44.19,357.99,44.19,357.99,44.19z M356.85,40.03c-0.22,0-0.43,0.09-0.58,0.26
				c-0.4,0.44-0.39,1.4,0.04,2.34c0.34,0.78,1.09,1.05,1.67,1.05l0,0c0.59,0,1.33-0.27,1.66-1.03c0.44-0.97,0.46-1.93,0.06-2.37
				c-0.18-0.2-0.44-0.29-0.69-0.25c-0.32,0.05-0.6,0.3-0.79,0.71c-0.09,0.18-0.39,0.18-0.47,0c-0.19-0.41-0.47-0.66-0.79-0.71
				C356.92,40.03,356.88,40.03,356.85,40.03z"/>
		</g>
	</g>
	<g id="_x32__2_">
		<path class="st0" d="M171.01,113.07c-0.03,0.02-0.07,0.03-0.12,0.03c-0.14,0.01-0.26-0.1-0.27-0.25
			c-0.05-1.16-0.87-4.63-0.88-4.67c-5.32-15.13,0.46-24.29,0.52-24.38c0.08-0.12,0.23-0.15,0.35-0.07c0.12,0.08,0.15,0.24,0.07,0.36
			c-0.06,0.09-5.69,9.05-0.46,23.94c0.04,0.17,0.85,3.59,0.9,4.79C171.14,112.94,171.09,113.03,171.01,113.07z"/>
		<path class="st0" d="M208.11,127.67c-0.03,0.02-0.06,0.03-0.09,0.03c-1.14,0.17-1.61-1.23-1.63-1.28
			c-1.7-3.53-5.57-5.56-5.61-5.58c-0.13-0.06-0.18-0.22-0.11-0.35c0.06-0.13,0.22-0.18,0.34-0.11c0.17,0.08,4.06,2.12,5.85,5.85
			c0.02,0.04,0.37,1.07,1.08,0.97c0.14-0.02,0.27,0.08,0.29,0.22C208.25,127.52,208.2,127.62,208.11,127.67z"/>
		<path class="st0" d="M166.97,82.36c-0.06,0.03-0.12,0.04-0.19,0.03c-0.05-0.01-4.73-1.17-8.15-0.49c-0.14,0.03-0.27-0.06-0.3-0.21
			c-0.03-0.14,0.06-0.28,0.2-0.3c3.53-0.7,8.17,0.44,8.37,0.49c0.14,0.03,0.22,0.18,0.19,0.31
			C167.07,82.27,167.02,82.33,166.97,82.36z"/>
		<path class="st0" d="M169,87.96c-0.04,0.03-0.09,0.04-0.15,0.03c-5.58-0.39-7.93,3.75-7.95,3.79c-1.45,1.81-2.67,1.69-3.12,1.55
			l0.06-0.25l-0.22-0.15c0.06-0.09,0.2-0.13,0.31-0.1c0.28,0.08,1.29,0.24,2.56-1.34c0-0.01,2.49-4.43,8.41-4.02
			c0.14,0.01,0.25,0.13,0.24,0.28C169.12,87.84,169.07,87.91,169,87.96z M158.04,93.22L158.04,93.22L158.04,93.22z"/>
		<path class="st0" d="M189.51,117.84c-0.14,0.08-0.3,0.16-0.48,0.22c-0.14,0.05-3.52,1.16-10.05-2.04
			c-0.81-0.52-3.06-1.77-4.04-1.44c-0.2,0.07-0.32,0.19-0.39,0.38c-0.03,0.06-0.18,0.32-0.03,0.83c0.21,0.75,1.17,2.34,5.24,4.51
			c0.12,0.07,0.17,0.22,0.11,0.35c-0.07,0.13-0.22,0.18-0.34,0.11c-4.08-2.17-5.25-3.85-5.51-4.88c-0.18-0.71,0.06-1.11,0.09-1.15
			c0.1-0.29,0.35-0.53,0.68-0.64c1.39-0.47,4.14,1.28,4.45,1.48c6.29,3.08,9.61,2.01,9.64,2c1.38-0.5,1.32-1.79,1.22-2.32
			c-8.72,1.66-12.91-4.35-12.95-4.41c-0.55-0.68-1.96-0.48-2.46-0.34c-0.02,0.01-0.04,0.01-0.07,0.01c-2.51-0.01-3.48-3.17-3.52-3.3
			c-0.64-1.53-0.77-2.71-0.37-3.49c0.32-0.61,0.85-0.73,0.87-0.73c0.71-0.11,1.14-0.33,1.27-0.63c0.14-0.32-0.09-0.67-0.09-0.67
			c-0.35-0.79-0.37-1.49-0.07-2.12c0.64-1.36,2.53-1.86,2.61-1.88c7.27-1.44,8.13-4.98,8.14-5.02c0.03-0.14,0.17-0.23,0.3-0.2
			c0.14,0.03,0.22,0.17,0.2,0.31c-0.03,0.16-0.9,3.91-8.52,5.41c0,0-1.72,0.46-2.26,1.6c-0.23,0.48-0.21,1.04,0.06,1.64l0,0
			c0,0,0.36,0.56,0.12,1.14c-0.21,0.48-0.76,0.8-1.65,0.93l0,0c0,0-0.32,0.08-0.51,0.48c-0.22,0.44-0.33,1.32,0.4,3.06
			c0.02,0.06,0.9,2.92,3.01,2.96c0.29-0.07,2.14-0.49,2.97,0.54c0.05,0.08,4.15,5.92,12.69,4.16c0.13-0.03,0.26,0.05,0.3,0.18
			C190.76,115.61,190.78,117.09,189.51,117.84z"/>
		<path class="st0" d="M199.59,95.6c-0.13,0.08-0.27,0.11-0.4,0.09c-0.53-0.06-0.76-0.81-0.8-0.96c-0.13-0.97-0.45-1.58-0.95-1.84
			c-0.84-0.43-1.94,0.17-1.95,0.18c-6.58,2.28-9.94-1.02-10.08-1.16c-0.26-0.24-0.63-0.52-0.9-0.41c-0.37,0.15-0.52,0.97-0.55,1.24
			c-0.01,0.14-0.14,0.25-0.28,0.24c-0.14-0.01-0.24-0.14-0.23-0.28c0.01-0.14,0.13-1.4,0.87-1.68c0.41-0.16,0.9,0.01,1.44,0.52
			c0.04,0.04,3.3,3.22,9.53,1.06c0.01-0.02,1.31-0.72,2.39-0.16c0.67,0.35,1.08,1.09,1.22,2.2c0.06,0.2,0.23,0.53,0.36,0.55
			c0.02,0,0.23,0.01,0.58-0.66c0.11-0.34,0.78-2.26,1.52-2.46c0.19-0.05,0.38-0.01,0.54,0.13c0.11,0.09,0.12,0.26,0.03,0.37
			c-0.09,0.11-0.25,0.12-0.36,0.03c-0.04-0.03-0.05-0.03-0.07-0.02c-0.32,0.09-0.87,1.2-1.19,2.17
			C200.05,95.17,199.82,95.46,199.59,95.6z"/>
		<path class="st0" d="M194.41,114.08c-0.31,0.18-0.51,0.29-0.55,0.31c-0.13,0.06-0.28,0.01-0.34-0.12
			c-0.06-0.13-0.01-0.28,0.11-0.35c0.07-0.04,7.27-3.79,6.82-9.45c0,0,0,0,0,0c0,0-0.14-0.51,0.16-1.03
			c0.27-0.47,0.79-0.8,1.55-0.98c0.06-0.01,2.13-0.21,2.72-1.87c0.05-0.14,0.19-0.21,0.33-0.16c0.13,0.05,0.2,0.2,0.15,0.33
			c-0.7,1.98-3.02,2.2-3.12,2.2c-0.57,0.14-0.98,0.38-1.18,0.72c-0.2,0.34-0.11,0.67-0.11,0.68
			C201.37,109.54,196.16,113.05,194.41,114.08z"/>
		<path class="st0" d="M200.67,114.55c-0.02,0.01-0.05,0.02-0.08,0.03c-0.51,0.11-3.25,1.05-4.63,1.54
			c-0.59,0.12-1.08,0.03-1.49-0.25c-0.78-0.55-0.98-1.61-0.99-1.66c-0.02-0.14,0.07-0.28,0.21-0.3c0.14-0.03,0.27,0.07,0.3,0.21
			c0,0.01,0.17,0.9,0.78,1.32c0.29,0.2,0.65,0.26,1.07,0.18c0.13-0.05,3.98-1.4,4.65-1.55c0.14-0.03,0.27,0.06,0.3,0.2
			C200.81,114.38,200.76,114.49,200.67,114.55z"/>
		<path class="st0" d="M184.67,100.58c-0.08,0.04-0.17,0.05-0.25,0c-1.32-0.76-2.5-0.95-3.5-0.55c-1.65,0.66-2.3,2.7-2.3,2.72
			c-0.04,0.14-0.19,0.21-0.32,0.17c-0.13-0.04-0.21-0.19-0.17-0.33c0.03-0.09,0.72-2.29,2.6-3.04c1.15-0.46,2.48-0.27,3.94,0.58
			c0.12,0.07,0.17,0.23,0.1,0.35C184.74,100.52,184.71,100.56,184.67,100.58z"/>
		<path class="st0" d="M196.55,97.11c-0.08,0.05-0.19,0.05-0.27-0.01c-1.24-0.89-2.4-1.18-3.45-0.87c-1.81,0.54-2.72,2.73-2.73,2.76
			c-0.05,0.13-0.2,0.2-0.33,0.14c-0.13-0.05-0.19-0.21-0.14-0.34c0.04-0.1,1-2.45,3.05-3.06c1.2-0.36,2.51-0.04,3.89,0.94
			c0.12,0.08,0.14,0.24,0.06,0.36C196.61,97.06,196.58,97.09,196.55,97.11z"/>
		<path class="st0" d="M190.12,104.08c-0.11,0.06-0.25,0.04-0.33-0.06c-0.31-0.4-0.75-0.85-1.14-0.76
			c-0.49,0.11-0.79,1.06-0.86,1.38c-0.03,0.14-0.17,0.23-0.3,0.2c-0.14-0.03-0.23-0.17-0.2-0.31c0.03-0.16,0.36-1.57,1.24-1.78
			c0.52-0.12,1.07,0.2,1.65,0.94c0.09,0.11,0.07,0.28-0.04,0.36C190.14,104.06,190.13,104.07,190.12,104.08z"/>
		<path class="st0" d="M191.61,108.97c-0.69,0.41-1.42,0.67-2.16,0.8c-3,0.49-5.27-1.51-5.37-1.6c-0.11-0.09-0.12-0.26-0.02-0.37
			c0.09-0.11,0.25-0.12,0.36-0.02c0.02,0.02,2.2,1.93,4.96,1.47c2.14-0.35,4.06-2,5.73-4.89c0.07-0.12,0.23-0.17,0.35-0.09
			c0.12,0.07,0.16,0.23,0.09,0.36C194.37,106.67,193.05,108.12,191.61,108.97z"/>
		<path class="st0" d="M170.4,109.43c-0.08,0.05-0.19,0.05-0.28-0.01c-5.54-4.1-8.99-17.88-9.14-18.46
			c-0.03-0.14,0.04-0.28,0.19-0.32c0.14-0.04,0.28,0.05,0.31,0.19c0.04,0.14,3.55,14.18,8.94,18.17c0.11,0.08,0.14,0.25,0.06,0.36
			C170.46,109.39,170.43,109.41,170.4,109.43z"/>
		<path class="st0" d="M161.86,66.64c-1.42,0.83-3.01,1.33-4.67,1.43c-0.14,0.01-0.26-0.1-0.27-0.24c-0.01-0.14,0.1-0.27,0.24-0.28
			c2.6-0.16,5.03-1.33,6.83-3.29c0.15-0.16,0.3-0.33,0.46-0.51c0.09-0.11,0.26-0.12,0.36-0.02c0.11,0.1,0.11,0.26,0.02,0.37
			c-0.16,0.18-0.31,0.35-0.46,0.52C163.62,65.42,162.77,66.1,161.86,66.64z"/>
		<path class="st0" d="M139.21,50.15c-0.02,0.01-0.05,0.02-0.08,0.03c-0.14,0.03-0.27-0.06-0.3-0.2c-0.18-0.9-0.29-2.08-0.3-3.24
			c-0.07-8.29,5.44-12.05,6.07-12.45l0.15,0.21l0.23-0.11c0.06,0.12,0.01,0.27-0.11,0.34c-0.6,0.39-5.9,4-5.83,12.01
			c0.01,1.13,0.11,2.27,0.29,3.14C139.36,49.99,139.31,50.1,139.21,50.15z"/>
		<path class="st0" d="M167.69,55.47c-0.04,0.02-0.08,0.03-0.12,0.03c-0.14,0-0.26-0.11-0.26-0.25c-0.12-4.99-3.5-11.62-3.53-11.69
			c-5.54-12.2-16.42-10.15-16.52-10.13c-0.14,0.03-0.27-0.06-0.3-0.2c-0.03-0.14,0.06-0.28,0.2-0.31
			c0.11-0.02,11.37-2.16,17.08,10.41c0.14,0.26,3.47,6.79,3.58,11.9C167.82,55.34,167.77,55.43,167.69,55.47z"/>
		<path class="st0" d="M208.07,151.66c-0.24,0.14-0.52,0.25-0.83,0.33c-0.14,0.03-0.28-0.05-0.31-0.19
			c-0.03-0.14,0.05-0.28,0.19-0.31c0.66-0.17,1.13-0.5,1.39-0.98c0.51-0.93,0.15-2.14,0.15-2.15l-1.7-5.51
			c-0.03-0.09-0.06-0.17-0.08-0.26c-0.32-1.11,0.31-2.25,1.44-2.65c0.54-0.19,0.89-0.5,1.06-0.92c0.35-0.89-0.18-2.06-0.35-2.4
			c-0.04-0.08-0.08-0.17-0.11-0.26c-1.7-4.96-2.33-8.02-1.83-8.85c0.11-0.18,0.24-0.22,0.29-0.22c0.39,0.02,0.63-0.05,0.78-0.22
			c0.26-0.3,0.18-0.83,0.18-0.83c-0.77-5.41-4.19-8.36-6.91-9.89c-0.8-0.45-1.24-1.33-1.11-2.25c0.13-0.93,0.76-1.63,1.66-1.84
			c3.4-1.06,6.06-2.55,6.09-2.56c0.16-0.07,0.24-0.18,0.29-0.33c0.26-0.9-0.86-2.96-1.32-3.67c-1.55-2.9-2.14-4.73-2.16-4.81
			c-0.01-0.03-0.01-0.06-0.01-0.1c0.47-7.59-2.04-7.89-2.06-7.89c-1.7-0.25-1.83-1.12-1.84-1.34c-1.19-5.82-2.99-8.03-3.86-9.1
			c-0.14-0.17-0.25-0.31-0.33-0.42c-0.03-0.04-0.43-0.51-0.43-0.51c-0.35-0.61-0.4-1.29-0.15-1.9c0.25-0.61,0.75-1.07,1.39-1.25
			c3.05-0.85,6.66-1.04,6.7-1.04c0.02,0,0.05,0,0.07,0.01c0.67,0.15,1.16,0.11,1.4-0.12c0.25-0.23,0.2-0.6,0.2-0.61
			c-1.48-8.62-4.16-8.87-4.19-8.87c-0.03,0-0.07-0.01-0.09-0.02c-3.57-1.61-9.62,7.68-9.69,7.77c-0.12,0.37-0.38,0.66-0.75,0.83
			c-0.72,0.32-1.61,0-1.79-0.07c-13.05-1.96-17.97,6.85-18.01,6.94c-0.24,0.57-0.54,0.9-0.89,0.97c-0.27,0.05-0.48-0.07-0.57-0.14
			c-1.58-0.52-3.14-1.64-3.2-1.68c-0.06-0.05-0.1-0.12-0.11-0.2l-0.06-0.97c0.36-9.37-2.24-17-2.27-17.08
			c-0.03-0.09-0.01-0.19,0.05-0.26c3.08-3.56,2.96-9.18,2.96-9.24c0-0.11,0.06-0.21,0.16-0.25c2.92-1.16,4.18-2.95,4.19-2.96
			c7.81-9.19,4.32-20.85,4.29-20.96c-3.53-12.41-17.34-9.62-17.48-9.59c-9.37,2.14-10.99,12.29-11,12.39
			c-0.02,0.11-0.09,0.19-0.2,0.22c-0.53,0.11-1.29,0.46-1.5,0.6c-0.66,0.46-0.77,0.61-0.78,0.62l0,0c-0.03,0.06-0.08,0.1-0.13,0.12
			c-0.12,0.04-0.25-0.01-0.31-0.13c-0.03-0.06-0.05-0.12-0.03-0.19c-0.03-0.31-0.1-1.24-0.15-1.83c-0.52-4.63-3.65-9.94-3.68-9.99
			c-3.19-4.24-6.8-6.61-10.7-7.03c-5.54-0.6-9.79,3.02-9.83,3.06c-10.24,8.92-0.39,24.05-0.28,24.2c6.1,9.89,15.7,8.28,15.79,8.26
			c0.68-0.08,2.61-1.04,3.3-1.41c0.07-0.03,0.14-0.04,0.21-0.01c0.07,0.03,0.12,0.08,0.15,0.15c5.67,15.85,17.16,17.94,18.28,17.68
			c0.14-0.03,0.27,0.06,0.31,0.2c0.03,0.14-0.06,0.27-0.19,0.31c-1.35,0.32-12.9-1.66-18.77-17.73c-0.67,0.35-2.47,1.24-3.2,1.33
			c-0.08,0.02-10.02,1.7-16.3-8.49c-0.1-0.15-10.2-15.66,0.38-24.88c0.04-0.04,4.45-3.8,10.21-3.18c4.05,0.43,7.77,2.88,11.08,7.26
			c0.15,0.24,3.23,5.48,3.76,10.24c0.03,0.41,0.08,0.98,0.11,1.39c0.13-0.1,0.29-0.22,0.5-0.36c0.25-0.18,0.94-0.49,1.52-0.64
			c0.26-1.39,2.34-10.58,11.37-12.64c0.15-0.03,14.41-2.92,18.08,9.95c0.04,0.11,3.61,12.04-4.37,21.43
			c-0.04,0.05-1.28,1.84-4.24,3.06c0,1.02-0.16,5.91-2.99,9.3c0.36,1.1,2.58,8.36,2.25,17.1l0.05,0.81
			c0.37,0.25,1.72,1.14,3.01,1.56c0.04,0.01,0.07,0.03,0.1,0.06l0,0c0,0,0.08,0.07,0.18,0.05c0.07-0.02,0.28-0.12,0.52-0.69
			c0.06-0.12,5.15-9.25,18.58-7.22c0.02,0,0.04,0.01,0.06,0.02c0.01,0,0.83,0.35,1.42,0.09c0.24-0.1,0.4-0.3,0.5-0.58
			c0.28-0.45,6.35-9.74,10.31-8.03c0.45,0.06,3.15,0.75,4.62,9.31c0.01,0.03,0.09,0.65-0.35,1.07c-0.38,0.35-0.99,0.44-1.83,0.26
			c-0.37,0.02-3.71,0.23-6.55,1.02c-0.48,0.13-0.86,0.48-1.05,0.94c-0.19,0.46-0.15,0.97,0.09,1.4c0,0,0.42,0.49,0.44,0.52
			c0.07,0.11,0.18,0.23,0.31,0.39c0.89,1.1,2.75,3.39,3.97,9.35c0,0.02,0.01,0.05,0.01,0.07c0,0.02,0.01,0.63,1.38,0.83
			c0.04,0,0.58,0.05,1.16,0.71c0.78,0.89,1.64,2.94,1.36,7.68c0.1,0.3,0.72,2.07,2.1,4.66c0.17,0.27,1.74,2.8,1.37,4.09
			c-0.09,0.3-0.28,0.52-0.55,0.65l0,0c-0.03,0.02-2.73,1.52-6.19,2.6c-0.84,0.2-1.21,0.86-1.29,1.41c-0.08,0.56,0.11,1.31,0.85,1.73
			c2.83,1.58,6.37,4.64,7.17,10.26c0,0.02,0.13,0.77-0.3,1.26c-0.24,0.27-0.58,0.4-1.03,0.39c-0.11,0.23-0.42,1.6,1.9,8.39
			c0.02,0.07,0.05,0.13,0.08,0.19c0.2,0.39,0.8,1.74,0.37,2.83c-0.23,0.57-0.69,0.98-1.37,1.22c-0.88,0.31-1.35,1.17-1.11,2.01
			c0.02,0.08,0.05,0.16,0.08,0.25l1.7,5.52c0.02,0.06,0.43,1.43-0.19,2.56C208.75,151.14,208.45,151.44,208.07,151.66z"/>
		<path class="st0" d="M199.38,154.91c0,0-0.01,0.01-0.01,0.01c-0.04,0.02-0.4,0.19-0.91-0.03c-0.85-0.37-1.59-1.57-2.19-3.56
			l-1.65-4.79c-0.01-0.02-0.01-0.05-0.01-0.07c0,0-0.03-0.31-0.26-0.46c-0.23-0.14-0.62-0.11-1.11,0.1c0.01,0.01-0.55,0.3-1.28,0.01
			c-0.92-0.37-1.68-1.47-2.25-3.28c-0.03-0.06-3.76-8.69-3.23-15.72c0.15-2-1.08-3.81-2.99-4.4c-1.59-0.49-2.78-1-3.52-1.51
			l-0.38-0.32l-4.92,1.61c-0.1,0.06-0.38,0.18-0.77,0.07c-0.7-0.2-1.37-1-1.99-2.4c-0.07-0.21-1.31-4.5-1.27-7.14
			c-0.09-0.14-0.43-0.59-1.35-1.03c-0.12-0.08-9.21-6.21-11.8-18.81c-0.14-0.09-0.29-0.27-0.45-0.54c-0.98-1.65-2.61-7.22-2.18-8.52
			c0.05-0.14,0.19-0.21,0.32-0.16c0.13,0.05,0.2,0.19,0.16,0.33c-0.44,1.33,1.75,8.16,2.42,8.46c0.11,0.02,0.18,0.09,0.2,0.2
			c2.51,12.47,11.49,18.54,11.58,18.6c1.23,0.59,1.55,1.24,1.59,1.31c0.02,0.04,0.02,0.08,0.02,0.12c-0.06,2.55,1.22,6.97,1.24,7.02
			c0.71,1.58,1.32,1.98,1.63,2.07c0.26,0.08,0.41,0,0.41-0.02c0.02-0.01,0.04-0.02,0.06-0.03l5.08-1.66
			c0.08-0.03,0.17-0.01,0.24,0.05l0.47,0.39c0.68,0.47,1.82,0.95,3.36,1.43c2.14,0.66,3.52,2.69,3.35,4.94
			c-0.51,6.89,3.16,15.41,3.2,15.49c0.67,2.08,1.44,2.77,1.97,2.98c0.5,0.2,0.87,0.01,0.87,0.01c0.69-0.29,1.22-0.31,1.61-0.07
			c0.39,0.25,0.48,0.68,0.49,0.82l1.65,4.78c0.72,2.39,1.49,3.06,1.88,3.24c0.3,0.14,0.5,0.06,0.51,0.06c0.13-0.06,0.28,0,0.34,0.13
			C199.54,154.7,199.5,154.85,199.38,154.91z"/>
		<path class="st0" d="M158.71,81.87c-0.01,0.01-0.02,0.01-0.03,0.02c-0.13,0.05-0.28-0.01-0.33-0.14c-1.4-3.53-0.63-6.5-0.59-6.62
			c0.82-4.81-0.41-7.2-0.42-7.22c-0.07-0.12-0.02-0.28,0.1-0.35c0,0,0,0,0.01,0c0.12-0.07,0.28-0.02,0.35,0.1
			c0.05,0.1,1.33,2.55,0.47,7.58c-0.01,0.05-0.76,2.95,0.57,6.31C158.87,81.67,158.82,81.81,158.71,81.87z"/>
		<path class="st0" d="M155.21,84.42c-0.07,0.04-0.16,0.05-0.24,0.01c-0.13-0.06-0.18-0.22-0.12-0.35c0.68-1.4,1.74-2.18,3.66-2.68
			c0.14-0.04,0.28,0.05,0.31,0.19c0.04,0.14-0.04,0.28-0.18,0.32c-1.78,0.47-2.72,1.14-3.33,2.41
			C155.29,84.36,155.26,84.39,155.21,84.42z"/>
	</g>
	<g id="_x31__2_">
		<g>
			<path class="st0" d="M23.93,95c-4.56,0-9.98-0.49-13.69-0.82c-1.28-0.11-2.29-0.21-2.92-0.24c-3.77-0.23-3.86-3.79-3.92-5.93
				C3.39,87.6,3.38,87.26,3.35,87c-0.19-1.47-1.16-3.44-1.31-3.74c-2.65-1.85-2.1-5.24-1.7-6.29c0.16-0.4,0.35-0.65,0.53-0.89
				c0.34-0.44,0.67-0.86,0.65-2.39l-0.01-0.58c-0.03-2.09-0.06-4.26,0.97-12.61c0.7-5.64,2.54-8.07,3.97-9.12
				c1.09-0.8,2.03-0.86,2.38-0.78c0.92,0.21,1.68-0.59,1.69-0.6c4.37-6.17,10.17-5.22,11.33-4.41c0.29,0.2,0.54,0.4,0.79,0.6
				c0.98,0.77,1.82,1.44,3.95,1.38c3.07-0.08,4.55,3.85,4.61,5.42c0.06,1.54,1.5,2.84,1.51,2.85c6.2,4.94,5.67,17.58,5.66,17.9
				c0,0.92,0.68,1.58,0.68,1.59c1.56,2.32,0.84,6.15,0.27,6.85c-0.36,0.43-0.67,1.23-0.67,1.24c-0.05,0.18-0.11,0.4-0.18,0.66
				c-0.48,1.82-1.37,5.19-3.77,6.23c-2.43,1.05-2.26,1.96-2.25,1.97c0.11,0.43,0.04,0.82-0.23,1.16C31.27,94.62,27.93,95,23.93,95z
				 M8.56,50.92c-0.37,0-1.08,0.13-1.91,0.75c-1.37,1.01-3.15,3.37-3.83,8.88c-1.03,8.33-1,10.48-0.97,12.56l0.01,0.58
				c0.02,1.65-0.36,2.14-0.73,2.62c-0.18,0.23-0.34,0.44-0.48,0.8c-0.38,0.98-0.9,4.18,1.61,5.89c0.02,0.02,0.04,0.04,0.06,0.06
				c0.05,0.09,1.15,2.25,1.36,3.89c0.03,0.28,0.04,0.63,0.06,1.05c0.06,2.14,0.14,5.38,3.6,5.59c0.64,0.04,1.65,0.13,2.93,0.24
				c6.42,0.58,19.78,1.78,21.69-0.61c0.2-0.25,0.25-0.52,0.17-0.84c-0.03-0.12-0.26-1.21,2.45-2.38c2.25-0.97,3.11-4.24,3.57-6
				c0.07-0.26,0.13-0.49,0.19-0.69c0.02-0.05,0.34-0.87,0.74-1.35c0.43-0.52,1.22-4.17-0.26-6.39c-0.01,0-0.77-0.74-0.77-1.82
				c0,0,0-0.01,0-0.01c0.01-0.13,0.59-12.75-5.53-17.62c-0.07-0.06-1.57-1.42-1.63-3.11c-0.06-1.46-1.38-5.09-4.18-5.09
				c-0.03,0-0.06,0-0.08,0c-2.24,0.06-3.18-0.68-4.16-1.45c-0.24-0.19-0.49-0.39-0.77-0.58c-1.11-0.77-6.65-1.64-10.89,4.34
				c-0.05,0.06-0.9,0.96-2.01,0.71C8.72,50.93,8.65,50.92,8.56,50.92z"/>
		</g>
		<g>
			<path class="st0" d="M14.25,71.95c-4.08,0-7.41-3.29-7.41-7.33c0-4.04,3.32-7.33,7.41-7.33s7.41,3.29,7.41,7.33
				C21.66,68.66,18.34,71.95,14.25,71.95z M14.25,57.64c-3.9,0-7.07,3.13-7.07,6.98c0,3.85,3.17,6.98,7.07,6.98
				c3.9,0,7.07-3.13,7.07-6.98C21.32,60.77,18.15,57.64,14.25,57.64z"/>
		</g>
		<g>
			<path class="st0" d="M30.55,71.15c-0.74,0-1.5-0.16-2.24-0.49c-1.55-0.67-2.85-1.97-3.67-3.64c-0.82-1.67-1.06-3.53-0.68-5.24
				c0.39-1.71,1.35-3.06,2.73-3.79c2.83-1.51,6.51,0.09,8.21,3.55l0,0c1.7,3.47,0.78,7.52-2.05,9.03
				C32.14,70.96,31.36,71.15,30.55,71.15z M28.99,57.78c-0.74,0-1.47,0.17-2.14,0.53c-1.29,0.69-2.19,1.95-2.56,3.56
				c-0.36,1.62-0.13,3.39,0.65,5c0.78,1.6,2.03,2.83,3.5,3.48c1.46,0.64,2.98,0.61,4.26-0.08c2.66-1.42,3.52-5.26,1.91-8.55
				C33.4,59.25,31.16,57.78,28.99,57.78z"/>
		</g>
		<g>
			<path class="st0" d="M16.33,69.22c-2.02,0-3.67-1.72-3.67-3.83c0-2.11,1.65-3.83,3.67-3.83c2.02,0,3.67,1.72,3.67,3.83
				C20,67.5,18.36,69.22,16.33,69.22z M16.33,61.91c-1.84,0-3.33,1.56-3.33,3.48c0,1.92,1.5,3.48,3.33,3.48
				c1.84,0,3.33-1.56,3.33-3.48C19.67,63.47,18.17,61.91,16.33,61.91z"/>
		</g>
		<g>
			<path class="st0" d="M28.75,68.01c-1.84,0-3.33-1.56-3.33-3.47c0-1.92,1.49-3.47,3.33-3.47s3.33,1.56,3.33,3.47
				C32.08,66.45,30.58,68.01,28.75,68.01z M28.75,61.42c-1.65,0-2.99,1.4-2.99,3.12c0,1.72,1.34,3.12,2.99,3.12s2.99-1.4,2.99-3.12
				C31.74,62.82,30.4,61.42,28.75,61.42z"/>
		</g>
		<g>
			<path class="st0" d="M23.57,72.65c-0.28,0-0.59-0.03-0.93-0.08c-0.01,0-0.03-0.01-0.04-0.01c-0.02-0.01-0.51-0.23-0.71-0.85
				c-0.2-0.62-0.05-1.39,0.44-2.3c0.43-0.79,0.88-1.15,1.35-1.06c0.83,0.16,1.34,1.73,1.53,3.02c0,0.01,0.09,0.44-0.24,0.81
				C24.7,72.49,24.23,72.65,23.57,72.65z M22.72,72.22c1.27,0.2,1.8-0.04,2.01-0.27c0.21-0.23,0.16-0.5,0.16-0.51
				c-0.22-1.49-0.75-2.64-1.26-2.74c-0.38-0.08-0.75,0.44-1,0.89c-0.44,0.81-0.58,1.5-0.42,2.01
				C22.35,72.01,22.64,72.18,22.72,72.22z"/>
		</g>
		<g>
			<path class="st0" d="M14.49,94.5c-0.02,0-0.04,0-0.07-0.01c-0.09-0.04-0.13-0.14-0.09-0.23c0.06-0.14,0.05-0.27-0.01-0.42
				c-0.24-0.59-1.32-1.12-1.71-1.28c-4.81-1.98-6.4-1.58-6.92-1.17c-0.35,0.27-0.31,0.63-0.31,0.64c0.01,0.1-0.06,0.18-0.15,0.19
				c-0.09,0.01-0.17-0.06-0.19-0.15c0-0.02-0.06-0.55,0.43-0.95c1-0.81,3.51-0.42,7.25,1.12c0.06,0.02,1.56,0.63,1.9,1.47
				c0.1,0.24,0.1,0.47,0.01,0.69C14.61,94.46,14.55,94.5,14.49,94.5z"/>
		</g>
		<g>
			<path class="st0" d="M23.74,94.86c-0.07,0-0.13-0.05-0.16-0.12c-0.31-0.93,1.08-1.73,1.14-1.77c4.05-2.08,5.82-2.04,6.6-1.65
				c0.48,0.24,0.56,0.6,0.57,0.64c0.02,0.09-0.04,0.19-0.13,0.21c-0.09,0.02-0.18-0.04-0.2-0.13c0-0.01-0.06-0.25-0.41-0.41
				c-0.59-0.29-2.18-0.45-6.28,1.65c-0.33,0.19-1.16,0.8-0.98,1.34c0.03,0.09-0.02,0.19-0.1,0.22
				C23.78,94.86,23.76,94.86,23.74,94.86z"/>
		</g>
		<g>
			<path class="st0" d="M38.35,81.69c-0.03,0-0.06-0.01-0.08-0.02c-2.05-1.24-0.5-5.34-0.43-5.51c0.04-0.09,0.13-0.13,0.22-0.1
				c0.09,0.04,0.13,0.14,0.09,0.23c-0.02,0.04-1.51,3.99,0.29,5.08c0.08,0.05,0.11,0.16,0.06,0.24
				C38.47,81.66,38.41,81.69,38.35,81.69z"/>
		</g>
		<g>
			<path class="st0" d="M2.52,82.36c-0.02,0-0.04,0-0.06-0.01c-0.09-0.03-0.13-0.13-0.1-0.22c1.19-3.46,0.01-5.46-0.01-5.48
				c-0.05-0.08-0.03-0.19,0.05-0.24c0.08-0.05,0.18-0.03,0.23,0.05c0.05,0.09,1.29,2.16,0.04,5.79C2.65,82.32,2.59,82.36,2.52,82.36
				z"/>
		</g>
	</g>
</g>
</svg>
