<?xml version="1.0" encoding="utf-8"?>
<!-- Generator: Adobe Illustrator 24.3.0, SVG Export Plug-In . SVG Version: 6.00 Build 0)  -->
<svg version="1.1" id="Слой_1" xmlns="http://www.w3.org/2000/svg" xmlns:xlink="http://www.w3.org/1999/xlink" x="0px" y="0px"
	 viewBox="0 0 184.88 219.53" style="enable-background:new 0 0 184.88 219.53;" xml:space="preserve">
<style type="text/css">
	.st0{fill:#00707F;}
	.st1{fill:#FFFFFF;}
</style>
<g>
	<g>
		<g>
			<path class="st0" d="M104.54,85.63c0-3.64,1.35-6.96,3.56-9.5H60.83c5.83,8.27,1.74,19.38-7.55,22.27
				c2.19,4.54,5.38,8.51,9.18,11.65c12.77-10.35,30.91-10.19,43.36,0c3.55-2.88,6.53-6.54,8.69-10.64
				C108.73,97.5,104.54,92.06,104.54,85.63z"/>
			<path class="st1" d="M62.47,110.5c-4.16-3.01-7.4-7.39-9.63-12.03c-0.38-0.58,3.05-1.41,3.27-1.82
				c6.86-3.94,8.98-12.95,4.83-19.54c-1.45-1.88,0.43-1.39,0.46-1.46c53.32,0.23,47.82-0.93,46.26,1.76
				c-3.65,5-3.46,11.75,0.03,16.49c5.85,7.4,9.29,2.75,5.85,8.09c-1.91,3-5.34,7.18-7.79,8.5C92.58,100.11,75.55,100.33,62.47,110.5
				z M84.18,101.88c7.98,0,15.45,2.61,21.65,7.56c3.26-2.71,5.96-6,8.03-9.79c-9.56-3.56-12.72-15.17-6.72-23.08H61.69
				c5.15,8.26,1.25,18.97-7.76,22.08c2.14,4.19,5,7.79,8.54,10.78C68.73,104.5,76.22,101.88,84.18,101.88z"/>
		</g>
		<g>
			<path class="st0" d="M63.52,84.53c0-3.14-1-6.03-2.7-8.4H50.74c-1.78,7.82-0.66,15.45,2.54,22.27
				C59.21,96.57,63.52,91.05,63.52,84.53z"/>
			<path class="st1" d="M53.28,98.85c-3.84-5.35-4.82-17.07-2.83-23.09c0.58-0.26,0.41-0.03,1.29-0.1c2.32,0,7.93,0,8.93,0
				c0.6-0.27,1.78,2.23,2.26,3.37C66.18,87.23,61.67,96.46,53.28,98.85z M51.11,76.59c-1.55,7.14-0.67,14.75,2.45,21.23c0,0,0,0,0,0
				c8.94-3.05,12.22-13.69,7.03-21.23H51.11z"/>
		</g>
		<g>
			<path class="st0" d="M118.46,83.52c0-2.53-0.3-5.05-0.84-7.4h-9.51c-6.9,8.04-3.28,20.05,6.42,23.28
				C117.06,94.63,118.46,89.23,118.46,83.52z"/>
			<path class="st1" d="M114.52,99.86c-8.84-2.71-12.87-12.8-8.92-20.8c0.62-1.22,2.03-3.61,2.66-3.4c1.18,0,8.54,0,9.29,0
				c0.77-0.16,0.83,2.33,1.06,3.36c0.88,6.47-0.13,13.12-2.86,18.92C115.37,98.57,115.13,99.77,114.52,99.86z M108.31,76.59
				c-6.36,7.63-3.14,18.96,5.98,22.25c3.5-6.72,4.59-14.77,2.95-22.25H108.31z"/>
		</g>
	</g>
	<g>
		<g id="XMLID_57_">
			<g>
				<g>
					<path class="st0" d="M114.37,204.52c-8,0-14.49,6.49-14.49,14.49h28.99C128.86,211.02,122.37,204.52,114.37,204.52z
						 M99.99,160.38c14.99-0.01,23.03-17.02,13.83-28.45c14.76-5.94,14.97-26.1,0.66-32.48c-2.17,4.09-5.11,7.7-8.66,10.58
						c-12.72-10.39-30.87-10.14-43.36,0c-3.79-3.13-6.92-7.04-9.14-11.55c-16.93,4.32-18.23,27.02-2.28,33.44
						c-9.19,11.76-0.88,28.43,13.89,28.45c-0.31,8.12,5.43,15.15,12.88,17.19C89.34,180.63,100.14,171.88,99.99,160.38z
						 M53.45,204.52c-8,0-14.49,6.49-14.49,14.49h28.99C67.94,211.02,61.44,204.52,53.45,204.52z"/>
					<path class="st1" d="M128.86,219.48H99.87c-0.25,0-0.46-0.21-0.46-0.46c0-8.25,6.71-14.96,14.95-14.96
						c8.25,0,14.95,6.71,14.95,14.96C129.32,219.27,129.12,219.48,128.86,219.48z M100.34,218.56h28.05
						c-0.24-7.52-6.44-13.57-14.02-13.57C106.78,204.98,100.59,211.03,100.34,218.56z M67.94,219.48H38.95
						c-0.25,0-0.46-0.21-0.46-0.46c0-8.25,6.71-14.96,14.95-14.96c8.25,0,14.96,6.71,14.96,14.96
						C68.4,219.27,68.19,219.48,67.94,219.48z M39.42,218.56h28.05c-0.24-7.52-6.44-13.57-14.03-13.57
						C45.86,204.98,39.67,211.03,39.42,218.56z M82.43,178.64c-9.86,0-17.9-7.97-18.02-17.8c-14.75-0.41-22.78-16.94-14.1-28.7
						c-12.44-5.44-14.66-21.55-4.81-30.16c1.53-1.44,6.04-4.07,8.11-3.84c2.28,4.3,5.08,8.2,8.86,11.32
						c12.71-10.13,30.87-10.05,43.35,0c3.29-2.73,6.05-6.11,8.12-9.95c0.13-0.23,0.18-0.43,0.5-0.5
						c14.86,6.09,14.59,26.89,0.12,33.13c8.91,11.95,0.41,28.39-14.11,28.71C100.34,170.68,92.3,178.64,82.43,178.64z M53.08,99.03
						c-16.42,4.63-17.15,26.24-1.63,32.68c0.28,0.57-1.28,1.99-1.37,2.45c-6.64,11.19,1.11,25.05,13.84,25.73
						c0.6,0.07,1.74-0.21,1.43,0.75c-0.01,6.04,3.19,11.42,7.98,14.44c12,7.28,26.22-1.32,26.31-14.99c0.38-0.37,0.96-0.09,1.52-0.2
						c12.05-0.71,19.5-13.3,14.59-24c-4.08-7.46-2.9-1.38,4.36-8.8c7.84-8.61,5.06-22.15-5.41-27.04c-2.25,4.02-5.13,7.75-8.8,10.45
						c-7.34-5.17-13.15-7.71-22.14-7.69c-7.11,0.09-13.66,2.28-19.4,6.38c-2.26,1.72-1.66,1.67-3.58-0.01
						C57.58,106.26,55.03,102.89,53.08,99.03z"/>
				</g>
				<g>
					<g>
						<polygon class="st0" points="175.05,85.57 175.05,79.12 165.97,88.2 165.97,113.05 165.97,114.6 175.05,105.52 						"/>
						<path class="st1" d="M165.97,115.06c-0.84,0.16-0.33-2.81-0.46-6c0-7.64,0-20.49,0-20.86c0.02,0.11-0.01-0.23,0.14-0.33
							c0.08-0.08,7.04-7.04,8.72-8.72c0.26-0.2,0.49-0.77,1.04-0.33c0.25,0.49,0.05,0.22,0.11,0.45c0,1.15,0,8.41,0,15.02
							c-0.09,6.3,0.19,11.19-0.14,11.55c-0.08,0.08-6.42,6.42-8.46,8.46C166.28,114.84,166.62,114.83,165.97,115.06z M166.43,88.39
							v25.1l8.16-8.16v-25.1L166.43,88.39z M175.05,105.52L175.05,105.52L175.05,105.52z"/>
					</g>
					<g>
						<path class="st0" d="M175.05,31.62c-0.1-4.75-6.44-5.84-8.54-2.09c-0.78,1.48-0.49,2.45-0.55,2.53c0,3.26,0,23.63,0,23.64
							l9.08-9.08V31.62z"/>
						<path class="st1" d="M165.97,56.16c-0.69-0.14-0.4-0.76-0.46-0.75c0-1.63,0-9.69,0-16c0.14-6.07-0.57-8.94,1.07-10.81
							c2.39-2.95,7.38-2.09,8.62,1.34c0.65,1.59,0.17,9.8,0.31,15.26c-0.02,2.1,0.31,1.23-1.61,3.21c-2.07,2.07-5.74,5.74-7.09,7.09
							C166.25,55.97,166.62,55.92,165.97,56.16z M170.3,27.75c-2.13,0-3.87,1.74-3.87,3.87v22.96l8.16-8.16c0,0,0-13.92,0-14.76
							C174.64,29.71,172.96,27.61,170.3,27.75z M175.05,46.61L175.05,46.61L175.05,46.61z"/>
					</g>
					<g>
						<path class="st0" d="M175.05,46.61l-9.08,9.08c0,1.94,0,31.49,0,32.51l9.08-9.08V46.61z"/>
						<path class="st1" d="M165.97,88.66c-0.7-0.13-0.4-0.82-0.46-0.86c0-3.64,0-31.2,0-32.09c0.02,0.05-0.05-0.12,0.14-0.35
							c0.08-0.08,7.12-7.12,8.75-8.75c0.26-0.21,0.46-0.72,1.01-0.31c0.25,0.53,0.05,0.2,0.11,0.49c0,1.55,0,12.2,0,20.87
							c-0.09,6.67,0.19,11.33-0.14,11.77c-0.08,0.07-6.42,6.42-8.46,8.46C166.29,88.44,166.62,88.43,165.97,88.66z M166.43,55.89
							v31.2l8.16-8.16v-31.2L166.43,55.89z"/>
					</g>
					<g>
						<path class="st0" d="M165.97,134.82c0.17,4.94,6.77,5.85,8.69,1.77c0.72-2.1,0.27-1.74,0.39-2.95c0-10.85,0-21.92,0-28.12
							l-9.08,9.08C165.97,119.35,165.97,130,165.97,134.82z"/>
						<path class="st1" d="M170.66,139.61h-0.36c-2.6,0-4.79-2.19-4.79-4.79V114.6c0-0.12,0.05-0.24,0.14-0.33l9.08-9.08
							c0.13-0.13,0.33-0.17,0.5-0.1c0.17,0.07,0.28,0.24,0.28,0.43v29.3C175.51,137.42,173.29,139.61,170.66,139.61z M166.43,114.79
							c0,0,0,17.88,0,19.85c-0.12,3.75,4.68,5.54,7.26,2.6c1.23-1.55,0.82-2.91,0.9-2.94c0-3.82,0-27.67,0-27.68L166.43,114.79z"/>
					</g>
				</g>
				<g>
					<path class="st0" d="M134.39,67.1c-27.39,0-70.84,0-101.89,0c-1.25,0-4.11-0.34-5.37,2.98c-0.58,1.84-0.05,4,1.42,5.11
						c1.77,1.54,5.18,0.76,10.56,0.94c18.4,0,20.78,0,53.51,0c25.4,0,19.18,0,40.75,0c1.11-0.06,0.63,0.16,2.27-0.18
						C140.51,74.42,139.5,67.17,134.39,67.1z"/>
					<path class="st1" d="M134.39,76.59H31.25c-2.64,0-4.79-2.15-4.79-4.79v-0.36c0-2.64,2.15-4.79,4.79-4.79h103.14
						c2.68,0,4.85,2.15,4.85,4.79v0.36C139.24,74.44,137.07,76.59,134.39,76.59z M31.25,67.56c-3.46,0.04-4.87,3.95-3.16,6.46
						c1.87,2.35,4.01,1.46,4.23,1.64c11.2,0,101.97,0,102.19,0c2.3-0.06,3.96-2.01,3.81-4.23c-0.21-3.76-3.84-3.94-4.05-3.87
						C130.3,67.56,31.28,67.56,31.25,67.56z"/>
				</g>
				<g>
					<path class="st0" d="M165.97,85.15v-0.3l-27.06,8.84l-6.98,26.34l8.78,30.79l25.26-28.15v-9.62
						C151.77,108.7,151.99,89.36,165.97,85.15z M27.89,112.63L1.85,143.54c3.11,1.88,18.33,10.79,21.77,12.81
						c1.41-5.08,8.27-29.14,9.84-34.68L28.45,112L27.89,112.63z"/>
					<path class="st1" d="M23.62,156.81c-0.2-0.08-0.25-0.04-0.25-0.07c-0.47-0.28-12.35-7.27-18.36-10.8
						c-2.93-1.84-4.22-2.02-3.37-2.88c2.1-2.49,24.9-29.55,25.86-30.69c0.02,0.08,0.83-1.41,1.37-0.57c0.24,0.47,4.85,9.36,5,9.65
						c-0.01,0,0.03-0.01,0.06,0.23c-0.05,0.32-0.06,0.25-0.22,0.82c-1.31,4.62-8.59,30.26-9.54,33.61
						C24.05,156.26,24.21,156.7,23.62,156.81z M2.55,143.42c2.77,1.68,17.68,10.41,20.79,12.23c1.29-4.65,8.17-28.79,9.63-33.93
						l-4.62-8.92C28.25,112.9,2.65,143.31,2.55,143.42z M140.71,151.28c-0.58-0.09-0.48-0.67-0.57-0.77
						c-1-3.49-7.7-27.01-8.57-30.04c-0.08-0.41-0.11-0.08-0.09-0.57c0.13-0.48,6.1-23.05,6.89-26.01c0.05-0.35,0.25-0.67,0.55-0.69
						c1.19-0.39,8.77-2.87,15.6-5.09c10.58-3.27,12.09-4.56,11.91-2.96c-0.12,0.69-1.28,0.6-1.82,0.96
						c-11.77,5.04-11.55,21.09,0,25.99c1.4,0.59,1.94,0.39,1.82,1.29c-0.09,3.1,0.2,10.02-0.18,9.67
						c-1.41,1.57-24.46,27.25-25.18,28.05C141.02,151.1,141.2,151.14,140.71,151.28z M132.41,120.02l8.52,29.87l24.58-27.39v-9.1
						c-12.09-3.94-14.26-19.39-4.16-26.56l-22.06,7.21L132.41,120.02z"/>
				</g>
				<g>
					<path class="st0" d="M175.05,85.57v27.06C187.65,107.67,187.43,90.37,175.05,85.57z"/>
					<path class="st1" d="M175.05,113.09c-0.65-0.07-0.43-0.85-0.46-0.95c0-3.61,0-25.82,0-26.55c0.02-1.54,4.31,1.51,5,2.12
						C188.38,95.19,185.78,109.24,175.05,113.09z M175.51,86.25v25.7C186.88,106.84,186.66,91.2,175.51,86.25z"/>
				</g>
				<g>
					<path class="st0" d="M155.38,99.1c0,6.62,4.45,12.21,10.58,13.95V85.15C159.83,86.89,155.38,92.48,155.38,99.1z"/>
					<path class="st1" d="M165.97,113.51c-12.18-3.47-14.83-18.85-5.12-26.31c1.06-0.87,5.68-3.5,5.58-2.02c0,0.99,0,23.92,0,27.43
						C166.37,112.83,166.65,113.37,165.97,113.51z M165.51,85.77c-12.97,4.61-12.74,22.2,0,26.66V85.77z"/>
				</g>
				<g>
					<path class="st0" d="M0.46,158.22c-0.01,9.76,9.55,16.73,18.64,13.83l4.51-15.7L6.6,146.37
						C2.87,149.01,0.46,153.34,0.46,158.22z"/>
					<path class="st1" d="M14.96,173.17C6.71,173.17,0,166.46,0,158.22c0-4.84,2.37-9.41,6.33-12.22c0.15-0.11,0.34-0.11,0.5-0.02
						l17.02,9.98c0.18,0.11,0.27,0.32,0.21,0.53l-4.51,15.7c-0.04,0.15-0.15,0.26-0.3,0.31C17.91,172.93,16.42,173.17,14.96,173.17z
						 M6.62,146.92c-12.49,9.78-2.72,28.75,12.11,24.77l4.34-15.12L6.62,146.92z"/>
				</g>
			</g>
		</g>
	</g>
	<g>
		<path class="st0" d="M77.31,89.14c-2.07,5.71-10.15,3.08-8.66-2.59C70.71,80.83,78.71,83.47,77.31,89.14z"/>
		<path class="st1" d="M72.99,92.8c-6.79-0.37-6.46-9.58-0.11-9.9C79.68,83.15,79.46,92.57,72.99,92.8z M72.96,83.82
			c-5.5,0.31-5.23,7.88,0.01,8.06C78.53,91.6,78.16,83.99,72.96,83.82z M77.31,89.14L77.31,89.14L77.31,89.14z"/>
	</g>
	<g>
		<path class="st0" d="M100.32,89.14c-2.07,5.71-10.15,3.08-8.66-2.59C93.73,80.83,101.73,83.47,100.32,89.14z"/>
		<path class="st1" d="M96.01,92.8c-6.79-0.37-6.46-9.59-0.11-9.9C102.7,83.15,102.48,92.57,96.01,92.8z M95.98,83.82
			c-5.5,0.31-5.23,7.88,0.01,8.06C101.55,91.6,101.17,83.99,95.98,83.82z M100.32,89.14L100.32,89.14L100.32,89.14z"/>
	</g>
	<g>
		<path class="st0" d="M90.77,104.79c-3.2,8.92-15.93,5.03-13.74-3.98C80.12,91.69,93,95.65,90.77,104.79z"/>
		<path class="st1" d="M83.94,110.31c-10.35-0.54-9.92-14.71-0.1-15.14C94.11,95.65,93.87,109.92,83.94,110.31z M83.89,96.1
			c-9.01,0.48-8.72,12.99,0.05,13.29C93.02,108.88,92.51,96.42,83.89,96.1z M90.77,104.79L90.77,104.79L90.77,104.79z"/>
	</g>
	<g>
		<g>
			<path class="st0" d="M115.1,7.73c10.21-2.54,20.47-2.42,30.06-0.22c-44.68-22.36-95.27,11.3-93.34,59.6h14.6
				C67.68,39.45,86.85,14.75,115.1,7.73z"/>
			<path class="st1" d="M66.42,67.56c0,0-13.59,0-14.55,0c-0.93-0.12-0.49-1.75-0.63-3.4c0.43-42.27,40.1-72.22,80.36-62.23
				c1.85,0.28,14.76,4.69,13.99,5.73c-0.28,0.59-0.96,0.13-1.52,0.07c-9.75-2.08-19.34-1.92-28.86,0.44l0,0
				c-27.18,6.76-47.05,31-48.32,58.95C66.87,67.37,66.67,67.56,66.42,67.56z M52.25,66.64h13.73c1.48-28.17,21.57-52.55,49-59.36
				l0,0c8.74-2.17,17.66-2.5,26.57-0.97C98.01-12.53,50.79,20.34,52.25,66.64z"/>
		</g>
		<g>
			<path class="st0" d="M117.11,18.33c8.66-5.98,18.29-9.5,28.05-10.83c-40.08-9.07-76.83,20.14-78.74,59.6h23.11
				C90.75,48.17,100.29,29.96,117.11,18.33z"/>
			<path class="st1" d="M89.53,67.56H66.42c-0.13,0-0.25-0.05-0.33-0.14c-0.09-0.09-0.13-0.21-0.13-0.34
				c1.29-28.36,21.45-52.95,49.02-59.81c9.95-2.47,20.14-2.55,30.28-0.22c0.22,0.05,0.37,0.25,0.36,0.47
				c-0.01,0.22-0.18,0.41-0.4,0.44c-10.16,1.39-19.53,5-27.85,10.75l0,0c-16.14,11.15-26.12,28.8-27.38,48.42
				C89.98,67.38,89.78,67.56,89.53,67.56z M66.91,66.64h22.2c1.39-19.73,11.49-37.46,27.75-48.69l0,0
				c7.75-5.35,16.4-8.88,25.74-10.51C104.26,0.14,69.09,28.51,66.91,66.64z"/>
		</g>
		<g>
			<path class="st0" d="M89.53,67.1h26.76c-11.51-25.07,3.07-53.29,28.87-59.6C113.98,11.78,91.45,37.1,89.53,67.1z"/>
			<path class="st1" d="M116.29,67.56c0,0-24.91,0-26.66,0c-1.72,0.46,1.34-12.78,1.7-13.85c6.74-24.41,27.47-42.68,52.54-46.49
				c0.67-0.18,2.41-0.37,1.52,0.68c-2.45,0.68-4.98,1.41-7.26,2.46c-20.97,9.19-30.87,33.45-22.22,54.7
				C116.05,65.77,117.39,67.41,116.29,67.56z M90.03,66.64h25.55c-9.94-22.47,0.78-48.11,22.75-57.37
				C111.27,15.98,91.94,39.21,90.03,66.64z"/>
		</g>
	</g>
	<g>
		<g>
			<path class="st0" d="M154.45,199.07c-8.4,5.52-17.47,10.11-27.08,13.59c0.94,1.92,1.49,4.08,1.49,6.36h26.96
				c2.16,0,3.73-2.07,3.13-4.15L154.45,199.07z M10.07,219.02h28.88c0-2.06,0.44-4.01,1.21-5.78c-10.22-3.55-19.85-8.33-28.73-14.18
				l-4.49,15.81C6.34,216.95,7.9,219.02,10.07,219.02z"/>
			<path class="st1" d="M155.82,219.48c0,0-15.77,0-23.19,0c-7.1,0.15-2.48,0.18-5.53-6.34c-0.12-0.28-0.31-0.5-0.04-0.81
				c7.91-3.01,15.65-6.53,22.91-10.97c1.56-0.69,4.87-3.76,4.97-2.27c0.44,1.53,4.33,15.21,4.46,15.65
				C160.07,216.93,158.41,219.47,155.82,219.48z M129.31,218.56h26.5c0.89,0,1.7-0.41,2.23-1.11c0.53-0.71,0.7-1.6,0.46-2.45
				l-4.33-15.2c-8.22,5.35-17.02,9.76-26.17,13.12C128.82,214.72,129.26,216.61,129.31,218.56z M38.95,219.48
				c-0.01,0-28.02,0-28.87,0c-0.06-0.01,0.12,0.01-0.28-0.01c-5.3-1.02-3-5.59-2.38-8.04c1.28-4.51,3.42-12.05,3.55-12.47
				c0.26-0.91,1.46,0.3,2.18,0.68c6.44,4.11,13.12,7.58,20.13,10.49c10.85,4.57,6.48,0.5,6.13,8.58
				C39.45,219.05,39.38,219.45,38.95,219.48z M11.7,199.79c-4.1,14.99-5.28,16.16-3.7,17.85c1.57,1.43,2.37,0.76,2.65,0.92
				c4.05,0,27.84,0,27.85,0c0.05-1.74,0.4-3.43,1.05-5.05C29.77,210.07,20.41,205.46,11.7,199.79z"/>
		</g>
		<g>
			<path class="st0" d="M82.94,183.78c-23.2,0-44.41-8.45-60.77-22.42c-2.04,7.03-8.65,30.3-10.75,37.7
				c8.88,5.84,18.52,10.63,28.73,14.18c6.66-14.33,27.42-9.94,27.78,5.78h31.94c0.4-15.62,20.6-19.9,27.5-6.36
				c9.6-3.48,18.68-8.06,27.08-13.59l-10.74-37.71C127.35,175.33,106.14,183.78,82.94,183.78z"/>
			<path class="st1" d="M99.87,219.48c-38.26-0.22-31.66,0.93-32.47-1.88c-0.57-5.66-4.48-10.29-9.73-11.96
				c-5.84-1.86-12.08,0.37-15.5,5.02c-2.51,3.48-0.65,3.58-4.75,2.09c-8.88-3.3-17.34-7.54-25.31-12.68
				c-0.38-0.29-0.79-0.41-1.1-0.79c-0.11-0.47-0.01-0.33-0.02-0.39c1.98-6.95,7.7-27.14,9.44-33.16c0.66-2.28,1.25-4.34,1.29-4.49
				c0.44-1.06,1.76,0.81,2.53,1.26c1.75,1.42,3.43,2.68,5.28,3.98c26.48,18.56,60.37,21.76,89.28,9.64
				c27.76-12.25,23.95-20.17,26.3-11.49c2.7,9.74,9.81,34.02,9.78,34.54c-7.9,5.73-17.01,9.89-26.06,13.43
				c-2.28,1.03-1.66,0.22-2.74-1.26c-7.36-10.97-23.78-6.93-25.64,5.79C100.25,217.77,100.63,219.48,99.87,219.48z M68.39,218.56
				h31.03c0.8-15.5,20.88-19.95,28.18-6.47c9.21-3.37,18.06-7.82,26.32-13.22l-10.45-36.69c-35.39,29.63-86.23,29.19-121.04,0
				c-1.92,6.61-8.47,29.69-10.46,36.69c8.73,5.71,18.13,10.35,27.95,13.8C47.02,198.42,67.61,202.93,68.39,218.56z"/>
		</g>
		<g>
			<path class="st0" d="M143.71,161.36c-1.99-6.99-9.18-32.22-11.3-39.63c-4.06,6.34-9.3,11.84-15.42,16.2
				c3.38,11.36-5.35,22.55-17.01,22.45c0.14,10.48-8.85,18.8-19.42,17.7c-8.83-0.89-15.98-8.69-15.64-17.7
				c-12.12,0.1-20.62-11.76-16.83-23.01c-8.7-6.43-14.64-15.76-14.64-15.76c-2.55,8.93-8.82,31.15-11.28,39.75
				C57.53,191.52,109.03,191,143.71,161.36z"/>
			<path class="st1" d="M82.94,184.24c-22.21,0-43.85-7.92-60.81-22.31c-0.72-0.52-0.29-0.87-0.28-1.12
				c11.93-41.4,10.9-40.62,12.12-39.25c0.9,1.36,6.55,9.65,14.4,15.45c0.48,0.55-0.29,1.52-0.32,2.22
				c-2.34,10.54,5.68,20.43,16.27,20.69c0.53-0.02,1.28-0.01,1.01,0.73c-0.01,8.82,6.77,16.15,15.42,16.99
				c9.83,0.97,18.3-6.58,18.76-16.17c0.03-1.52-0.13-1.59,1.37-1.56c4.26-0.18,7.99-1.86,10.91-4.54
				c9.32-9.29,3.53-17.89,5.18-17.97c4.27-3.08,7.93-6.55,11.2-10.56c3.55-4.06,4.26-7.72,5.04-4c1.95,6.88,10.94,38.29,10.97,38.51
				C127.64,176.36,105.23,184.11,82.94,184.24z M22.7,161.2c35.15,29.7,85.91,29.26,120.48,0l-10.94-38.37
				c-3.96,5.96-8.9,11.09-14.71,15.28c3.17,11.41-5.47,22.53-17.08,22.72c-0.12,9.84-8.16,17.8-18.02,17.8
				c-9.86,0-17.9-7.97-18.02-17.8c-12.03-0.24-20.42-11.99-16.85-23.29c-7.02-5.27-12.26-12.43-13.93-14.85L22.7,161.2z"/>
		</g>
		<g>
			<path class="st0" d="M53.32,98.5c-0.06-0.12-0.12-0.3-0.18-0.48c-6.83-0.25-12.92,1.78-17.89,6.25
				c-1.78,1.53-5.27,5.98-6.81,7.73c4.09,10.18,10.95,18.95,19.65,25.38c0.67-1.99,1.68-3.82,2.94-5.44
				C34.88,125.35,36.62,102.69,53.32,98.5z M138.9,93.69l-13.23,4.33h-10.46c-0.24,0.54-0.48,1.02-0.72,1.44
				c14.53,6.53,13.87,26.69-0.66,32.48c1.42,1.77,2.51,3.79,3.17,6c6.11-4.36,11.36-9.86,15.42-16.2L138.9,93.69z"/>
			<path class="st1" d="M117,138.4c-0.32-0.02-0.49-0.34-0.57-0.75c-2.49-7.02-5.03-4.99-0.76-7.07c11-6.11,11.96-21.09,2.23-28.59
				c-2.55-2.13-4.63-1.75-3.56-3.22c0.29-0.54,0.49-1.26,0.88-1.21c0.33,0,10.38,0,10.38,0c0,0,10.66-3.49,12.79-4.19
				c0.51-0.25,1.09-0.12,0.94,0.5c-0.36,1.56-6.28,27.16-6.47,27.96C129.39,127.51,123.28,134.35,117,138.4z M114.56,132.13
				c1.16,1.56,2.06,3.25,2.68,5.06c5.86-4.27,10.82-9.53,14.74-15.64l6.29-27.17c0,0-12.33,4.03-12.45,4.08
				c-0.16,0.07-10.06,0-10.31,0.02c-0.13,0.27-0.25,0.53-0.38,0.76C129.36,106.1,128.77,125.88,114.56,132.13z M48.1,137.84
				c-8.84-6.13-15.57-15.05-19.77-24.91c-0.37-0.81-0.44-1.1-0.12-1.37c5.89-7.12,8.59-10.5,16.01-12.91
				c1.24-0.6,9.2-1.73,9.36-0.77c0.79,1.35-1.08,1.15-1.88,1.57c-11.55,4.03-15.1,18.33-7.18,27.38c3.62,4.22,7.22,4.33,6.97,5.2
				c-1.11,1.67-2.24,3.31-2.86,5.22C48.52,137.52,48.51,137.8,48.1,137.84z M28.98,112.08c3.97,9.73,10.49,18.21,18.89,24.55
				c0.6-1.59,1.42-3.1,2.43-4.49c-15.35-6.84-14.28-28.35,1.37-33.66C39.01,98.78,34.55,105.47,28.98,112.08z"/>
		</g>
	</g>
	<g>
		<path class="st0" d="M35.91,180c-14.34-3.61-20.07,16.51-6.31,21.06c5.32,1.7,11.06-1.04,13.33-6.01
			C45.61,188.93,42.24,181.87,35.91,180z M37.12,191.84c-2.07,5.71-10.15,3.08-8.66-2.59C30.53,183.54,38.53,186.17,37.12,191.84z"
			/>
		<path class="st1" d="M32.85,202.03c-15.69-0.79-15.1-22.38-0.06-22.95C48.22,179.88,47.93,201.4,32.85,202.03z M32.77,180
			c-13.3,0.55-14.35,18.89-1.35,21c13.21,1.23,16.61-16.51,4.35-20.56l0,0C34.78,180.14,33.77,180,32.77,180z M32.81,195.5
			c-6.79-0.37-6.46-9.59-0.12-9.9C39.49,185.85,39.28,195.28,32.81,195.5z M32.78,186.52c-5.5,0.31-5.23,7.88,0.01,8.06
			C38.35,194.3,37.97,186.7,32.78,186.52z M37.12,191.84L37.12,191.84L37.12,191.84z"/>
	</g>
	<g>
		<path class="st0" d="M136.32,180c-14.34-3.61-20.07,16.51-6.31,21.06c5.32,1.7,11.06-1.04,13.33-6.01
			C146.03,188.93,142.65,181.87,136.32,180z M137.54,191.84c-2.07,5.71-10.15,3.08-8.66-2.59
			C130.94,183.54,138.94,186.17,137.54,191.84z"/>
		<path class="st1" d="M133.26,202.03c-15.69-0.79-15.1-22.38-0.06-22.95C148.63,179.88,148.34,201.4,133.26,202.03z M133.19,180
			c-13.3,0.55-14.35,18.89-1.35,21.01c13.21,1.23,16.61-16.51,4.35-20.56l0,0C135.19,180.14,134.18,180,133.19,180z M133.22,195.5
			c-6.79-0.37-6.46-9.59-0.12-9.9C139.91,185.86,139.69,195.27,133.22,195.5z M133.19,186.52c-5.5,0.31-5.23,7.88,0.01,8.06
			C138.77,194.3,138.39,186.7,133.19,186.52z M137.54,191.84L137.54,191.84L137.54,191.84z"/>
	</g>
	<g>
		<path class="st0" d="M86.07,191.3c-14.34-3.61-20.07,16.51-6.31,21.06c5.32,1.7,11.06-1.04,13.33-6.01
			C95.77,200.22,92.4,193.16,86.07,191.3z M87.28,203.14c-2.07,5.71-10.15,3.08-8.66-2.59C80.69,194.83,88.68,197.47,87.28,203.14z"
			/>
		<path class="st1" d="M83.01,213.33c-15.69-0.79-15.1-22.38-0.06-22.95C98.37,191.18,98.09,212.7,83.01,213.33z M82.93,191.3
			c-13.3,0.55-14.35,18.89-1.35,21c13.21,1.23,16.61-16.51,4.36-20.56l0,0C84.94,191.44,83.93,191.3,82.93,191.3z M82.97,206.8
			c-6.79-0.37-6.46-9.59-0.12-9.9C89.65,197.15,89.44,206.57,82.97,206.8z M82.94,197.82c-5.5,0.31-5.23,7.88,0.01,8.06
			C88.51,205.59,88.13,197.99,82.94,197.82z M87.28,203.14L87.28,203.14L87.28,203.14z"/>
	</g>
</g>
</svg>
