<?xml version="1.0" encoding="utf-8"?>
<!-- Generator: Adobe Illustrator 24.3.0, SVG Export Plug-In . SVG Version: 6.00 Build 0)  -->
<svg version="1.1" id="Слой_1" xmlns="http://www.w3.org/2000/svg" xmlns:xlink="http://www.w3.org/1999/xlink" x="0px" y="0px"
	 viewBox="0 0 146.39 118.39" style="enable-background:new 0 0 146.39 118.39;" xml:space="preserve">
<style type="text/css">
	.st0{fill:#00707F;}
	.st1{fill:#FFFFFF;}
</style>
<g>
	<g>
		<path class="st0" d="M76.04,117.53c-14.39,0-28.5-4.85-39.71-13.65c-12.22,8.4-35.52,11.23-35.75,11.26
			c0.27-0.04,3.65-27.93,14.03-38.3c3.28-3.28,7.63-5.09,12.25-5.09c4.62,0,8.97,1.81,12.26,5.09c1.87,1.87,3.31,4.21,4.16,6.75
			c0.08,0,0.16,0,0.23,0c0.94,0,1.62-0.1,2.29-0.24l0.4-0.08l-6.77-6.73L29.21,66.33c-1.49-1.49-2.3-3.46-2.3-5.56
			c0-2.08,0.82-4.02,2.3-5.48l26.98-26.98C67.8,16.7,83.26,10.31,99.71,10.31c1.94,0,3.9,0.09,5.83,0.28
			c0.56,7.69-0.19,15.58-2.43,23.25l0.41,0.13c0.9-2.59,1.68-5.42,2.32-8.41c1.6-7.68,8.15-11.12,13.93-11.12
			c3.35,0,6.56,1.14,9.06,3.2l0.76-0.56l15.99-15.96c-0.39,10.12-3.28,21.05-8.38,31.66c8.04,24.72,1.1,50.82-18.13,68.27
			C107.22,111.68,91.94,117.53,76.04,117.53C76.04,117.53,76.04,117.53,76.04,117.53z"/>
		<path class="st1" d="M76.05,118.11L76.05,118.11c-14.39,0-28.48-4.8-39.74-13.51c-12.29,8.21-34.7,11.01-35.65,11.12
			c-0.34,0.05-0.6-0.18-0.64-0.49c-0.02-0.12,0.01-0.24,0.06-0.34c0.05-0.19,0.16-0.84,0.29-1.58C3.6,94.78,8.26,82.37,14.2,76.44
			c3.39-3.39,7.88-5.26,12.66-5.26c3.03,0,5.95,0.75,8.55,2.17l-6.6-6.61c-1.6-1.6-2.47-3.72-2.47-5.97c0-2.23,0.88-4.32,2.47-5.89
			l26.98-26.98C67.5,16.18,83.1,9.73,99.71,9.73c1.96,0,3.94,0.09,5.88,0.28c0.28,0.03,0.5,0.25,0.52,0.53
			c0.32,4.34,0.22,8.65-0.29,12.9c2.3-6.6,8.46-9.58,13.94-9.58c3.32,0,6.53,1.08,9.07,3.05l0.4-0.29l15.93-15.9
			c0.17-0.17,0.43-0.21,0.64-0.12c0.22,0.09,0.35,0.31,0.35,0.55c-0.39,10.12-3.27,21.07-8.34,31.68
			c7.99,24.83,0.96,51.12-18.36,68.66C107.5,112.2,92.08,118.11,76.05,118.11z M36.33,103.3c0.13,0,0.25,0.04,0.36,0.12
			c11.11,8.72,25.09,13.53,39.35,13.53h0.01c15.75,0,30.89-5.8,42.64-16.34c19.03-17.27,25.92-43.2,17.97-67.66
			c-0.05-0.14-0.04-0.3,0.03-0.43c4.81-10.01,7.65-20.33,8.25-29.94L130,17.48l-0.82,0.61c-0.21,0.16-0.51,0.15-0.71-0.02
			c-2.4-1.98-5.48-3.06-8.69-3.06c-5.54,0-11.82,3.3-13.36,10.66c-0.64,3-1.43,5.85-2.34,8.48c-0.1,0.3-0.43,0.45-0.72,0.36
			l-0.41-0.13c-0.3-0.09-0.47-0.41-0.38-0.71c2.13-7.27,2.95-14.86,2.44-22.56c-1.75-0.15-3.53-0.23-5.29-0.23
			c-16.3,0-31.61,6.34-43.11,17.84L29.62,55.71c-1.37,1.35-2.12,3.15-2.13,5.07c-0.01,1.94,0.75,3.77,2.13,5.15L46.6,82.87
			c0.15,0.15,0.21,0.37,0.15,0.58c-0.06,0.2-0.23,0.36-0.44,0.4l-0.4,0.08c-0.74,0.15-1.44,0.25-2.4,0.25
			c-0.25,0-0.71-0.16-0.78-0.4c-0.81-2.45-2.2-4.71-4.02-6.52c-3.17-3.17-7.38-4.92-11.85-4.92s-8.68,1.75-11.84,4.92
			C9.25,83.02,4.7,95.22,1.5,113.5c-0.07,0.39-0.12,0.7-0.17,0.96c4.28-0.59,23.83-3.6,34.68-11.06
			C36.1,103.34,36.21,103.3,36.33,103.3z M42.53,80.45c0.45,0.82,0.84,1.68,1.16,2.56c0.5-0.01,0.92-0.05,1.32-0.11L42.53,80.45z"/>
	</g>
	<g>
		<path class="st0" d="M125.16,60.99c-21.31,0-38.58-17.27-38.58-38.58c0-3.89,0.59-7.63,1.66-11.17
			c-7.37,1.38-14.54,4.04-21.11,8.12c-0.05,1.02-0.15,2.02-0.15,3.05c0,32.13,26.05,58.18,58.18,58.18c3.34,0,6.6-0.35,9.79-0.89
			c3.19-7.03,5.01-14.44,5.52-21.89C135.77,59.85,130.6,60.99,125.16,60.99z"/>
		<path class="st1" d="M125.16,81.17c-32.4,0-58.76-26.36-58.76-58.76c0-0.72,0.05-1.42,0.09-2.12c0.02-0.32,0.05-0.64,0.06-0.96
			c0.01-0.19,0.11-0.36,0.27-0.46c6.42-3.99,13.59-6.74,21.3-8.19c0.19-0.04,0.4,0.03,0.54,0.18c0.13,0.15,0.18,0.36,0.12,0.55
			c-1.08,3.58-1.63,7.28-1.63,11c0,20.95,17.04,38,38,38c5.22,0,10.29-1.05,15.08-3.13c0.19-0.08,0.4-0.06,0.57,0.06
			c0.17,0.12,0.26,0.31,0.24,0.51c-0.53,7.67-2.41,15.11-5.57,22.09c-0.08,0.18-0.24,0.3-0.43,0.33
			C131.49,80.88,128.26,81.17,125.16,81.17z M67.7,19.7c-0.01,0.22-0.03,0.45-0.05,0.67c-0.05,0.68-0.09,1.35-0.09,2.04
			c0,31.76,25.84,57.6,57.6,57.6c2.94,0,6.02-0.27,9.38-0.83c2.9-6.49,4.68-13.37,5.28-20.47c-4.67,1.89-9.6,2.85-14.66,2.85
			c-21.59,0-39.15-17.56-39.15-39.15c0-3.52,0.47-7.02,1.42-10.42C80.3,13.44,73.67,16.03,67.7,19.7z"/>
	</g>
	<g>
		<path class="st0" d="M129.42,16.93l16.39-16.35c-0.3,10.24-3.15,21.32-8.42,32.29c-1.29-3.87-2.92-7.63-4.93-11.23
			c-0.95-1.71-2.12-3.11-3.49-4.17L129.42,16.93z"/>
		<path class="st1" d="M137.39,33.45c-0.01,0-0.02,0-0.04,0c-0.24-0.01-0.44-0.17-0.51-0.39c-1.3-3.9-2.95-7.65-4.89-11.13
			c-0.9-1.63-2.03-2.98-3.34-4c-0.13-0.1-0.21-0.24-0.22-0.4c-0.02-0.16,0.03-0.31,0.14-0.44l0.46-0.53
			c0.01-0.01,0.02-0.02,0.03-0.03l16.39-16.35c0.17-0.17,0.42-0.22,0.64-0.12c0.22,0.09,0.36,0.31,0.35,0.55
			c-0.31,10.38-3.24,21.63-8.48,32.52C137.82,33.32,137.61,33.45,137.39,33.45z M129.79,17.39c1.23,1.06,2.3,2.39,3.17,3.97
			c1.75,3.14,3.27,6.49,4.51,9.98c4.55-9.83,7.2-19.91,7.7-29.3L129.79,17.39z"/>
	</g>
	<g>
		<path class="st0" d="M125.96,21.23c2.97,0.89,4.61,3.94,3.79,6.91c-0.89,2.9-4.01,4.61-6.91,3.72c-2.97-0.82-4.68-3.94-3.79-6.91
			C119.94,22.05,122.99,20.34,125.96,21.23z"/>
		<path class="st1" d="M124.42,32.68c-0.59,0-1.18-0.09-1.75-0.26c-1.57-0.43-2.88-1.46-3.67-2.9c-0.8-1.45-0.98-3.13-0.5-4.73
			c0.99-3.23,4.42-5.07,7.63-4.1c3.25,0.97,5.09,4.32,4.18,7.62c-0.48,1.57-1.54,2.85-2.99,3.64
			C126.41,32.43,125.42,32.68,124.42,32.68z M124.38,21.57c-2.13,0-4.12,1.39-4.78,3.54c-0.39,1.29-0.24,2.65,0.41,3.83
			c0.64,1.17,1.7,2,2.98,2.35c1.26,0.39,2.6,0.25,3.78-0.39c1.18-0.64,2.04-1.68,2.42-2.94c0.73-2.67-0.76-5.4-3.41-6.19l0,0
			C125.33,21.64,124.85,21.57,124.38,21.57z"/>
	</g>
	<g>
		<path class="st0" d="M127.13,27.36c-0.45,1.48-2.05,2.35-3.53,1.9c-1.52-0.42-2.39-2.01-1.94-3.53c0.46-1.48,2.01-2.35,3.53-1.9
			C126.71,24.29,127.55,25.84,127.13,27.36z"/>
		<path class="st1" d="M124.41,29.96c-0.33,0-0.66-0.05-0.98-0.15c-0.86-0.24-1.59-0.81-2.04-1.61c-0.45-0.81-0.55-1.75-0.28-2.63
			c0.55-1.8,2.45-2.83,4.25-2.28c1.81,0.54,2.83,2.4,2.32,4.24c0,0.01,0,0.01,0,0.02c-0.27,0.86-0.85,1.58-1.66,2.01
			C125.52,29.82,124.96,29.96,124.41,29.96z M124.39,24.29c-0.97,0-1.87,0.63-2.17,1.61c-0.18,0.58-0.11,1.2,0.19,1.74
			c0.29,0.53,0.77,0.9,1.35,1.06c0.58,0.18,1.18,0.12,1.72-0.17c0.53-0.29,0.92-0.76,1.1-1.33c0.33-1.22-0.34-2.45-1.54-2.81
			C124.82,24.32,124.6,24.29,124.39,24.29z M127.13,27.36h0.01H127.13z"/>
	</g>
	<g>
		<path class="st0" d="M105.56,10.37c0.76,7.89,0,15.86-2.24,23.52c-0.11,0.46-0.3,0.91-0.46,1.37c-1.52,4.21-3.41,8.27-5.69,12.1
			c-5.69-2.01-11.8-3.11-18.14-3.11c-2.2,0-4.36,0.11-6.53,0.38L56.04,28.16C69.59,14.62,87.87,8.7,105.56,10.37z"/>
		<path class="st1" d="M97.17,47.94c-0.06,0-0.13-0.01-0.19-0.03c-5.78-2.04-11.82-3.08-17.94-3.08c-2.29,0-4.4,0.12-6.46,0.37
			c-0.18,0.03-0.36-0.04-0.48-0.17L55.63,28.57c-0.11-0.11-0.17-0.26-0.17-0.41c0-0.15,0.06-0.3,0.17-0.41
			C68.8,14.58,87.04,8.04,105.61,9.79c0.28,0.03,0.5,0.25,0.52,0.52c0.77,7.99,0.01,15.98-2.26,23.74c-0.07,0.3-0.19,0.62-0.31,0.93
			l-0.16,0.45c-1.55,4.3-3.48,8.41-5.74,12.22C97.56,47.84,97.37,47.94,97.17,47.94z M79.03,43.67c6.1,0,12.11,1.01,17.88,2.99
			c2.12-3.63,3.94-7.53,5.4-11.6l0.17-0.47c0.1-0.28,0.2-0.56,0.28-0.85c2.18-7.48,2.95-15.16,2.27-22.85
			c-17.87-1.54-35.39,4.72-48.17,17.27l15.86,15.86C74.73,43.79,76.8,43.67,79.03,43.67z"/>
	</g>
	<g>
		<path class="st0" d="M105.56,10.37c-2.41,14.45-9.09,25.08-17.47,34.65c3.12,0.53,6.16,1.31,9.08,2.34
			c2.28-3.83,4.17-7.89,5.69-12.1c0.15-0.45,0.34-0.91,0.45-1.37C105.56,26.23,106.31,18.26,105.56,10.37z M71.9,44.02
			c4.22-4.22,27.61-27.61,33.66-33.66C87.06,13.46,74.82,23.5,63.07,35.19L71.9,44.02z"/>
		<path class="st1" d="M97.17,47.94c-0.06,0-0.13-0.01-0.19-0.03c-2.88-1.02-5.91-1.8-8.98-2.32c-0.21-0.04-0.38-0.18-0.45-0.38
			s-0.03-0.42,0.11-0.58c9.42-10.77,14.72-20.88,17-32.55L72.31,44.43c-0.23,0.23-0.59,0.23-0.82,0l-8.83-8.83
			c-0.11-0.11-0.17-0.26-0.17-0.41c0-0.15,0.06-0.3,0.17-0.41c10.42-10.37,23.19-21.71,42.8-24.98c0.03-0.01,0.07-0.01,0.1-0.01
			c0.03,0,0.06,0,0.09,0.01l0,0c0,0,0,0,0,0c0.09,0.01,0.17,0.05,0.25,0.1l0,0v0c0.05,0.03,0.09,0.08,0.13,0.13
			c0.05,0.06,0.08,0.13,0.09,0.2c0.01,0.03,0.01,0.06,0.02,0.09c0.77,7.99,0.01,15.98-2.26,23.74c-0.08,0.31-0.19,0.63-0.31,0.96
			l-0.15,0.43c-1.55,4.3-3.48,8.41-5.74,12.21C97.56,47.84,97.37,47.94,97.17,47.94z M89.2,44.63c2.63,0.49,5.22,1.18,7.72,2.03
			c2.12-3.63,3.94-7.53,5.4-11.6l0.16-0.44c0.1-0.29,0.21-0.58,0.28-0.87c1.81-6.21,2.64-12.55,2.49-18.91
			C102.74,25.39,97.67,34.77,89.2,44.63z M63.89,35.19l8.01,8.01l31.94-31.94C85.83,14.82,73.78,25.39,63.89,35.19z"/>
	</g>
	<g>
		<path class="st0" d="M97.4,47.44c-0.08-0.08-0.15-0.08-0.23-0.08c-5.69-2.01-11.8-3.11-18.14-3.11c-2.2,0-4.36,0.11-6.53,0.38
			c-12.41,1.48-23.56,7.1-32.06,15.4c7.7,7.55,17.57,12.86,28.61,14.87c1.06,0.19,2.16,0.38,3.23,0.49
			c2.24,0.27,4.48,0.42,6.75,0.42l38.59-15.78C111.93,54.46,105.06,50.1,97.4,47.44z"/>
		<path class="st1" d="M79.03,76.4c-2.2,0-4.43-0.14-6.82-0.42c-1.06-0.11-2.15-0.3-3.26-0.5c-10.91-1.99-20.91-7.18-28.91-15.03
			c-0.11-0.11-0.17-0.26-0.17-0.41c0-0.16,0.06-0.31,0.17-0.41c8.79-8.59,20.29-14.12,32.4-15.57c2.1-0.26,4.26-0.38,6.59-0.38
			c6.23,0,12.37,1.05,18.25,3.11c0.11,0.01,0.26,0.04,0.4,0.14c7.5,2.62,14.54,7.01,20.35,12.7c0.14,0.14,0.2,0.33,0.16,0.52
			c-0.04,0.19-0.17,0.35-0.35,0.43L79.25,76.36C79.18,76.38,79.11,76.4,79.03,76.4z M41.28,60.04c7.76,7.45,17.39,12.39,27.88,14.3
			c1.09,0.19,2.15,0.38,3.18,0.49c2.31,0.27,4.46,0.41,6.58,0.41l37.66-15.41c-5.59-5.3-12.27-9.39-19.37-11.85
			c-0.04-0.01-0.07-0.03-0.11-0.05c-0.05-0.01-0.09-0.01-0.12-0.02c-5.78-2.04-11.82-3.08-17.94-3.08c-2.29,0-4.4,0.12-6.46,0.37
			C60.92,46.6,49.83,51.86,41.28,60.04z"/>
	</g>
	<g>
		<path class="st0" d="M107.28,58.45c-3.44-2.38-7.16-4.31-11.03-5.71l-0.87-0.31c-5.27-1.86-10.77-2.8-16.35-2.8
			c-2.1,0-4.02,0.11-5.89,0.34c-8.88,1.06-17.41,4.59-24.53,10.08c3.92,3.04,8.27,5.38,12.87,7.12
			C67.91,60.49,88.03,53.12,107.28,58.45z"/>
		<path class="st1" d="M61.48,67.74c-0.07,0-0.14-0.01-0.21-0.04c-4.84-1.83-9.22-4.25-13.02-7.2c-0.14-0.11-0.22-0.28-0.22-0.46
			c0-0.18,0.08-0.35,0.23-0.46c7.26-5.6,15.84-9.12,24.81-10.19c1.88-0.23,3.83-0.35,5.96-0.35c5.65,0,11.21,0.95,16.54,2.84
			l0.88,0.31c3.91,1.42,7.67,3.36,11.16,5.78c0.23,0.16,0.31,0.47,0.19,0.72c-0.12,0.26-0.42,0.39-0.68,0.31
			c-18.8-5.21-38.68,1.75-45.23,8.55C61.79,67.68,61.64,67.74,61.48,67.74z M49.57,60.05c3.47,2.6,7.43,4.77,11.76,6.44
			c6.6-6.51,24.81-13.04,42.76-9.39c-2.57-1.53-5.27-2.81-8.03-3.81l-0.87-0.3c-5.21-1.84-10.64-2.77-16.16-2.77
			c-2.08,0-3.98,0.11-5.82,0.34C64.69,51.56,56.54,54.84,49.57,60.05z"/>
	</g>
	<g>
		<path class="st0" d="M61.48,67.16c2.76,1.04,5.58,1.92,8.51,2.45c0.94,0.17,1.91,0.34,2.92,0.45c1.78,0.21,3.45,0.33,5.09,0.37
			l29.28-11.98C88.03,53.12,67.91,60.49,61.48,67.16z"/>
		<path class="st1" d="M78,71.01c0,0-0.01,0-0.01,0c-1.65-0.04-3.33-0.16-5.14-0.37c-0.99-0.1-1.94-0.27-2.87-0.44
			c-2.74-0.5-5.56-1.31-8.7-2.5c-0.18-0.07-0.32-0.22-0.36-0.41c-0.04-0.19,0.01-0.39,0.15-0.53c6.75-7.01,27.15-14.2,46.37-8.87
			c0.24,0.07,0.41,0.28,0.43,0.52c0.01,0.25-0.13,0.48-0.36,0.57L78.22,70.97C78.15,71,78.08,71.01,78,71.01z M62.54,66.94
			c2.73,0.99,5.21,1.68,7.56,2.11c0.99,0.18,1.92,0.34,2.88,0.44c1.74,0.21,3.35,0.32,4.92,0.36l27.55-11.27
			C87.73,54.36,69.45,60.55,62.54,66.94z"/>
	</g>
	<g>
		<path class="st0" d="M56.04,28.16l16.47,16.47c-12.41,1.48-23.56,7.1-32.06,15.41c7.7,7.55,17.57,12.86,28.61,14.87
			c-7.17,3.98-15.03,6.79-23.3,8.23l-6.49-6.45L29.06,66.49c-3.15-3.15-3.15-8.23,0-11.35L56.04,28.16z"/>
		<path class="st1" d="M45.76,83.72c-0.15,0-0.3-0.06-0.41-0.17L28.65,66.9c-1.64-1.64-2.54-3.81-2.53-6.12
			c0.01-2.29,0.91-4.44,2.53-6.04l26.98-26.98c0.23-0.23,0.59-0.23,0.82,0l16.47,16.47c0.16,0.16,0.21,0.39,0.14,0.6
			c-0.07,0.21-0.26,0.36-0.48,0.38c-11.65,1.39-22.75,6.65-31.3,14.83c7.76,7.45,17.39,12.39,27.88,14.3
			c0.24,0.04,0.43,0.23,0.47,0.48c0.04,0.24-0.08,0.48-0.29,0.6c-7.32,4.07-15.22,6.86-23.48,8.3
			C45.82,83.72,45.79,83.72,45.76,83.72z M56.04,28.98L29.47,55.55c-1.41,1.39-2.18,3.25-2.19,5.23c-0.01,2,0.77,3.88,2.19,5.3
			l16.48,16.45c7.5-1.34,14.69-3.81,21.41-7.36c-10.3-2.19-19.71-7.25-27.32-14.72c-0.11-0.11-0.17-0.26-0.17-0.41
			c0-0.16,0.06-0.31,0.17-0.41c8.5-8.32,19.55-13.76,31.22-15.41L56.04,28.98z"/>
	</g>
	<g>
		<path class="st0" d="M39.27,76.69c1.97,1.97,3.38,4.33,4.21,6.83c-8.01,1.14-16.35,0.99-24.85-0.68
			c4.55,8.65,10.59,15.71,17.57,21.21C24.05,112.59,0.6,115.36,0.6,115.36s3.3-28.12,13.85-38.66
			C21.32,69.83,27.51,64.94,39.27,76.69z"/>
		<path class="st1" d="M0.6,115.94c-0.15,0-0.3-0.06-0.41-0.17c-0.12-0.13-0.19-0.3-0.17-0.48c0.14-1.16,3.45-28.44,14.01-39.01
			c7.26-7.26,13.76-11.87,25.63,0l0,0l0,0c1.96,1.96,3.47,4.4,4.35,7.06c0.05,0.16,0.03,0.34-0.06,0.49
			c-0.09,0.15-0.24,0.25-0.41,0.27c-7.89,1.12-15.91,0.97-23.85-0.46c4.29,7.82,9.95,14.53,16.84,19.96
			c0.14,0.11,0.23,0.29,0.22,0.47c0,0.18-0.1,0.35-0.25,0.46c-12.12,8.52-34.89,11.29-35.86,11.41
			C0.65,115.94,0.63,115.94,0.6,115.94z M26.52,70.17c-0.47,0-0.94,0.04-1.4,0.11c-3.76,0.59-7,3.56-10.25,6.82
			c-9.34,9.34-12.97,33.09-13.59,37.58c3.99-0.55,23.13-3.48,33.95-10.67c-7.05-5.69-12.8-12.72-17.11-20.91
			c-0.1-0.2-0.08-0.44,0.05-0.62c0.13-0.18,0.35-0.27,0.57-0.22c7.96,1.56,16.02,1.82,23.96,0.77c-0.85-2.25-2.14-4.25-3.84-5.94
			l0,0C34.16,72.41,30.2,70.17,26.52,70.17z"/>
	</g>
	<g>
		<path class="st0" d="M101.63,75.59C82.49,89.74,61.24,96.38,43.59,94.3c-9.75-1.1-18.4-4.89-24.97-11.46
			c4.55,8.65,10.59,15.71,17.57,21.21c23.98,18.82,59.12,18.59,83.02-2.85c7.02-6.37,12.2-13.7,15.73-21.5
			c-3.19,0.54-6.44,0.89-9.79,0.89C116.78,80.59,108.83,78.79,101.63,75.59z"/>
		<path class="st1" d="M75.96,118.39c-14.14,0-28.29-4.6-40.12-13.88c-7.33-5.77-13.29-12.97-17.72-21.4
			c-0.13-0.25-0.06-0.57,0.17-0.73c0.23-0.17,0.55-0.15,0.75,0.06c6.28,6.28,14.79,10.18,24.62,11.29c17.8,2.1,38.8-4.68,57.62-18.6
			c0.17-0.12,0.39-0.15,0.58-0.06c7.41,3.29,15.25,4.95,23.3,4.95c3.03,0,6.2-0.29,9.69-0.88c0.21-0.04,0.43,0.05,0.56,0.22
			c0.13,0.17,0.16,0.4,0.07,0.59c-3.72,8.21-9.06,15.51-15.87,21.69C107.19,112.76,91.58,118.39,75.96,118.39z M20.87,85.66
			c4.14,6.96,9.4,12.99,15.69,17.94c24.45,19.19,59.05,18,82.28-2.82c6.41-5.82,11.5-12.66,15.13-20.32
			c-3.13,0.48-6.02,0.72-8.8,0.72c-8.1,0-16-1.65-23.46-4.91C82.71,90.21,61.52,97,43.53,94.87C34.75,93.88,26.99,90.72,20.87,85.66
			z"/>
	</g>
	<g>
		<path class="st0" d="M125.16,60.99c-2.26,0-4.45-0.23-6.6-0.6c-0.09,0.1-0.17,0.2-0.26,0.3c-1.02,1.1-2.09,2.2-3.19,3.3
			c-4.32,4.31-8.84,8.17-13.49,11.61c7.2,3.19,15.15,5,23.53,5c3.34,0,6.6-0.35,9.79-0.89c3.19-7.03,5.01-14.44,5.52-21.89
			C135.77,59.85,130.6,60.99,125.16,60.99z"/>
		<path class="st1" d="M125.16,81.17c-8.21,0-16.21-1.7-23.77-5.05c-0.19-0.08-0.32-0.26-0.34-0.47c-0.02-0.2,0.07-0.41,0.23-0.53
			c4.74-3.5,9.25-7.39,13.42-11.55c1.1-1.1,2.15-2.19,3.17-3.29l0.26-0.3c0.13-0.14,0.34-0.21,0.52-0.18c2.32,0.4,4.44,0.6,6.5,0.6
			c5.22,0,10.29-1.05,15.08-3.13c0.19-0.08,0.4-0.06,0.57,0.06c0.17,0.12,0.26,0.31,0.24,0.51c-0.53,7.67-2.41,15.11-5.57,22.09
			c-0.08,0.18-0.24,0.3-0.43,0.33C131.49,80.88,128.26,81.17,125.16,81.17z M102.77,75.46c7.14,3.02,14.67,4.56,22.39,4.56
			c2.94,0,6.02-0.27,9.38-0.83c2.9-6.49,4.68-13.37,5.28-20.47c-4.67,1.89-9.6,2.85-14.66,2.85c-2.03,0-4.12-0.18-6.37-0.56
			l-0.05,0.06c-1.04,1.11-2.1,2.22-3.21,3.32C111.55,68.36,107.27,72.08,102.77,75.46z"/>
	</g>
	<g>
		<path class="st0" d="M140.47,57.82c0.59-8.45-0.45-16.93-3.08-24.95c-4.5,9.46-10.84,18.83-18.83,27.52
			c2.15,0.37,4.34,0.6,6.6,0.6C130.6,60.99,135.77,59.85,140.47,57.82z"/>
		<path class="st1" d="M125.16,61.57c-2.12,0-4.32-0.2-6.7-0.61c-0.21-0.04-0.38-0.18-0.45-0.38c-0.07-0.2-0.02-0.42,0.12-0.58
			c7.83-8.51,14.14-17.72,18.73-27.37c0.1-0.21,0.32-0.34,0.56-0.33c0.24,0.01,0.44,0.17,0.51,0.4c2.66,8.11,3.7,16.58,3.1,25.17
			c-0.01,0.21-0.15,0.4-0.35,0.49C135.77,60.48,130.54,61.57,125.16,61.57z M119.71,59.98c1.92,0.29,3.71,0.43,5.45,0.43
			c5.1,0,10.06-1.01,14.75-2.99c0.5-7.83-0.38-15.56-2.64-22.99C132.84,43.41,126.94,52,119.71,59.98z M140.47,57.82h0.01H140.47z"
			/>
	</g>
	<g>
		<path class="st0" d="M125.16,60.99c-2.26,0-4.45-0.23-6.6-0.6l-0.36,19.75c0.01,0,0.01,0,0.02,0l13.68-19.79l3.04,19.35
			c3.19-7.03,5.01-14.44,5.52-21.89C135.77,59.85,130.6,60.99,125.16,60.99z"/>
		<path class="st1" d="M118.22,80.72c-0.03,0-0.06,0-0.09-0.01c-0.28-0.05-0.51-0.3-0.5-0.58l0.36-19.75c0-0.17,0.08-0.33,0.21-0.44
			c0.13-0.11,0.3-0.16,0.47-0.12c4.77,0.82,8.83,0.76,12.94,0.05c0.12-0.08,0.27-0.11,0.42-0.07c2.81-0.52,5.56-1.35,8.21-2.51
			c0.19-0.08,0.4-0.06,0.57,0.06c0.17,0.12,0.26,0.31,0.24,0.51c-0.53,7.68-2.41,15.11-5.57,22.09c-0.1,0.23-0.34,0.37-0.6,0.33
			c-0.26-0.03-0.45-0.23-0.5-0.48l-2.82-17.92l-12.86,18.6C118.59,80.63,118.41,80.72,118.22,80.72z M119.13,61.07l-0.31,17.2
			l11.81-17.08C126.94,61.71,123.29,61.73,119.13,61.07z M132.57,60.86l2.64,16.79c2.51-6.04,4.06-12.39,4.61-18.94
			C137.46,59.67,135.04,60.39,132.57,60.86z"/>
	</g>
	<g>
		<path class="st0" d="M33.19,82.78c-1.69-1.69-3.93-2.61-6.31-2.61c-2.39,0-4.62,0.93-6.31,2.61c-0.09,0.09-0.18,0.22-0.27,0.32
			c4.74,0.82,9.43,1.17,14.04,1.09C34.01,83.69,33.63,83.21,33.19,82.78z M11.26,104.72c6.64-1.56,13.65-3.83,18.4-6.69
			c-3.89-4.03-7.35-8.65-10.25-13.88C15.87,88.7,13.08,96.96,11.26,104.72z"/>
		<path class="st1" d="M11.26,105.29c-0.15,0-0.3-0.06-0.41-0.17c-0.14-0.14-0.2-0.35-0.15-0.54c1.28-5.44,4.05-15.37,8.26-20.79
			c0.12-0.15,0.29-0.24,0.5-0.22c0.19,0.01,0.37,0.13,0.46,0.3c2.79,5.03,6.21,9.66,10.16,13.76c0.12,0.13,0.18,0.3,0.16,0.48
			c-0.02,0.18-0.12,0.33-0.28,0.42c-4.23,2.54-10.82,4.94-18.57,6.75C11.34,105.29,11.3,105.29,11.26,105.29z M19.34,85.21
			c-3.57,5.06-6.02,13.49-7.3,18.72c6.86-1.67,12.73-3.79,16.69-6.03C25.13,94.08,21.98,89.82,19.34,85.21z M33.07,84.77
			c-4.32,0-8.64-0.37-12.88-1.11c-0.21-0.04-0.38-0.18-0.45-0.39s-0.02-0.43,0.13-0.58l0.09-0.11c0.06-0.08,0.12-0.15,0.19-0.22
			c1.8-1.8,4.18-2.78,6.72-2.78s4.92,0.99,6.72,2.78c0.46,0.46,0.87,0.96,1.22,1.5c0.12,0.18,0.13,0.4,0.03,0.59
			c-0.1,0.19-0.29,0.31-0.5,0.31C33.92,84.77,33.5,84.77,33.07,84.77z M21.5,82.71c3.81,0.6,7.7,0.91,11.58,0.91
			c0.03,0,0.07,0,0.11,0c-0.13-0.15-0.26-0.29-0.4-0.43c-1.58-1.58-3.67-2.45-5.9-2.45C24.89,80.74,23,81.43,21.5,82.71z"/>
	</g>
</g>
</svg>
