<?xml version="1.0" encoding="utf-8"?>
<!-- Generator: Adobe Illustrator 24.3.0, SVG Export Plug-In . SVG Version: 6.00 Build 0)  -->
<svg version="1.1" id="Слой_1" xmlns="http://www.w3.org/2000/svg" xmlns:xlink="http://www.w3.org/1999/xlink" x="0px" y="0px"
	 viewBox="0 0 106.83 20" style="enable-background:new 0 0 106.83 20;" xml:space="preserve">
<style type="text/css">
	.st0{fill:#FFFFFF;}
</style>
<g id="Logo">
	<path class="st0" d="M7.22,13.74c0,4.39-1.68,6.25-5.11,6.25c-0.96,0-1.59-0.09-2.12-0.2v-1.66c0.54,0.1,1.35,0.18,2.16,0.18
		c2.76,0,3.21-2.22,3.21-4.52V0.34h1.85V13.74z"/>
	<path class="st0" d="M30.12,9.9c0,5.39-3.28,10.1-9.4,10.1c-5.78,0-9.32-4.43-9.32-10.04C11.4,4.53,14.93,0,20.84,0
		C26.46,0,30.12,4.37,30.12,9.9z M13.37,9.88c0,4.37,2.58,8.46,7.41,8.46c4.96,0,7.37-3.86,7.37-8.39c0-4.33-2.56-8.29-7.42-8.29
		C15.92,1.66,13.37,5.53,13.37,9.88z"/>
	<path class="st0" d="M52.06,9.9c0,5.39-3.28,10.1-9.4,10.1c-5.78,0-9.32-4.43-9.32-10.04c0-5.43,3.53-9.96,9.44-9.96
		C48.4,0,52.06,4.37,52.06,9.9z M35.31,9.88c0,4.37,2.58,8.46,7.41,8.46c4.96,0,7.37-3.86,7.37-8.39c0-4.33-2.56-8.29-7.42-8.29
		C37.86,1.66,35.31,5.53,35.31,9.88z"/>
	<path class="st0" d="M56.4,0.34h7.05c5.71,0,9.38,3.84,9.38,9.43c0,5.96-3.91,9.9-9.42,9.9H56.4V0.34z M58.25,18.02h4.8
		c5.29,0,7.81-3.57,7.81-8.18c0-4.47-2.71-7.85-7.68-7.85h-4.93V18.02z"/>
	<path class="st0" d="M77.16,0.34H79V18h11.1l-0.31,1.67H77.16V0.34z"/>
	<path class="st0" d="M105.77,10.31H94.98v7.7h11.85l-0.27,1.65H93.13V0.34h13.19v1.65H94.98v6.66h10.79V10.31z"/>
</g>
</svg>
