<?xml version="1.0" encoding="utf-8"?>
<!-- Generator: Adobe Illustrator 24.3.0, SVG Export Plug-In . SVG Version: 6.00 Build 0)  -->
<svg version="1.1" id="Слой_1" xmlns="http://www.w3.org/2000/svg" xmlns:xlink="http://www.w3.org/1999/xlink" x="0px" y="0px"
	 viewBox="0 0 296.7 301.77" style="enable-background:new 0 0 296.7 301.77;" xml:space="preserve">
<style type="text/css">
	.st0{fill:none;stroke:#FFFFFF;stroke-width:2;stroke-linecap:round;stroke-linejoin:round;stroke-miterlimit:10;}
	.st1{fill:none;stroke:#FFFFFF;stroke-width:2;stroke-miterlimit:10;}
</style>
<g>
	<g>
		<path class="st0" d="M248.03,152.23c-2.86,1.95-10.24,6.07-15.05,8.05c-4.83,1.99-10.31,2.11-15.51,1.65
			c-5.2-0.46-10.49-2.67-13.47-6.96c-1.2-1.73-2.17-3.9-4.16-4.6c-1.47-0.52-3.08-0.06-4.57,0.39c-5.26,1.61-10.51,3.22-15.77,4.82"
			/>
		<path class="st0" d="M235.31,122.71c-3.67-3.07-4.78-8.19-5.29-12.95c-0.24-2.22-0.39-4.52,0.33-6.63
			c3.05-8.92,10.82-1.49,11.85,4.26c0.7,3.87-0.29,8.19-1.82,11.76"/>
		<path class="st0" d="M230.4,94.63c3.37-3.47,8.08-5.61,12.91-5.87"/>
		<path class="st0" d="M239.27,114.45c0.36-0.88,0.73-1.77,1.09-2.65c-1,1.88-2.03,3.86-2.02,5.99c0.01,2.13,1.46,4.42,3.59,4.58"/>
		<path class="st0" d="M216.93,133.23c1.42-3.16,4.78-5.12,8.2-5.66c3.42-0.54,6.92,0.13,10.26,1.02"/>
		<path class="st0" d="M174.17,119.51c-0.01-11.67,10.34-12.14,15.1-9.63c1.83,0.97,3.25,2.5,4.27,4.29
			c1.06,1.85,0.83,4.11,1.86,5.84c0.54,0.91,1.72,1.53,2.68,1.09c1.05-0.48,1.26-1.84,1.52-2.97c0.25-1.13,1.06-2.44,2.19-2.23
			c1.36,0.26,1.39,2.27,2.41,3.2c0.86,0.79,2.3,0.59,3.22-0.13c10.99-8.51,14.06-27.91,2.6-37.43c-0.7-0.58-1.46-1.13-1.91-1.92
			c-0.45-0.79-0.49-1.91,0.19-2.51c0.46-0.41,1.12-0.49,1.74-0.52c3.13-0.13,6.22,0.69,8.94,2.24c2.6,1.48,4.69,2.78,5.48-1.31
			c0.2-1.01,0.43-2.12,1.24-2.75c0.97-0.76,2.35-0.53,3.54-0.22c6.18,1.62,11.99,4.61,16.95,8.64c4.47,3.64,11.17,9.6,10.97,15.85"
			/>
		<path class="st0" d="M226.29,127.55c3.76,9.97,9.11,17.14,21.41,18.48"/>
		<path class="st0" d="M190.53,56.34c5.42-2.58,13.08-4.68,18.7-6.78"/>
		<path class="st0" d="M158.28,261.65c-16.84-13.31-27.32-33.42-32.44-54.26c-5.13-20.84-5.33-42.56-4.68-64.02
			c0.23-7.67,0.65-15.64,4.28-22.4"/>
		<path class="st0" d="M172.42,222.38c5.69,2.03,8.19,4.21,12.68,7.89c2.06,1.69,2.87,1.94,5.25,2.55c1.91,0.49,3.46,0.14,4.9,1.9
			c2.67,3.28,1.61,8.8,5.63,11.37c4.94,3.16,4.61-4.26,8.84-4.96c3.36-0.55,5.21,4.72,8.61,4.83c3.45,0.11,4.47-3.91,6.23-6.04
			c1.98-2.41,4.82-4.3,7.61-5.62c2.5-1.18,8.38-2.55,11.14-2.85"/>
		<path class="st1" d="M85.15,108.72c4.36-5.13,10.31-10.22,17.35-11.52c2.82-0.52,6.31-0.16,7.68,2.36c0.67,1.23,0.7,2.8,1.64,3.84
			c0.96,1.06,2.53,1.22,3.95,1.3c3.85,0.21,7.71,0.08,11.55,0.26c3.16,0.15,6.44,1.21,9.57,1.87c1.66,0.35,3.17,1.44,3.75,3.03
			c1.88,5.18-8.14,7.83-5.42,13.16c0.65,1.28,1.95,2.12,3.34,2.48c10.41,2.64,19.11,5.88,28.99,11.3c4.3,3.49,20.35,2.7,19.85-9.42
			c-7.11-1.75-12.65-3.08-13.23-7.86c-0.09-0.74-0.68-1.33-1.43-1.38c-3.63-0.24-7.12-2.42-8.83-5.65c-1.62-3.06-1.57-6.91,0-9.98
			c0.5-0.98,0.16-2.21-0.86-2.64c-0.46-0.19-0.93-0.36-1.4-0.5c-2.76-0.83-4.23-3.91-3.27-6.62c2.3-6.5,6.31-12.38,11.39-17.04
			c3.31-3.04,7.09-5.57,11.18-7.44c2.04-0.93,4.15-1.7,6.32-2.28c0.17-0.04,1.19-0.35,2.31-0.69c1.35-0.4,2.04-1.91,1.42-3.17
			c-0.46-0.95-0.71-2-0.69-3.05c0.01-0.57,0.09-1.15-0.06-1.7c-0.33-1.22-1.65-1.87-2.86-2.2c-5.14-1.4-2.55-6.46-7.9-7.08
			c-9.82-1.13-21.52-3.87-27.94-11.85c-5.71-7.1-8.37-16.73-6.61-25.72c0.37-1.88,1.23-4.05,3.11-4.42
			c1.24-0.24,2.46,0.42,3.63,0.91c10.34,4.35,11.71-1.47,20.88-4.52c10.11-3.36,21.91-0.99,29.95,6
			c5.34,4.65,8.88,11.22,10.09,18.18c1.28,7.38-1.17,14.36-3.19,21.41c-0.33,1.16,0.04,2.42,0.97,3.18
			c1.46,1.18,2.45,2.94,2.73,4.79c0.19,1.21,1.33,2.01,2.55,1.86c3.59-0.44,9.61-0.37,10.48-0.39c5.21-0.12,10.46,0.27,15.51,1.62
			c8.58,2.3,16.72,8.06,20.87,16.08c4.15,8.04,6.07,14.36,14.81,18.87c1.76,0.91,3.85,2.01,4.08,3.99c0.14,1.2-0.49,2.36-1.22,3.33
			c-2.77,3.68-7.37,5.91-11.97,5.82c-3.87-0.08-7.66-1.8-10.33-4.59c-0.71-0.75-1.9-0.64-2.47,0.22
			c-4.61,7.01-15.23,12.65-3.72,19.45c3.55,2.1,9.66-1.34,11.98,2.45c0.12,4.14-3.34,8.65-7.23,10.05c-1.12,0.4-2.39,0.84-2.87,1.92
			c-0.38,0.85-0.15,1.83,0.03,2.75c0.44,2.26,0.44,2.26-1.54,4.04c-1.71,1.54-4.35,2.51-4.35,2.51c0.27,1.26,0.36,3.58,0.29,4.96
			c-0.03,0.64,0.34,1.21,0.92,1.47c5.4,2.38,11.04,5.29,17.07,5.35c5.73,0.06,10.66-5.29,15.58-7.94c1.22-0.66,2.5-1.3,3.89-1.39
			c1.38-0.09,2.91,0.51,3.49,1.77c1.05,2.25-1.99,4.54-2.34,6.6c-0.66,3.88,5.13,1.51,7.17,2.64c1.08,0.6,1.9,1.72,1.95,2.95
			c0.06,1.55-1.05,2.88-2.17,3.97c-1.17,1.14-2.43,2.2-3.76,3.16c-0.47,0.35-0.84,0.87-0.84,1.46c0,2.82,5.17,2.29,3,6.25
			c-0.64,1.16-1.8,1.99-3.1,2.23c-5.43,1.04-11.12,0.61-16.34-1.21c-1.85-0.65-3.78-1.12-5.69-0.36c-0.65,0.26-1.23,0.84-1.28,1.54
			c-0.13,1.67,2.56,4.01,3.11,5.75c1.32,4.13-0.03,11.33-5.94,8.64c-1.61-0.73-2.85-2.06-4.08-3.34
			c-11.22-11.71-18.84-15.85-34.55-18.49c-12.35-3.2-25.8-2.5-38.44-0.8c-1.1,0.15-2.24,0.33-3.17,0.95c-2.4,1.62-2.17,5.13-2,8.02
			c0.55,9.5-0.49,16.88-5.89,23.34c-1.79,2.14-0.9,5.42,1.67,6.5c4.01,1.69,8.85,3.45,10.33,3.75c1.93,0.39,3.46-0.03,4.98,1.67
			c2.83,3.15,2.03,8.71,6.17,11.09c5.08,2.92,4.4-4.48,8.59-5.38c3.33-0.71,5.43,4.47,8.84,4.41c3.46-0.06,4.28-4.12,5.93-6.34
			c1.87-2.5,4.6-4.52,7.34-5.98c5.43-2.88,11.98-3.79,17.9-1.98c2,0.61,4.05,1.62,5.02,3.47c1.46,2.79-2.34,8.14-6.68,12.8
			c-1.52,1.64-0.59,4.27,1.62,4.62c1.31,0.21,2.61,0.54,3.87,0.99c1.97,0.71,3.97,1.81,4.85,3.71c2.93,6.32-15.34,17.91-18.77,21.84
			c-7.15,8.21-12.23,18.24-14.42,28.91c-0.71,3.44-1.15,7-3.31,9.94c-1.13,1.54-2.78,2.72-4.66,3.07c-4.22,0.78-5.51-2.93-7.98-5.3
			c-3.87-3.71-9.17-6.58-13.54-9.71c-1.03-0.74-2.11-1.54-2.58-2.71c-0.75-1.84,0.22-3.73,1.53-5.35c0.83-1.03,0.81-2.57-0.24-3.38
			c-1.13-0.86-2.57-1.4-3.98-1.71c-2.23-0.49-4.57-0.58-6.72-1.36c-4.63-1.7-2.97-7.21-6.17-10.38c-1.78-1.76-3.25-3.2-4.97-4.34
			c-1.95-1.28-4.54,0.08-4.53,2.41l0.02,5.94c0,0.9,0,1.83-0.33,2.68c-0.46,1.15-1.47,1.98-2.52,2.64
			c-7.82,4.91-18.7,2.79-26.35,4.9c-9.25,2.56-19.23,0-26.54-6.22c-28.33-24.14-36.04-67.6-36.67-103.15
			c-0.02-1.36-0.91-2.53-2.22-2.91c-5.45-1.57-12.28-1.7-16.98,0.88c-0.92,0.5-1.84,1.12-2.33,2.05c-1.38,2.63,1.5,4.21,2.99,5.71
			c1.75,1.78,2.73,5,3,7.43c0.32,2.87-0.56,6.01-2.83,7.79s-6.04,1.64-7.72-0.71c-2.41-3.36-1.51-9.76-6.98-10.5
			c-1.24-0.17-2.49,0.23-3.68,0.62c-8.25,2.68-16.76,7.48-24.39,5.02c-1.92-0.62-3.13-2.67-2.62-4.63c0.51-1.99,1.61-3.51,3.15-4.82
			c1.33-1.13,2.83-2.42,0.98-4.15c-0.77-0.72-1.82-1.03-2.83-1.3c-1.88-0.51-3.8-0.98-5.47-1.98c-1.67-1-3.09-2.62-3.32-4.55
			c-0.23-1.93,1.05-4.08,2.98-4.34c1.21-0.17,2.39,0.38,3.59,0.6c1.2,0.22,2.72-0.09,3.13-1.24c0.36-1.02-0.34-2.08-1-2.94
			c-1.07-1.38-2.15-2.83-2.5-4.54c-0.35-1.71,0.28-3.75,1.87-4.47c1.47-0.67,3.2-0.03,4.56,0.84c2.88,1.85,5.02,4.7,7.97,6.43
			c2.78,1.63,6.19,2.16,9.33,1.43c3.07-0.71,6.06-3.66,9.01-5.01c3.26-1.49,6.7-2.58,10.22-3.26c6.08-1.18,13.37-1.24,19.69,0.11
			c1.75,0.37,3.39-0.78,3.66-2.55c0.53-3.51,0.9-8.83,1.87-12.26"/>
		<path class="st0" d="M193.45,63.94c5.62-1.57,11.23-3.14,16.85-4.72"/>
		<path class="st0" d="M192.47,274.65c3.84-8.13,7.16-16.5,9.93-25.05"/>
		<path class="st0" d="M217.34,246.89c-2.16,3.84-2.33,8.75-0.42,12.72"/>
		<path class="st0" d="M222.14,246.21c-0.42,3.13,0.64,6.43,2.82,8.73"/>
		<path class="st0" d="M216.26,226.43c-0.07,2.64,1.08,5.28,3.07,7.02"/>
		<path class="st0" d="M221.01,222.41c-0.62,2.72,0.83,5.77,3.33,7.01"/>
		<path class="st0" d="M208.92,295.87c6.99-23.81,22.99-44.86,44.06-57.96"/>
		<path class="st0" d="M232.9,232.35c4.79-6.01,10.39-11.37,16.62-15.88"/>
		<path class="st0" d="M171.4,205.99c-14.79,5.87-32.6,3.33-45.17-6.43"/>
		<path class="st0" d="M173.4,211.29c-2.42,2.46-5.94,3.44-9.34,4.01c-12.42,2.07-25.52-0.24-36.48-6.44"/>
		<path class="st0" d="M146.15,228.63c7.04-6.17,17.2-8.59,26.27-6.25"/>
		<path class="st0" d="M164.84,137.21c-0.99,3.35-1.5,6.91-0.95,10.36c0.56,3.45,2.27,6.8,5.09,8.87c2.82,2.07,7.7,0.81,10.82-0.77
			c-6.33-2.01-10.52-9.19-9.17-15.69"/>
		<path class="st0" d="M192.43,167.84c-1.89-3.94-2.56-8.45-1.9-12.76"/>
		<path class="st0" d="M140.56,155.82c-4.43,3.91-10.41,6.02-16.32,5.76"/>
		<path class="st0" d="M123.34,129.97c3.49-2.08,7.49-3.32,11.55-3.57"/>
		<path class="st0" d="M127.09,118.72c2.45-3.75,6.43-6.47,10.81-7.38"/>
		<path class="st0" d="M72.8,145.28c-0.22,5.78-0.45,11.56-0.67,17.34"/>
	</g>
</g>
</svg>
